<svg xmlns="http://www.w3.org/2000/svg" width="100" height="100" viewBox="0 0 100 100"><path fill="#57C7ED" d="M50 0c-27.614 0-50 22.386-50 50s22.386 50 50 50 50-22.386 50-50-22.386-50-50-50z"/><path fill="#79D2F1" d="M54 9.999h-14c-1.104 0-2 .896-2 2s.896 2 2 2h2v.003c.813.018 1.469.68 1.469 1.497 0 .818-.655 1.48-1.469 1.497v.003h-8c-1.104 0-2 .896-2 2s.896 2 2 2h15c1.104 0 2-.896 2-2s-.896-2-2-2c-.828 0-1.5-.672-1.5-1.5s.672-1.5 1.5-1.5h5c1.104 0 2-.896 2-2s-.896-2-2-2z"/><path fill="#53BDE1" d="M70.155 30.826c-1.925-1.927-6.752-.22-9.062 2.093l-8.789 8.795c-.861-.798-22.207-8.409-22.975-7.644l-2.786 2.781c-.77.769-.77 2.015 0 2.783l15.607 12.24-6.15 6.154c-.468.468-1.055 1.188-1.675 2.046l-.245-.245c-.393-.392-5.997-1.1-6.39-.708l-1.42 1.417c-.392.391-.392 1.025 0 1.417l.7.697 3.754 3.747c-.744 1.855-1.019 3.466-.3 4.185.719.721 2.331.444 4.188-.303l3.699 3.691.736.734c.392.392 1.027.392 1.42 0l1.42-1.416c.392-.393-.318-5.986-.71-6.377l-.242-.241c.853-.618 1.568-1.203 2.034-1.669l6.15-6.155 12.246 15.558c.77.768 2.017.768 2.786 0l2.786-2.782c.769-.768-6.869-22.116-7.657-22.944l8.781-8.787c2.313-2.31 4.019-7.141 2.094-9.067zM70.155 30.826c-1.925-1.927-6.752-.22-9.062 2.093l-8.789 8.795c-.861-.798-22.207-8.409-22.975-7.644l-2.786 2.781c-.77.769-.77 2.015 0 2.783l15.607 12.24-6.15 6.154c-.468.468-1.055 1.188-1.675 2.046l-.245-.245c-.393-.392-5.997-1.1-6.39-.708l-1.42 1.417c-.392.391-.392 1.025 0 1.417l.7.697 3.754 3.747c-.744 1.855-1.019 3.466-.3 4.185.719.721 2.331.444 4.188-.303l3.699 3.691.736.734c.392.392 1.027.392 1.42 0l1.42-1.416c.392-.393-.318-5.986-.71-6.377l-.242-.241c.853-.618 1.568-1.203 2.034-1.669l6.15-6.155 12.246 15.558c.77.768 2.017.768 2.786 0l2.786-2.782c.769-.768-6.869-22.116-7.657-22.944l8.781-8.787c2.313-2.31 4.019-7.141 2.094-9.067z"/><path fill="#676767" d="M39 31.999c-1.104 0-2 .896-2 2s.896 2 2 2 2-.896 2-2-.896-2-2-2zm6 2c-1.104 0-2 .896-2 2s.896 2 2 2 2-.896 2-2-.896-2-2-2zm22 21c0-1.104-.896-2-2-2s-2 .896-2 2 .896 2 2 2 2-.895 2-2zm0 4c-1.104 0-2 .896-2 2s.896 2 2 2 2-.896 2-2-.896-2-2-2zM39 31.999c-1.104 0-2 .896-2 2s.896 2 2 2 2-.896 2-2-.896-2-2-2zm6 2c-1.104 0-2 .896-2 2s.896 2 2 2 2-.896 2-2-.896-2-2-2zm22 21c0-1.104-.896-2-2-2s-2 .896-2 2 .896 2 2 2 2-.895 2-2zm0 4c-1.104 0-2 .896-2 2s.896 2 2 2 2-.896 2-2-.896-2-2-2z"/><path fill="#8AD8F2" d="M100 50c0-6.729-1.338-13.142-3.747-19.001h-9.253c-1.104 0-2 .896-2 2s.896 2 2 2h6c.828 0 1.5.671 1.5 1.5 0 .828-.672 1.5-1.5 1.5h-1.5c-1.381 0-2.5 1.119-2.5 2.5s1.119 2.5 2.5 2.5h4.5c.828 0 1.5.672 1.5 1.5s-.672 1.5-1.5 1.5h-11c-1.657 0-3 1.344-3 3 0 1.657 1.343 3 3 3h14.949c.027-.664.051-1.328.051-1.999z"/><g fill="#70CFF0"><path d="M43.707 37.706l-1.414-1.414-36.693 36.692c.321.618.654 1.228.999 1.83l37.108-37.108zM3.937 69.478l33.771-33.771-1.414-1.415-33.158 33.157c.254.683.517 1.361.801 2.029zM66.707 63.707l-1.414-1.414-34.055 34.054c.676.274 1.357.536 2.048.781l33.421-33.421zM25.819 93.766c.611.338 1.23.659 1.856.973l35.031-35.032-1.414-1.413-35.473 35.472z"/></g><g fill="#66C3E3"><path d="M43.246 38.167c-.69-.244-1.391-.49-2.095-.733l-7.654 7.654 1.585 1.243 8.164-8.164zM29.014 41.571l1.585 1.244 6.686-6.686c-.74-.242-1.459-.473-2.143-.688l-6.128 6.13zM55.482 66.931l7.225-7.225-1.414-1.413-7.056 7.056zM65.332 65.082c-.219-.687-.453-1.401-.696-2.132l-6.875 6.874 1.246 1.583 6.325-6.325z"/></g><path fill="#EAEAEA" d="M36.081 57.83l7.099 7.085c.392.391 1.102 5.984.71 6.377l-1.42 1.416c-.393.392-1.028.392-1.42 0l-.736-.734-5.631-5.619-5.711-5.701-.7-.697c-.392-.392-.392-1.026 0-1.417l1.42-1.417c.392-.393 5.996.315 6.389.707zM54.314 39.721l6.965 6.954c.769.769 8.431 22.182 7.661 22.95l-2.786 2.782c-.77.768-2.017.768-2.786 0l-15.348-19.499-19.476-15.273c-.77-.769-.77-2.015 0-2.783l2.786-2.781c.77-.768 22.215 6.881 22.984 7.65z"/><path fill="#fff" d="M72.155 28.826c1.925 1.926.219 6.757-2.091 9.067l-25.092 25.112c-2.31 2.312-10.622 7.507-12.546 5.58-1.925-1.926 3.266-10.244 5.575-12.556l25.093-25.11c2.309-2.313 7.136-4.02 9.061-2.093z"/><path fill="#DEDEDE" d="M40.298 46.853l3.963 3.107 10.146-10.146-.093-.093c-.223-.222-2.179-1.021-4.86-2.024l-9.156 9.156z"/><path fill="#F2F2F2" d="M40.001 58.029l25.093-25.11c1.893-1.895 5.472-3.379 7.763-2.796-.128-.505-.354-.949-.701-1.297-1.925-1.927-6.752-.22-9.062 2.093l-25.093 25.11c-2.31 2.312-7.5 10.63-5.575 12.556.348.349.909.458 1.601.399.261-3.138 4.081-9.06 5.974-10.955z"/></svg>