<svg xmlns="http://www.w3.org/2000/svg" width="100" height="100" viewBox="0 0 100 100"><path fill="#3DB39E" d="M50 0c27.614 0 50 22.386 50 50s-22.386 50-50 50-50-22.386-50-50 22.386-50 50-50z"/><path fill="#37A18E" d="M97.369 66h-94.738c6.674 19.764 25.353 34 47.369 34 22.017 0 40.695-14.236 47.369-34z"/><path fill="#E4E7E7" d="M28.438 23h43.125c3.002 0 5.437 2.597 5.437 5.801v42.399c0 3.203-2.435 5.8-5.438 5.8h-43.124c-3.003 0-5.438-2.597-5.438-5.8v-42.399c0-3.204 2.435-5.801 5.438-5.801z"/><path fill="#D2D5D5" d="M69.143 74h-38.286c-2.678 0-4.857-2.312-4.857-5.153v-37.693c0-2.842 2.179-5.154 4.857-5.154h38.285c2.679 0 4.858 2.312 4.858 5.154v37.692c0 2.842-2.179 5.154-4.857 5.154zm-38.286-46c-1.575 0-2.857 1.415-2.857 3.154v37.692c0 1.739 1.282 3.154 2.857 3.154h38.285c1.576 0 2.858-1.415 2.858-3.153v-37.693c0-1.739-1.282-3.154-2.857-3.154h-38.286z"/><path fill="#D8DBDB" d="M23 71.2c0 1.344.432 2.576 1.151 3.56l11.686-11.516v-25.262l-12.837 12.065v21.153z"/><path fill="#C7CACA" d="M28 68.847v-23.499l-2 1.88v21.619c0 1.169.383 2.236 1.004 3.102l1.444-1.423c-.28-.488-.448-1.061-.448-1.679z"/><path fill="#ABADAD" d="M37 44c2.209 0 4-1.791 4-4s-1.791-4-4-4-4 1.791-4 4 1.791 4 4 4zm0 12c-2.209 0-4 1.791-4 4s1.791 4 4 4 4-1.791 4-4-1.791-4-4-4z"/><path fill="#CDCFCF" d="M37 38c1.104 0 2 .896 2 2v20c0 1.104-.896 2-2 2s-2-.896-2-2v-20c0-1.104.896-2 2-2z"/><path fill="#C2C5C5" d="M74 37h-2c-.553 0-1 .447-1 1v6c0 .553.447 1 1 1h2c.553 0 1-.447 1-1v-6c0-.553-.447-1-1-1zm0 18h-2c-.553 0-1 .447-1 1v6c0 .553.447 1 1 1h2c.553 0 1-.447 1-1v-6c0-.553-.447-1-1-1z"/><path fill="#D7B354" d="M47 50h4v-4h-4v4zm6 0h4v-4h-4v4zm6-4v4h4v-4h-4zm0 10h4v-4h-4v4zm-6 0h4v-4h-4v4zm-6 0h4v-4h-4v4zm0 6h4v-4h-4v4zm6 0h4v-4h-4v4zm6 0h4v-4h-4v4z"/><path fill="#556973" d="M47 38h16v6h-16v-6z"/><g fill="#B7B9B9"><path d="M72 45h2c.553 0 1-.447 1-1h-2c-.553 0-1-.447-1-1v-6c-.553 0-1 .447-1 1v6c0 .553.447 1 1 1zM72 61v-6c-.553 0-1 .447-1 1v6c0 .553.447 1 1 1h2c.553 0 1-.447 1-1h-2c-.553 0-1-.447-1-1z"/></g><path fill="#B8BABA" d="M37 60v-20c0-.738.405-1.376 1-1.723-.295-.172-.634-.277-1-.277-1.104 0-2 .896-2 2v20c0 1.104.896 2 2 2 .366 0 .705-.105 1-.277-.595-.347-1-.985-1-1.723z"/></svg>