<svg xmlns="http://www.w3.org/2000/svg" width="100" height="100" viewBox="0 0 100 100"><path fill="#EEF3F3" d="M50-.001c-27.614 0-50 22.387-50 50 0 27.615 22.386 50.001 50 50.001s50-22.386 50-50.001c0-27.613-22.386-50-50-50z"/><path fill="#E2574C" d="M10 53.999c0 10.493 8.507 19 19 19h65.393c3.575-6.887 5.607-14.704 5.607-23 0-5.227-.805-10.264-2.293-15h-68.707c-10.493 0-19 8.507-19 19z"/><path fill="#CB4E44" d="M76 72.999h18.393c3.575-6.887 5.607-14.704 5.607-23 0-5.227-.805-10.264-2.293-15h-21.707v38zM97.031 66.999h-68.031c-9.47 0-17.299-6.936-18.741-16-.156.979-.259 1.977-.259 3 0 10.493 8.507 19 19 19h65.393c1.002-1.932 1.89-3.932 2.638-6z"/><path fill="#C84D43" d="M39 42.999c-.553 0-1 .447-1 1s.447 1 1 1 1-.447 1-1-.447-1-1-1zm6 12c-.553 0-1 .447-1 1s.447 1 1 1 1-.447 1-1-.447-1-1-1zm2-12c-.553 0-1 .447-1 1s.447 1 1 1 1-.447 1-1-.447-1-1-1zm0 10c.553 0 1-.447 1-1s-.447-1-1-1-1 .447-1 1 .447 1 1 1zm-2-6c-.553 0-1 .447-1 1s.447 1 1 1 1-.447 1-1-.447-1-1-1zm-4 8c-.553 0-1 .447-1 1s.447 1 1 1 1-.447 1-1-.447-1-1-1zm-2-2c.553 0 1-.447 1-1s-.447-1-1-1-1 .447-1 1 .447 1 1 1zm2-6c-.553 0-1 .447-1 1s.447 1 1 1 1-.447 1-1-.447-1-1-1zm2-4c-.553 0-1 .447-1 1s.447 1 1 1 1-.447 1-1-.447-1-1-1zm0 10c.553 0 1-.447 1-1s-.447-1-1-1-1 .447-1 1 .447 1 1 1zm12-10c-.553 0-1 .447-1 1s.447 1 1 1 1-.447 1-1-.447-1-1-1zm0 10c.553 0 1-.447 1-1s-.447-1-1-1-1 .447-1 1 .447 1 1 1zm-2-6c-.553 0-1 .447-1 1s.447 1 1 1 1-.447 1-1-.447-1-1-1zm4 8c-.553 0-1 .447-1 1s.447 1 1 1 1-.447 1-1-.447-1-1-1zm-8-8c-.553 0-1 .447-1 1s.447 1 1 1 1-.447 1-1-.447-1-1-1zm4 8c-.553 0-1 .447-1 1s.447 1 1 1 1-.447 1-1-.447-1-1-1zm-4 0c-.553 0-1 .447-1 1s.447 1 1 1 1-.447 1-1-.447-1-1-1zm2-12c-.553 0-1 .447-1 1s.447 1 1 1 1-.447 1-1-.447-1-1-1zm-32 2c.553 0 1-.447 1-1s-.447-1-1-1-1 .447-1 1 .447 1 1 1zm-2 4c.553 0 1-.447 1-1s-.447-1-1-1-1 .447-1 1 .447 1 1 1zm2 2c-.553 0-1 .447-1 1s.447 1 1 1 1-.447 1-1-.447-1-1-1zm2 6c.553 0 1-.447 1-1s-.447-1-1-1-1 .447-1 1 .447 1 1 1zm36-10c-.553 0-1 .447-1 1s.447 1 1 1 1-.447 1-1-.447-1-1-1zm-44 2c.553 0 1-.447 1-1s-.447-1-1-1-1 .447-1 1 .447 1 1 1zm4 8c.553 0 1-.447 1-1s-.447-1-1-1-1 .447-1 1 .447 1 1 1zm-2-12c.553 0 1-.447 1-1s-.447-1-1-1-1 .447-1 1 .447 1 1 1zm-1 11c0-.553-.447-1-1-1s-1 .447-1 1 .447 1 1 1 1-.447 1-1zm1-5c-.553 0-1 .447-1 1s.447 1 1 1 1-.447 1-1-.447-1-1-1zm6-10c.553 0 1-.447 1-1s-.447-1-1-1-1 .447-1 1 .447 1 1 1zm12 6c-.553 0-1 .447-1 1s.447 1 1 1 1-.447 1-1-.447-1-1-1zm2 6c.553 0 1-.447 1-1s-.447-1-1-1-1 .447-1 1 .447 1 1 1zm0-10c-.553 0-1 .447-1 1s.447 1 1 1 1-.447 1-1-.447-1-1-1zm2 12c-.553 0-1 .447-1 1s.447 1 1 1 1-.447 1-1-.447-1-1-1zm0-8c-.553 0-1 .447-1 1s.447 1 1 1 1-.447 1-1-.447-1-1-1zm-16 0c-.553 0-1 .447-1 1s.447 1 1 1 1-.447 1-1-.447-1-1-1zm2-4c-.553 0-1 .447-1 1s.447 1 1 1 1-.447 1-1-.447-1-1-1zm0 10c.553 0 1-.447 1-1s-.447-1-1-1-1 .447-1 1 .447 1 1 1zm28 0c.553 0 1-.447 1-1s-.447-1-1-1-1 .447-1 1 .447 1 1 1zm-20 14c-.553 0-1 .447-1 1s.447 1 1 1 1-.447 1-1-.447-1-1-1zm2-26c.553 0 1-.447 1-1s-.447-1-1-1-1 .447-1 1 .447 1 1 1zm4 0c.553 0 1-.447 1-1s-.447-1-1-1-1 .447-1 1 .447 1 1 1zm-2 26c-.553 0-1 .447-1 1s.447 1 1 1 1-.447 1-1-.447-1-1-1zm6-26c.553 0 1-.447 1-1s-.447-1-1-1-1 .447-1 1 .447 1 1 1zm12 0c.553 0 1-.447 1-1s-.447-1-1-1-1 .447-1 1 .447 1 1 1zm-4 0c.553 0 1-.447 1-1s-.447-1-1-1-1 .447-1 1 .447 1 1 1zm-4 0c.553 0 1-.447 1-1s-.447-1-1-1-1 .447-1 1 .447 1 1 1zm-33 11c0-.553-.447-1-1-1-.341 0-.628.182-.808.442-.042.315-.084.631-.111.951.153.356.506.606.919.606.553.001 1-.446 1-.999zm59 15c-.553 0-1 .447-1 1s.447 1 1 1 1-.447 1-1-.447-1-1-1zm-8 0c-.553 0-1 .447-1 1s.447 1 1 1 1-.447 1-1-.447-1-1-1zm-24 0c-.553 0-1 .447-1 1s.447 1 1 1 1-.447 1-1-.447-1-1-1zm18-26c.553 0 1-.447 1-1s-.447-1-1-1-1 .447-1 1 .447 1 1 1zm2 26c-.553 0-1 .447-1 1s.447 1 1 1 1-.447 1-1-.447-1-1-1zm8 0c-.553 0-1 .447-1 1s.447 1 1 1 1-.447 1-1-.447-1-1-1zm-24 0c-.553 0-1 .447-1 1s.447 1 1 1 1-.447 1-1-.447-1-1-1zm4 0c-.553 0-1 .447-1 1s.447 1 1 1 1-.447 1-1-.447-1-1-1zm4 0c-.553 0-1 .447-1 1s.447 1 1 1 1-.447 1-1-.447-1-1-1zm4 0c-.553 0-1 .447-1 1s.447 1 1 1 1-.447 1-1-.447-1-1-1zm14-12c-.553 0-1 .447-1 1s.447 1 1 1 1-.447 1-1-.447-1-1-1zm-4 0c-.553 0-1 .447-1 1s.447 1 1 1 1-.447 1-1-.447-1-1-1zm-2-2c.553 0 1-.447 1-1s-.447-1-1-1-1 .447-1 1 .447 1 1 1zm2-6c-.553 0-1 .447-1 1s.447 1 1 1 1-.447 1-1-.447-1-1-1zm2-4c-.553 0-1 .447-1 1s.447 1 1 1 1-.447 1-1-.447-1-1-1zm-6 12c-.553 0-1 .447-1 1s.447 1 1 1 1-.447 1-1-.447-1-1-1zm-2-2c.553 0 1-.447 1-1s-.447-1-1-1-1 .447-1 1 .447 1 1 1zm8 0c.553 0 1-.447 1-1s-.447-1-1-1-1 .447-1 1 .447 1 1 1zm-6-6c-.553 0-1 .447-1 1s.447 1 1 1 1-.447 1-1-.447-1-1-1zm2-4c-.553 0-1 .447-1 1s.447 1 1 1 1-.447 1-1-.447-1-1-1zm-2-2c.553 0 1-.447 1-1s-.447-1-1-1-1 .447-1 1 .447 1 1 1zm-2 2c-.553 0-1 .447-1 1s.447 1 1 1 1-.447 1-1-.447-1-1-1zm10-2c.553 0 1-.447 1-1s-.447-1-1-1-1 .447-1 1 .447 1 1 1zm2 10c-.553 0-1 .447-1 1s.447 1 1 1 1-.447 1-1-.447-1-1-1zm-6-10c.553 0 1-.447 1-1s-.447-1-1-1-1 .447-1 1 .447 1 1 1zm8 14c-.553 0-1 .447-1 1s.447 1 1 1 1-.447 1-1-.447-1-1-1zm-4-6c.553 0 1-.447 1-1s-.447-1-1-1-1 .447-1 1 .447 1 1 1zm4-2c-.553 0-1 .447-1 1s.447 1 1 1 1-.447 1-1-.447-1-1-1zm-2-4c-.553 0-1 .447-1 1s.447 1 1 1 1-.447 1-1-.447-1-1-1zm-34 28c-.553 0-1 .447-1 1s.447 1 1 1 1-.447 1-1-.447-1-1-1zm36-8c-.553 0-1 .447-1 1s.447 1 1 1 1-.447 1-1-.447-1-1-1zm-2-2c.553 0 1-.447 1-1s-.447-1-1-1-1 .447-1 1 .447 1 1 1zm-2 4c.553 0 1-.447 1-1s-.447-1-1-1-1 .447-1 1 .447 1 1 1zm-2-4c.553 0 1-.447 1-1s-.447-1-1-1-1 .447-1 1 .447 1 1 1zm-2 4c.553 0 1-.447 1-1s-.447-1-1-1-1 .447-1 1 .447 1 1 1zm-2-28c.553 0 1-.447 1-1s-.447-1-1-1-1 .447-1 1 .447 1 1 1zm4 0c.553 0 1-.447 1-1s-.447-1-1-1-1 .447-1 1 .447 1 1 1zm4 0c.553 0 1-.447 1-1s-.447-1-1-1-1 .447-1 1 .447 1 1 1zm2 4c.553 0 1-.447 1-1s-.447-1-1-1-1 .447-1 1 .447 1 1 1zm-10 20c.553 0 1-.447 1-1s-.447-1-1-1-1 .447-1 1 .447 1 1 1zm-12 0c.553 0 1-.447 1-1s-.447-1-1-1-1 .447-1 1 .447 1 1 1zm2 4c.553 0 1-.447 1-1s-.447-1-1-1-1 .447-1 1 .447 1 1 1zm-4 0c.553 0 1-.447 1-1s-.447-1-1-1-1 .447-1 1 .447 1 1 1zm6-4c.553 0 1-.447 1-1s-.447-1-1-1-1 .447-1 1 .447 1 1 1zm4 0c.553 0 1-.447 1-1s-.447-1-1-1-1 .447-1 1 .447 1 1 1zm2 4c.553 0 1-.447 1-1s-.447-1-1-1-1 .447-1 1 .447 1 1 1zm-2-28c.553 0 1-.447 1-1s-.447-1-1-1-1 .447-1 1 .447 1 1 1zm-2 28c.553 0 1-.447 1-1s-.447-1-1-1-1 .447-1 1 .447 1 1 1zm-26-28c.553 0 1-.447 1-1s-.447-1-1-1-1 .447-1 1 .447 1 1 1zm22 34c-.553 0-1 .447-1 1s.447 1 1 1 1-.447 1-1-.447-1-1-1zm-4 0c-.553 0-1 .447-1 1s.447 1 1 1 1-.447 1-1-.447-1-1-1zm-38-12c-.105 0-.202.029-.297.06.176.64.382 1.265.622 1.875.391-.136.675-.497.675-.935 0-.553-.447-1-1-1zm44-22c.553 0 1-.447 1-1s-.447-1-1-1-1 .447-1 1 .447 1 1 1zm18 34c-.553 0-1 .447-1 1s.447 1 1 1 1-.447 1-1-.447-1-1-1zm-12 0c-.553 0-1 .447-1 1s.447 1 1 1 1-.447 1-1-.447-1-1-1zm8 0c-.553 0-1 .447-1 1s.447 1 1 1 1-.447 1-1-.447-1-1-1zm-28 0c-.553 0-1 .447-1 1s.447 1 1 1 1-.447 1-1-.447-1-1-1zm24 0c-.553 0-1 .447-1 1s.447 1 1 1 1-.447 1-1-.447-1-1-1zm-8 0c-.553 0-1 .447-1 1s.447 1 1 1 1-.447 1-1-.447-1-1-1zm-10-34c.553 0 1-.447 1-1s-.447-1-1-1-1 .447-1 1 .447 1 1 1zm-4 0c.553 0 1-.447 1-1s-.447-1-1-1-1 .447-1 1 .447 1 1 1zm-10 34c-.553 0-1 .447-1 1s.447 1 1 1 1-.447 1-1-.447-1-1-1zm6-34c.553 0 1-.447 1-1s-.447-1-1-1-1 .447-1 1 .447 1 1 1zm12 0c.553 0 1-.447 1-1s-.447-1-1-1-1 .447-1 1 .447 1 1 1zm-22 34c-.553 0-1 .447-1 1s.447 1 1 1 1-.447 1-1-.447-1-1-1zm18-10c.553 0 1-.447 1-1s-.447-1-1-1-1 .447-1 1 .447 1 1 1zm-12-24c.553 0 1-.447 1-1s-.447-1-1-1-1 .447-1 1 .447 1 1 1zm10 34c-.553 0-1 .447-1 1s.447 1 1 1 1-.447 1-1-.447-1-1-1zm-20-24c-.553 0-1 .447-1 1s.447 1 1 1 1-.447 1-1-.447-1-1-1zm0-6c.553 0 1-.447 1-1s-.447-1-1-1-1 .447-1 1 .447 1 1 1zm0 14c-.553 0-1 .447-1 1s.447 1 1 1 1-.447 1-1-.447-1-1-1zm2-12c-.553 0-1 .447-1 1s.447 1 1 1 1-.447 1-1-.447-1-1-1zm4 10c.553 0 1-.447 1-1s-.447-1-1-1-1 .447-1 1 .447 1 1 1zm-4 0c.553 0 1-.447 1-1s-.447-1-1-1-1 .447-1 1 .447 1 1 1zm-2 12c.553 0 1-.447 1-1s-.447-1-1-1-1 .447-1 1 .447 1 1 1zm8-10c-.553 0-1 .447-1 1s.447 1 1 1 1-.447 1-1-.447-1-1-1zm-4 0c-.553 0-1 .447-1 1s.447 1 1 1 1-.447 1-1-.447-1-1-1zm0-8c-.553 0-1 .447-1 1s.447 1 1 1 1-.447 1-1-.447-1-1-1zm-13 13c0-.553-.447-1-1-1s-1 .447-1 1 .447 1 1 1 1-.447 1-1zm7 1c.553 0 1-.447 1-1s-.447-1-1-1-1 .447-1 1 .447 1 1 1zm-6 2c-.553 0-1 .447-1 1s.447 1 1 1 1-.447 1-1-.447-1-1-1zm-4 0c-.232 0-.436.092-.605.224.32.574.671 1.127 1.047 1.662.328-.164.558-.494.558-.886 0-.553-.447-1-1-1zm6 4c-.553 0-1 .447-1 1s.447 1 1 1 1-.447 1-1-.447-1-1-1zm4 0c-.553 0-1 .447-1 1s.447 1 1 1 1-.447 1-1-.447-1-1-1zm-4-6c.553 0 1-.447 1-1s-.447-1-1-1-1 .447-1 1 .447 1 1 1zm3 3c0-.553-.447-1-1-1s-1 .447-1 1 .447 1 1 1 1-.447 1-1zm5-27c.553 0 1-.447 1-1 0-.413-.25-.766-.606-.919-.32.027-.636.068-.951.111-.261.181-.443.467-.443.808 0 .553.447 1 1 1zm8 24c.553 0 1-.447 1-1s-.447-1-1-1-1 .447-1 1 .447 1 1 1zm-2 4c.553 0 1-.447 1-1s-.447-1-1-1-1 .447-1 1 .447 1 1 1zm-2-4c.553 0 1-.447 1-1s-.447-1-1-1-1 .447-1 1 .447 1 1 1zm-2 4c.553 0 1-.447 1-1s-.447-1-1-1-1 .447-1 1 .447 1 1 1zm8 0c.553 0 1-.447 1-1s-.447-1-1-1-1 .447-1 1 .447 1 1 1zm4 0c.553 0 1-.447 1-1s-.447-1-1-1-1 .447-1 1 .447 1 1 1zm2-4c.553 0 1-.447 1-1s-.447-1-1-1-1 .447-1 1 .447 1 1 1zm-16 0c.553 0 1-.447 1-1s-.447-1-1-1-1 .447-1 1 .447 1 1 1zm12 0c.553 0 1-.447 1-1s-.447-1-1-1-1 .447-1 1 .447 1 1 1zm6 4c.553 0 1-.447 1-1s-.447-1-1-1-1 .447-1 1 .447 1 1 1zm-14-22c-.553 0-1 .447-1 1s.447 1 1 1 1-.447 1-1-.447-1-1-1zm-8-6c.553 0 1-.447 1-1 0-.105-.03-.202-.06-.297-.639.176-1.264.382-1.875.622.136.39.497.675.935.675zm-6 4c.553 0 1-.447 1-1 0-.45-.302-.816-.71-.941-.437.343-.856.706-1.261 1.085.072.481.469.856.971.856zm12 0c.553 0 1-.447 1-1s-.447-1-1-1-1 .447-1 1 .447 1 1 1zm-8 30c-.112 0-.215.029-.315.063.407.199.817.391 1.24.561-.15-.366-.506-.624-.925-.624zm-5.792-3.958c.243.257.493.507.75.75-.083-.38-.37-.667-.75-.75zm9.792 3.958c-.553 0-1 .447-1 1 0 .117.03.226.066.33.541.146 1.089.27 1.648.367.176-.18.286-.425.286-.697 0-.553-.447-1-1-1zm2-4c-.553 0-1 .447-1 1s.447 1 1 1 1-.447 1-1-.447-1-1-1z"/><path fill="#E87970" d="M75 38.954h-45.17c-8.191 0-14.83 6.699-14.83 14.964 0 .686.062 1.356.15 2.018.979-7.308 7.169-12.945 14.68-12.945h45.17v-4.037z"/><path fill="#E5A7A2" d="M91.438 47.999c0-1.346-1.092-2.438-2.438-2.438-1.348 0-2.439 1.092-2.439 2.438 0 1.348 1.092 2.439 2.439 2.439 1.346 0 2.438-1.091 2.438-2.439zm-2.438-7.999c-.763 0-1.499.108-2.197.308v4.324c.631-.412 1.386-.653 2.197-.653 2.221 0 4.021 1.8 4.021 4.021s-1.8 4.021-4.021 4.021c-2.222 0-4.022-1.801-4.022-4.021l.006-.213-.006.005v-6.706c-2.379 1.387-3.979 3.963-3.979 6.914 0 4.418 3.583 8 8.002 8 4.418 0 8-3.582 8-8s-3.583-8-8.001-8zM91.438 47.999c0-1.346-1.092-2.438-2.438-2.438-1.348 0-2.439 1.092-2.439 2.438 0 1.348 1.092 2.439 2.439 2.439 1.346 0 2.438-1.091 2.438-2.439zm-2.438-7.999c-.763 0-1.499.108-2.197.308v4.324c.631-.412 1.386-.653 2.197-.653 2.221 0 4.021 1.8 4.021 4.021s-1.8 4.021-4.021 4.021c-2.222 0-4.022-1.801-4.022-4.021l.006-.213-.006.005v-6.706c-2.379 1.387-3.979 3.963-3.979 6.914 0 4.418 3.583 8 8.002 8 4.418 0 8-3.582 8-8s-3.583-8-8.001-8z"/><path fill="#D25147" d="M30 43.999c-5.523 0-10 4.477-10 10 0 5.522 4.477 10 10 10s10-4.478 10-10c0-5.523-4.477-10-10-10zm25 0c-5.523 0-10 4.477-10 10 0 5.522 4.477 10 10 10s10-4.478 10-10c0-5.523-4.477-10-10-10zM30 43.999c-5.523 0-10 4.477-10 10 0 5.522 4.477 10 10 10s10-4.478 10-10c0-5.523-4.477-10-10-10zm25 0c-5.523 0-10 4.477-10 10 0 5.522 4.477 10 10 10s10-4.478 10-10c0-5.523-4.477-10-10-10z"/><path fill="#D7776F" d="M84 59.999h10c.553 0 1 .447 1 1v1c0 .553-.447 1-1 1h-10c-.553 0-1-.447-1-1v-1c0-.553.447-1 1-1z"/><g fill="#D37169"><circle cx="37" cy="39.999" r="1"/><path d="M26.178 43.462c.448-.115.903-.208 1.366-.28-.159-.106-.338-.183-.544-.183-.35 0-.643.19-.822.463zM25 40.999c.553 0 1-.447 1-1 0-.18-.06-.34-.143-.485-.625.175-1.239.377-1.828.63.073.481.47.855.971.855z"/><circle cx="33" cy="39.999" r="1"/><circle cx="29" cy="39.999" r="1"/><path d="M17 48.999c.553 0 1-.447 1-1s-.447-1-1-1c-.123 0-.237.029-.346.07-.213.417-.408.845-.583 1.284.143.376.502.646.929.646zM24 43.999c0-.553-.447-1-1-1s-1 .447-1 1c0 .407.245.754.594.91.44-.25.894-.476 1.36-.68l.046-.23zM19 44.999c.553 0 1-.447 1-1 0-.355-.195-.652-.474-.83-.463.452-.896.933-1.297 1.442.183.231.454.388.771.388zM16 51.999c0-.454-.308-.821-.722-.944-.121.631-.192 1.278-.232 1.935.53-.026.954-.455.954-.991z"/><circle cx="73" cy="39.999" r="1"/><circle cx="65" cy="39.999" r="1"/><circle cx="61" cy="39.999" r="1"/><circle cx="69" cy="39.999" r="1"/><circle cx="57" cy="39.999" r="1"/><circle cx="45" cy="39.999" r="1"/><circle cx="53" cy="39.999" r="1"/><circle cx="41" cy="39.999" r="1"/><circle cx="49" cy="39.999" r="1"/></g><g fill="#B4453C"><path d="M26 71.999c0-.553-.447-1-1-1s-1 .447-1 1c0 .117.03.226.066.33l.004.001c.538.145 1.083.268 1.639.365l.005.001c.176-.18.286-.425.286-.697z"/><circle cx="35" cy="67.999" r="1"/><circle cx="31" cy="67.999" r="1"/><circle cx="39" cy="67.999" r="1"/><path d="M15 60.999l.151-.03c-.382-.409-.745-.835-1.09-1.276-.031.098-.061.198-.061.306 0 .553.447 1 1 1zM10.205 51.426c-.045.321-.092.644-.123.969.112.26.332.461.603.552-.146-.542-.268-1.094-.366-1.653l-.114.132zM12 59.999c0-.553-.447-1-1-1-.105 0-.202.029-.297.06.176.638.381 1.261.62 1.868l.002.007c.391-.136.675-.497.675-.935z"/><circle cx="47" cy="67.999" r="1"/><circle cx="67" cy="67.999" r="1"/><circle cx="63" cy="67.999" r="1"/><circle cx="59" cy="67.999" r="1"/><circle cx="71" cy="67.999" r="1"/><circle cx="17" cy="63.999" r="1"/><circle cx="43" cy="67.999" r="1"/><circle cx="51" cy="67.999" r="1"/><circle cx="55" cy="67.999" r="1"/><path d="M12.395 63.223c.32.574.671 1.127 1.047 1.662.328-.164.558-.494.558-.886 0-.553-.447-1-1-1-.232 0-.436.092-.605.224z"/><circle cx="53" cy="71.999" r="1"/><circle cx="57" cy="71.999" r="1"/><circle cx="49" cy="71.999" r="1"/><circle cx="61" cy="71.999" r="1"/><circle cx="65" cy="71.999" r="1"/><circle cx="73" cy="71.999" r="1"/><circle cx="45" cy="71.999" r="1"/><circle cx="69" cy="71.999" r="1"/><circle cx="37" cy="71.999" r="1"/><path d="M15.958 67.791c-.083-.38-.37-.667-.75-.75.243.257.493.507.75.75z"/><circle cx="23" cy="67.999" r="1"/><circle cx="27" cy="67.999" r="1"/><path d="M21 70.999c-.112 0-.215.029-.315.063.406.199.816.391 1.238.56l.001.001c-.149-.366-.505-.624-.924-.624z"/><circle cx="19" cy="67.999" r="1"/><circle cx="29" cy="71.999" r="1"/><circle cx="41" cy="71.999" r="1"/><circle cx="33" cy="71.999" r="1"/></g><g fill="#BA483E"><path d="M59 44.999l.238-.048c-.348-.163-.704-.309-1.071-.432.177.282.476.48.833.48zM64 55.999c0 .397.235.733.57.895.184-.606.313-1.235.379-1.884-.527.027-.949.455-.949.989z"/><circle cx="63" cy="51.999" r="1"/><path d="M55 44.999c.535 0 .963-.422.99-.95-.326-.032-.656-.05-.99-.05s-.664.018-.99.05c.027.528.455.95.99.95z"/><circle cx="61" cy="55.999" r="1"/><circle cx="35" cy="59.999" r="1"/><circle cx="59" cy="51.999" r="1"/><circle cx="35" cy="51.999" r="1"/><path d="M51 44.999c.357 0 .657-.198.834-.48-.368.123-.725.269-1.072.432l.238.048z"/><circle cx="33" cy="55.999" r="1"/><path d="M38 51.999c0 .553.447 1 1 1 .381 0 .702-.221.87-.534-.065-.425-.153-.841-.27-1.245-.169-.13-.371-.221-.601-.221-.552 0-.999.447-.999 1z"/><circle cx="33" cy="47.999" r="1"/><circle cx="51" cy="59.999" r="1"/><circle cx="49" cy="47.999" r="1"/><circle cx="59" cy="59.999" r="1"/><circle cx="47" cy="51.999" r="1"/><circle cx="49" cy="55.999" r="1"/><circle cx="53" cy="55.999" r="1"/><circle cx="51" cy="51.999" r="1"/><circle cx="57" cy="47.999" r="1"/><circle cx="57" cy="55.999" r="1"/><circle cx="55" cy="51.999" r="1"/><circle cx="55" cy="59.999" r="1"/><circle cx="53" cy="47.999" r="1"/><circle cx="61" cy="47.999" r="1"/><path d="M48 59.999c0-.553-.447-1-1-1-.204 0-.383.076-.542.181.343.563.738 1.089 1.181 1.572.216-.184.361-.447.361-.753zM38.005 59.975c.213-.285.412-.581.594-.889-.345.151-.584.49-.594.889zM46 55.999c0-.534-.421-.962-.949-.99.065.649.195 1.278.378 1.885.336-.162.571-.498.571-.895zM33 62.999c-.478 0-.858.342-.958.79.572-.119 1.123-.292 1.654-.504-.179-.176-.424-.286-.696-.286z"/><circle cx="31" cy="59.999" r="1"/><circle cx="29" cy="55.999" r="1"/><circle cx="37" cy="55.999" r="1"/><path d="M53 62.999c-.397 0-.733.235-.895.57.606.184 1.235.313 1.885.379-.028-.527-.456-.949-.99-.949zM29 62.999c-.483 0-.868.35-.961.805.635.127 1.29.195 1.961.195 0-.553-.447-1-1-1zM31 44.999c.483 0 .868-.349.961-.805-.634-.126-1.29-.195-1.961-.195 0 .553.447 1 1 1zM57 62.999c-.534 0-.962.422-.989.949.648-.065 1.277-.195 1.884-.379-.162-.335-.498-.57-.895-.57zM24 59.999c0-.553-.447-1-1-1-.548 0-.989.44-.997.985.258.344.532.674.831.981l.166.033c.553.001 1-.446 1-.999zM63 58.999c-.553 0-1 .447-1 1 0 .306.145.569.36.753.443-.483.839-1.009 1.181-1.572-.158-.105-.337-.181-.541-.181z"/><circle cx="29" cy="47.999" r="1"/><circle cx="23" cy="51.999" r="1"/><circle cx="25" cy="55.999" r="1"/><circle cx="31" cy="51.999" r="1"/><path d="M36 47.999c0 .553.447 1 1 1 .548 0 .989-.44.997-.986-.257-.344-.532-.673-.831-.98l-.167-.034c-.552 0-.999.447-.999 1z"/><circle cx="27" cy="59.999" r="1"/><path d="M27 44.999c.478 0 .859-.342.958-.79-.572.119-1.123.292-1.655.504.18.176.425.286.697.286zM21.995 48.023c-.213.285-.412.582-.594.889.345-.151.584-.49.594-.889z"/><circle cx="27" cy="51.999" r="1"/><path d="M22 55.999c0-.553-.447-1-1-1-.381 0-.702.221-.87.534.065.425.153.841.27 1.245.169.13.371.221.601.221.552 0 .999-.447.999-1z"/><circle cx="25" cy="47.999" r="1"/></g><path fill="#BF392B" d="M75 33.999c.553 0 1 .447 1 1v38c0 .553-.447 1-1 1s-1-.447-1-1v-38c0-.553.447-1 1-1z"/><path fill="#B6463D" d="M97.031 66.999h-21.031v6h18.393c1.002-1.932 1.89-3.932 2.638-6z"/><path fill="#E5A7A2" d="M91.438 47.999c0-1.346-1.092-2.438-2.438-2.438-1.348 0-2.439 1.092-2.439 2.438 0 1.348 1.092 2.439 2.439 2.439 1.346 0 2.438-1.091 2.438-2.439zm-2.438-7.999c-.763 0-1.499.108-2.197.308v4.324c.631-.412 1.386-.653 2.197-.653 2.221 0 4.021 1.8 4.021 4.021s-1.8 4.021-4.021 4.021c-2.222 0-4.022-1.801-4.022-4.021l.006-.213-.006.005v-6.706c-2.379 1.387-3.979 3.963-3.979 6.914 0 4.418 3.583 8 8.002 8 4.418 0 8-3.582 8-8s-3.583-8-8.001-8z"/><path fill="#D59691" d="M90.002 53.999c-4.419 0-8.002-3.582-8.002-8 0-.886.159-1.731.426-2.528-.891 1.289-1.426 2.842-1.426 4.528 0 4.418 3.583 8 8.002 8 3.527 0 6.516-2.286 7.579-5.455-1.443 2.086-3.851 3.455-6.579 3.455z"/></svg>