<svg xmlns="http://www.w3.org/2000/svg" width="100" height="100" viewBox="0 0 100 100"><path fill="#EFC75E" d="M50 0c27.613 0 50 22.386 50 50s-22.387 50-50 50c-27.614 0-50-22.386-50-50s22.386-50 50-50z"/><g fill="#EDEDED"><path d="M77 55.006c-11.598 0-21 9.4-21 20.997 0 9.16 5.877 16.93 14.059 19.798 1.925-.844 3.788-1.802 5.577-2.873-8.743-.696-15.624-8-15.624-16.925 0-9.386 7.605-16.994 16.988-16.994 8.707 0 15.875 6.556 16.863 15.001 1.005-1.832 1.889-3.738 2.662-5.7-3.072-7.787-10.646-13.304-19.525-13.304zM3 55.006c-.928 0-1.834.081-2.73.197.139 1.337.341 2.653.583 3.956.705-.089 1.418-.15 2.148-.15 9.383 0 16.99 7.608 16.99 16.994 0 4.091-1.446 7.842-3.854 10.774.982.905 2.006 1.767 3.059 2.592 3.001-3.632 4.804-8.288 4.804-13.366 0-11.597-9.402-20.997-21-20.997z"/></g><path fill="#E2574C" d="M68.711 43.612l-4.275-14.049s-.861-1.823-3.314-.313l2.982 9.75h-37.58l-3.115-8.516-2.817 1.031 2.717 7.426-18.468 32.538c.911 1.913 1.948 3.752 3.086 5.521h27.073v-3h-28.141l17.801-31.363 10.932 29.878 2.816-1.031-10.786-29.484h37.399l.486 1.593-23.643 27.428 2.271 1.959 22.41-25.997c4.146 13.553 8.956 29.167 8.956 29.167.245.502.751.851 1.342.851.796 0 1.438-.627 1.49-1.416l-9.429-31.337-.193-.636z"/><path fill="#324D5B" d="M77 71c-2.762 0-5 2.238-5 5s2.238 5 5 5 5-2.238 5-5-2.238-5-5-5zm0 8c-1.657 0-3-1.343-3-3 0-1.656 1.343-3 3-3s3 1.344 3 3c0 1.657-1.343 3-3 3zM77 71c-2.762 0-5 2.238-5 5s2.238 5 5 5 5-2.238 5-5-2.238-5-5-5zm0 8c-1.657 0-3-1.343-3-3 0-1.656 1.343-3 3-3s3 1.344 3 3c0 1.657-1.343 3-3 3zM40 70c-3.313 0-6 2.688-6 6 0 3.314 2.687 6 6 6s6-2.686 6-6c0-3.312-2.687-6-6-6zm0 9c-1.657 0-3-1.343-3-3 0-1.656 1.343-3 3-3s3 1.344 3 3c0 1.657-1.343 3-3 3zM40 70c-3.313 0-6 2.688-6 6 0 3.314 2.687 6 6 6s6-2.686 6-6c0-3.312-2.687-6-6-6zm0 9c-1.657 0-3-1.343-3-3 0-1.656 1.343-3 3-3s3 1.344 3 3c0 1.657-1.343 3-3 3zM71 23.5c0-3.59-2.91-6.5-6.5-6.5l-.874.013-.126-.013h-10c-.828 0-1.5.672-1.5 1.5s.672 1.5 1.5 1.5h1.249l-.039.098c.255-.059.519-.098.79-.098h9c1.934 0 3.5 1.567 3.5 3.5 0 1.934-1.566 3.5-3.5 3.5h-1.936l.008.049c-.898.195-1.572.994-1.572 1.951 0 1.105.896 2 2 2 .66 0 4.025-1.312 4.971-2.011 1.818-1.151 3.029-3.177 3.029-5.489z"/><path fill="#324C5A" d="M23.086 34.262l-1.218.386c-.758.239-1.503.36-2.219.36-4.95 0-8.098-3.92-8.439-4.482-.258-.421-.268-1.35-.018-1.779.265-.461.774-.74 1.331-.74h19.99c.766 0 1.411.531 1.501 1.244.1.79-.476 1.788-1.118 1.947-.345.087-2.336-.143-5.956 1.28l-1.136.471-2.718 1.313z"/><path fill="#2D4552" d="M28.94 31.478l-1.136.471-2.719 1.313-1.218.386c-.758.239-1.503.36-2.219.36-4.95 0-8.098-3.92-8.439-4.482-.216-.353-.247-1.046-.108-1.52h-.579c-.557 0-1.066.279-1.331.74-.25.43-.24 1.358.018 1.779.342.562 3.489 4.482 8.439 4.482.716 0 1.461-.121 2.219-.36l1.218-.386 2.719-1.312 1.136-.471c3.62-1.423 5.611-1.193 5.956-1.28.375-.093.724-.476.933-.933-.984.077-2.614.318-4.889 1.213z"/><g fill="#324D5B"><path d="M77 54.006c-12.15 0-22 9.85-22 21.997 0 9.21 5.663 17.093 13.694 20.37.919-.37 1.826-.761 2.717-1.184-8.315-2.421-14.397-10.087-14.397-19.186 0-11.043 8.947-19.994 19.986-19.994 8.837 0 16.321 5.742 18.961 13.695.389-.905.752-1.825 1.088-2.758-3.453-7.629-11.128-12.94-20.049-12.94zM3 54.006c-.953 0-1.891.067-2.812.186.056.673.126 1.342.208 2.007.854-.112 1.719-.189 2.604-.189 11.039 0 19.988 8.951 19.988 19.994 0 4.842-1.722 9.281-4.585 12.741.519.423 1.044.839 1.581 1.242 3.133-3.801 5.016-8.673 5.016-13.984 0-12.149-9.85-21.997-22-21.997z"/></g></svg>