<svg xmlns="http://www.w3.org/2000/svg" width="100" height="100" viewBox="0 0 100 100"><path fill="#3DB39E" d="M50 0c27.614 0 50 22.386 50 50s-22.386 50-50 50-50-22.386-50-50 22.386-50 50-50z"/><path fill="#37A18E" d="M63 58c6.627 0 12 5.373 12 12s-5.373 12-12 12-12-5.373-12-12 5.373-12 12-12zM73 30c6.627 0 12 5.373 12 12s-5.373 12-12 12-12-5.373-12-12 5.373-12 12-12z"/><path fill="#79C9BB" d="M52 20h-30c-1.104 0-2 .896-2 2v50c0 1.104.896 2 2 2h30c1.104 0 2-.896 2-2v-50c0-1.104-.896-2-2-2zm0 51c0 .553-.447 1-1 1h-28c-.553 0-1-.447-1-1v-48c0-.553.447-1 1-1h28c.553 0 1 .447 1 1v48z"/><path fill="#EEF3F3" d="M27 25h30c1.104 0 2 .896 2 2v50c0 1.104-.896 2-2 2h-30c-1.104 0-2-.896-2-2v-50c0-1.104.896-2 2-2z"/><path fill="#37A18E" d="M57 61c6.627 0 12 5.373 12 12s-5.373 12-12 12-12-5.373-12-12 5.373-12 12-12z"/><path fill="#D7DBDB" d="M57 61c-6.627 0-12 5.373-12 12 0 2.188.595 4.233 1.619 6h10.381c1.104 0 2-.896 2-2v-15.82c-.651-.11-1.317-.18-2-.18z"/><path fill="#324D5B" d="M45.162 50.16c-.332 0-.678.061-1.027.168.475-.824.639-1.426.639-2.27 0-1.68-1.227-3.061-2.773-3.061-1.529 0-2.771 1.365-2.771 3.061 0 .863.324 1.486.815 2.328-.411-.143-.817-.227-1.206-.227-1.557 0-2.838 1.277-2.838 2.893 0 1.597 1.267 2.893 2.838 2.893.936 0 1.98-.488 2.938-1.115-.721 2.11-1.508 3.167-2.938 3.172h6.324c-1.431-.005-2.217-1.062-2.938-3.172.957.627 2.001 1.115 2.938 1.115 1.571 0 2.838-1.296 2.838-2.893-.001-1.614-1.282-2.892-2.839-2.892zm-12.109-20.358c-.163-.461-.518-.797-1.027-.797-.488 0-.863.355-1.025.797l-1.93 5.22c-.019.048-.066.162-.066.316 0 .384.326.672.709.672.395 0 .596-.211.691-.509l.288-.893h2.667l.288.901c.097.289.298.5.7.5.355 0 .662-.26.662-.634 0-.067-.02-.201-.076-.354l-1.881-5.219zm-1.948 3.483l.911-2.783h.019l.893 2.783h-1.823zm23.829 39.736l-1.881-5.22c-.163-.461-.518-.796-1.027-.796-.488 0-.863.354-1.025.796l-1.93 5.22c-.019.047-.066.162-.066.316 0 .384.326.672.709.672.395 0 .596-.211.691-.509l.288-.893h2.667l.288.901c.097.289.298.5.7.5.355 0 .662-.26.662-.634 0-.065-.02-.199-.076-.353zm-3.829-1.736l.911-2.783h.019l.893 2.783h-1.823z"/><path fill="#EFC75E" d="M74 29c6.627 0 12 5.373 12 12s-5.373 12-12 12-12-5.373-12-12 5.373-12 12-12z"/><path fill="#C6A243" d="M74 35c3.313 0 6 2.687 6 6 0 3.314-2.687 6-6 6s-6-2.686-6-6c0-3.313 2.687-6 6-6z"/><path fill="#EFC75E" d="M58 60c6.627 0 12 5.373 12 12s-5.373 12-12 12-12-5.373-12-12 5.373-12 12-12z"/><path fill="#D4B052" d="M58 60c-.632 0-1.248.063-1.854.157-3.108 2.169-5.146 5.766-5.146 9.843 0 6.627 5.373 12 12 12 .632 0 1.248-.063 1.854-.157 3.108-2.169 5.146-5.766 5.146-9.843 0-6.627-5.373-12-12-12z"/><g fill="#EEF3F3"><path d="M51.637 78.364c-.781-.781-2.048-.781-2.829 0l-.581.581c.779 1.094 1.734 2.05 2.828 2.829l.582-.582c.78-.781.78-2.046 0-2.828zM49 72c0-1.104-.896-2-2-2h-.82c-.11.651-.18 1.317-.18 2s.07 1.349.18 2h.82c1.104 0 2-.896 2-2zM60 83.82v-.82c0-1.104-.896-2-2-2s-2 .896-2 2v.82c.651.11 1.317.18 2 .18s1.349-.07 2-.18zM48.808 65.637c.781.78 2.048.78 2.829 0 .78-.781.78-2.048 0-2.828l-.582-.582c-1.094.778-2.05 1.734-2.829 2.828l.582.582z"/></g><path fill="#C6A243" d="M58 66c3.313 0 6 2.687 6 6s-2.687 6-6 6-6-2.687-6-6 2.687-6 6-6z"/><path fill="#EFC75E" d="M64 57c6.627 0 12 5.373 12 12s-5.373 12-12 12-12-5.373-12-12 5.373-12 12-12z"/><path fill="#C6A243" d="M64 63c3.313 0 6 2.687 6 6 0 3.314-2.687 6-6 6s-6-2.686-6-6c0-3.313 2.687-6 6-6z"/><path fill="#EEF3F3" d="M74 36.748c2.349 0 4.252 1.904 4.252 4.252 0 2.349-1.903 4.252-4.252 4.252s-4.252-1.903-4.252-4.252c0-2.348 1.903-4.252 4.252-4.252zM64 64.748c2.348 0 4.252 1.904 4.252 4.252 0 2.349-1.904 4.252-4.252 4.252s-4.252-1.903-4.252-4.252c0-2.348 1.904-4.252 4.252-4.252z"/><g fill="#EEF3F3"><path d="M67.637 47.364c-.781-.781-2.048-.781-2.829 0l-.581.581c.778 1.094 1.734 2.05 2.828 2.829l.582-.582c.78-.78.78-2.046 0-2.828zM65 41c0-1.104-.896-2-2-2h-.82c-.11.652-.18 1.317-.18 2s.07 1.348.18 2h.82c1.104 0 2-.896 2-2zM83.192 47.364c-.781-.781-2.048-.781-2.829 0-.78.781-.78 2.048 0 2.828l.582.582c1.094-.779 2.05-1.735 2.828-2.829l-.581-.581zM83 41c0 1.104.896 2 2 2h.82c.11-.652.18-1.317.18-2s-.07-1.348-.18-2h-.82c-1.104 0-2 .896-2 2zM74 32c1.104 0 2-.896 2-2v-.82c-.651-.11-1.317-.18-2-.18s-1.349.07-2 .18v.82c0 1.104.896 2 2 2zM76 52.82v-.82c0-1.104-.896-2-2-2s-2 .896-2 2v.82c.651.11 1.317.18 2 .18s1.349-.07 2-.18zM64.808 34.637c.781.78 2.048.78 2.829 0 .78-.781.78-2.048 0-2.829l-.582-.582c-1.094.779-2.05 1.735-2.829 2.829l.582.582zM80.363 34.637c.781.78 2.048.78 2.829 0l.582-.582c-.779-1.094-1.735-2.05-2.829-2.829l-.582.582c-.78.781-.78 2.047 0 2.829z"/></g><g fill="#EEF3F3"><path d="M55 69c0-1.104-.896-2-2-2h-.82c-.11.651-.18 1.317-.18 2s.07 1.349.18 2h.82c1.104 0 2-.896 2-2zM57.637 75.364c-.781-.781-2.048-.781-2.829 0l-.581.581c.778 1.094 1.734 2.05 2.828 2.829l.582-.582c.78-.781.78-2.046 0-2.828zM73.192 75.364c-.781-.781-2.048-.781-2.829 0-.78.781-.78 2.047 0 2.828l.582.582c1.094-.779 2.05-1.735 2.828-2.829l-.581-.581zM73 69c0 1.104.896 2 2 2h.82c.11-.651.18-1.317.18-2s-.07-1.349-.18-2h-.82c-1.104 0-2 .896-2 2zM54.808 62.637c.781.78 2.048.78 2.829 0 .78-.781.78-2.048 0-2.828l-.582-.582c-1.094.778-2.05 1.734-2.829 2.828l.582.582zM66 80.82v-.82c0-1.104-.896-2-2-2s-2 .896-2 2v.82c.651.11 1.317.18 2 .18s1.349-.07 2-.18zM64 60c1.104 0 2-.896 2-2v-.82c-.651-.11-1.317-.18-2-.18s-1.349.07-2 .18v.82c0 1.104.896 2 2 2zM70.363 62.637c.781.78 2.048.78 2.829 0l.582-.582c-.779-1.094-1.735-2.05-2.829-2.828l-.582.582c-.78.78-.78 2.046 0 2.828z"/></g></svg>