<svg xmlns="http://www.w3.org/2000/svg" width="100" height="100" viewBox="0 0 100 100"><circle fill="#4ABEE5" cx="50" cy="50" r="50"/><path fill="#2EA9D3" d="M2.63 65.998c6.67 19.753 25.331 33.983 47.331 34h.078c21.999-.017 40.661-14.247 47.33-34h-94.739z"/><g fill="#fff"><path d="M76.605 45.236l-8.605-5.363v-15.375c0-.828-.672-1.5-1.5-1.5s-1.5.672-1.5 1.5v13.505l-.016-.01v4.877l.016.009v6.619c0 .828.672 1.5 1.5 1.5s1.5-.672 1.5-1.5v-4.908c1.495.869 2.868 1.688 4 2.373v10.535c0 .828.672 1.5 1.5 1.5s1.5-.672 1.5-1.5v-8.692l.098.062c1.111.376 2.35-.131 2.766-1.135.415-1.004-.147-2.121-1.259-2.497zM33.5 22.998c-.828 0-1.5.672-1.5 1.5v15.357l-8.635 5.381c-1.111.376-1.674 1.493-1.258 2.496.417 1.004 1.654 1.511 2.766 1.135l.127-.08v8.711c0 .828.672 1.5 1.5 1.5s1.5-.672 1.5-1.5v-10.57c1.134-.691 2.506-1.515 4-2.385v4.955c0 .828.672 1.5 1.5 1.5s1.5-.672 1.5-1.5v-25c0-.828-.672-1.5-1.5-1.5z"/></g><path fill="#EFEFEF" d="M68.753 53.879c.493.838.199 1.909-.657 2.393l-30.457 22.48c-.848.487-1.93.197-2.419-.648-.488-.845-.197-1.926.65-2.412l30.438-22.455c.857-.483 1.952-.196 2.445.642z"/><path fill="#fff" d="M31.247 53.879c-.493.838-.199 1.909.656 2.393l30.429 22.48c.848.487 1.93.197 2.417-.648.488-.845.197-1.926-.649-2.412l-30.412-22.456c-.855-.482-1.948-.195-2.441.643z"/><path fill="#EFC75E" d="M35 46.998h30l10.998 10.032.006 1.964c0 .533-.51 1.004-1.016 1.004h-49.963c-.483 0-1.017-.488-1.017-.988l-.008-2.012 11-10zM35 25.998h30v14h-30v-14z"/><path fill="#E3BD59" d="M63 25.998v14h2v-14h-2zm-28 14h2v-14h-2v14z"/><path fill="#fff" d="M53.971 31.982c-.069-.205-.247-.355-.461-.389l-2.08-.318-.904-1.936c-.095-.204-.299-.334-.522-.334s-.427.13-.522.334l-.904 1.936-2.08.318c-.213.033-.391.184-.46.389-.069.207-.017.434.134.589l1.525 1.569-.354 2.178c-.037.219.056.438.236.566.1.07.216.105.332.105.096 0 .192-.023.279-.071l1.813-1.007 1.813 1.007c.088.048.184.071.279.071.117 0 .233-.035.333-.105.181-.128.272-.348.237-.566l-.354-2.178 1.524-1.569c.152-.155.204-.382.136-.589z"/><path fill="#E1BB58" d="M76.004 58.994l-.006-1.964-.035-.032h-51.962l.008 2.012c0 .5.533.988 1.017.988h49.963c.505 0 1.015-.471 1.015-1.004z"/><path fill="#EBEBEB" d="M42.846 59.998h-5.899l4.061 3h5.9z"/><path fill="#DCDCDC" d="M58.982 62.998l4.065-3h-5.904l-4.067 3z"/></svg>