<svg xmlns="http://www.w3.org/2000/svg" width="100" height="100" viewBox="0 0 100 100"><path fill="#E2574C" d="M50 0c27.614 0 50 22.386 50 50s-22.386 50-50 50-50-22.386-50-50 22.386-50 50-50z"/><path fill="#EFC75E" d="M51 33c-4.135-2.215-6.344-5-8-5h-14c-1.656 0-3 1.344-3 3v21c0 1.657 1.344 3 3 3h70c.264 0 .515-.045.759-.108.156-1.611.241-3.242.241-4.892 0-5.969-1.05-11.692-2.969-17h-46.031z"/><path fill="#fff" d="M22 39v17c0 .553.447 1 1 1h76.502c.32-2.288.498-4.623.498-7 0-4.138-.512-8.155-1.46-12h-75.54c-.553 0-1 .447-1 1zM23 38h75c.553 0 1 .447 1 1v17c0 .553-.447 1-1 1h-75c-.553 0-1-.447-1-1v-17c0-.553.447-1 1-1z"/><path fill="#EDEDED" d="M20 42v18c0 .553.447 1 1 1h77.771c.795-3.541 1.229-7.219 1.229-11 0-3.074-.292-6.079-.823-9h-78.177c-.553 0-1 .447-1 1z"/><path fill="#EFC75E" d="M16 47v39.647c8.922 8.283 20.866 13.353 34 13.353 27.614 0 50-22.386 50-50 0-2.032-.136-4.031-.371-6h-80.629c-1.656 0-3 1.344-3 3z"/><path fill="#EDEDED" d="M27 54h36c.553 0 1 .447 1 1v19c0 .553-.447 1-1 1h-36c-.553 0-1-.447-1-1v-19c0-.553.447-1 1-1z"/><path fill="#D4D4D4" d="M30 59v1h30v-1h-30zm0 6h30v-1h-30v1zm0 5h30v-1h-30v1z"/></svg>