<svg xmlns="http://www.w3.org/2000/svg" width="100" height="100" viewBox="0 0 100 100"><path fill="#EFC75E" d="M50 0c27.614 0 50 22.385 50 50 0 27.613-22.386 50-50 50s-50-22.387-50-50c0-27.615 22.386-50 50-50z"/><path fill="#D7B354" d="M4.624 70.998h19.376v-43l-23.951 23.951c.261 6.785 1.872 13.219 4.575 19.049z"/><path fill="#923604" d="M7.927 77c8.894 13.83 24.408 23 42.073 23s33.179-9.17 42.073-23h-84.146z"/><path fill="#7B2B00" d="M92.073 77h-84.146c.658 1.023 1.343 2.029 2.073 3h80.001c.728-.971 1.414-1.977 2.072-3z"/><path fill="#9B481A" d="M60.821 92.377c1.49-.873 2.172-1.271 1.686-3.248-.906-3.689.327-8.803 1.386-12.133h-2.039c-1.078 3.605-2.299 9.225-.788 11.232.28.369.204.898-.172 1.176s-.907.201-1.188-.17c-1.982-2.633-.669-8.654.375-12.238h-.875c-.746 2.465-1.821 6.752-2.296 12.207-.571 6.543-1.265 9.545-4.382 10.789 1.312-.066 2.606-.197 3.89-.363.253-4.811 2.641-6.223 4.403-7.252zm6.331-15.381h-1.471c-1.028 3.125-2.379 8.268-1.526 11.734.784 3.188-.944 4.201-2.472 5.094-1.615.943-3.28 1.92-3.558 5.561.802-.133 1.597-.283 2.385-.451.198-.955.577-1.826 1.186-2.555 1.677-2 3.986-2.438 6.337-1.199.471.248.935.568 1.385.941.656-.279 1.302-.576 1.943-.883-.652-.844-1.376-1.691-2.171-2.541-5.051-5.398-3.736-11.717-2.038-15.701zm-4.15 20.457c-.257.307-.449.66-.601 1.041 1.76-.451 3.478-1.004 5.156-1.637l-.32-.191c-1.645-.867-3.07-.602-4.235.787zm24.737-14.738c.624-.725 1.229-1.465 1.811-2.223.145-1.115.335-2.268.622-3.496h-1.89c.031 1.471-.053 3.539-.543 5.719zm-32.518 6.344c.461-5.303 1.453-9.471 2.212-12.062h-2.236c-.389 3.162-1.807 8.824-6.969 11.672-3.757 2.072-5.067 5.512-4.417 7.842.472 1.691 1.922 2.623 3.979 2.561 5.897-.183 6.661-1.213 7.431-10.013zm30.246-12.063c.09.676.148 1.41.148 2.186 0 3.523-1.199 7.836-6.145 10.678-3.08 1.768-5.309 1.08-6.634.189-2.513-1.686-3.924-5.699-3.358-9.547.198-1.344.628-2.52 1.235-3.506h-1.75c-1.665 3.49-3.294 9.467 1.471 14.559.915.979 1.719 1.949 2.455 2.914 4.434-2.303 8.479-5.248 12.014-8.721 1.5-3.07 1.713-6.617 1.671-8.752h-1.107zm-47.63 0h-2.938c-1.185.514-2.778.924-4.928.994-5.745.195-9.643.977-9.681.982-.459.094-.907-.199-1.002-.654-.091-.459.201-.898.661-.992.066-.012.776-.154 1.99-.33h-4.148c-.496 3.148-2.073 5.52-4.468 6.924.246.268.5.529.752.793l.141-.096c3.677-2.49 7.842-5.312 13.759-5.312 4.923 0 7.979-1.09 9.862-2.309zm54.078 0l-.043.201.128-.201h-.085zm-49.739 19.961c-.827-2.965.705-7.266 5.228-9.76 4.352-2.4 5.676-7.324 6.074-10.201h-1.068c-.778 5.125-3.924 7.543-6.741 9.705-3.552 2.727-6.622 5.072-5.85 12.123l.031.193c1.377.285 2.777.502 4.192.672-.89-.65-1.542-1.57-1.866-2.732zm2.453-11.584c2.734-2.1 5.334-4.104 6.062-8.377h-2.197c-.837 2.934-3.521 7.539-12.019 10.143-4.962 1.52-9.308 3.5-12.487 5.578.382.234.772.455 1.161.68 1.441-.471 3.013-.594 4.431-.102 1.191.412 2.65 1.402 3.311 3.738 1.694.621 3.436 1.143 5.211 1.578-.704-7.664 2.965-10.506 6.527-13.238zm-28.556-8.377h-2.829c.17.588.064 1.229-.331 1.828-.451.684-1.3 1.318-2.413 1.734.545.709 1.108 1.4 1.689 2.076 2.689-1.452 3.587-4.05 3.884-5.638zm12.947 17.885c-.476-.164-.994-.227-1.526-.213 1.039.527 2.092 1.031 3.17 1.486-.41-.607-.958-1.035-1.644-1.273zm-17.526-16.977c.214-.324.123-.473.09-.529-.072-.119-.227-.252-.481-.379h-3.106c.464.725.944 1.438 1.444 2.135 1.025-.289 1.759-.781 2.053-1.227zm62.475 7.51c.198.234.802.947 2.566.156 3.29-1.477 4.438-5.219 3.447-7.783-.113-.293-.253-.553-.408-.791h-2.45c1.371.871 1.794 2.023 1.91 2.727.23 1.371-.348 2.857-1.436 3.686-.371.281-.904.215-1.189-.154-.286-.367-.216-.895.155-1.178.598-.455.922-1.312.796-2.082-.152-.918-.888-1.627-2.126-2.047-.303-.102-.63.094-.971.588-1.15 1.659-1.513 5.437-.294 6.878zm-27.249-8.418h-2.009c-1.448 2.387-4.518 5.658-10.718 6.578-4.407.652-10.048 3.068-14.3 6.176.891.684 1.802 1.34 2.738 1.965 3.814-2.613 8.967-4.779 13.543-6.182 7.337-2.248 9.874-6.015 10.746-8.537zm27.068 11.662c1.344.9 2.969.816 4.831-.254 5.387-3.094 5.675-8.146 5.175-11.408h-2.31l.082.189c1.263 3.268-.036 7.99-4.333 9.916-2.556 1.146-3.957.109-4.565-.609-1.737-2.057-1.337-6.695.197-8.908.156-.227.325-.416.501-.588h-.539c-.854.902-1.439 2.186-1.67 3.75-.468 3.184.661 6.59 2.631 7.912zm-31.118-11.662h-2.165c-1.87 1.875-5.53 3.99-12.53 3.99-5.336 0-9.244 2.609-12.69 4.943.986.961 2.006 1.887 3.068 2.762 4.552-3.418 10.652-6.078 15.39-6.781 4.81-.715 7.482-2.978 8.927-4.914z"/><path fill="#A34A1B" d="M7.927 76.998h84.146c1.231-1.914 2.337-3.918 3.302-6h-90.75c.965 2.082 2.07 4.086 3.302 6z"/><path fill="#F3F3F3" d="M85 67v1c0 1.656-1.343 3-3 3h-64c-1.657 0-3-1.344-3-3v-1h70z"/><path fill="#D5D5D5" d="M45.5 66h9c.828 0 1.5.672 1.5 1.5s-.672 1.5-1.5 1.5h-9c-.828 0-1.5-.672-1.5-1.5s.672-1.5 1.5-1.5z"/><path fill="#36434F" d="M24 28h52c1.104 0 2 .895 2 2v37h-56v-37c0-1.105.896-2 2-2z"/><path fill="#465765" d="M25 31h50v33h-50v-33z"/><path fill="#7E8A94" d="M38 60h24c1.657 0 3 1.342 3 3v1l-30.11-.01.11-.99c0-1.658 1.343-3 3-3z"/><path fill="#E4E7E7" d="M41 58c1.104 0 2 .895 2 2 0 1.104-.896 2-2 2s-2-.896-2-2c0-1.105.896-2 2-2z"/><path fill="#EFC75E" d="M47 58c1.104 0 2 .895 2 2 0 1.104-.896 2-2 2s-2-.896-2-2c0-1.105.896-2 2-2z"/><path fill="#E4E7E7" d="M53 58c1.104 0 2 .895 2 2 0 1.104-.896 2-2 2s-2-.896-2-2c0-1.105.896-2 2-2zM59 58c1.104 0 2 .895 2 2 0 1.104-.896 2-2 2s-2-.896-2-2c0-1.105.896-2 2-2z"/><g fill="#88411A"><path d="M67.83 80h1.747c.224-1.133.606-2.143 1.135-3h-1.749c-.413.863-.822 1.881-1.133 3zM75.234 77.947c-.303-.102-.63.094-.971.588-.27.389-.491.9-.664 1.465h3.761v-.006c-.152-.918-.887-1.627-2.126-2.047zM71.316 80h.529c.229-.928.575-1.775 1.02-2.416.155-.225.323-.414.498-.584h-.538c-.711.752-1.221 1.777-1.509 3zM81.566 77.186c.333.861.482 1.826.451 2.814h1.916c.069-1.082-.003-2.109-.14-3h-2.309l.082.186zM79.034 79.723l.026.277h1.25c.036-.777-.066-1.537-.328-2.213-.113-.291-.252-.551-.406-.787h-2.448c1.368.871 1.79 2.02 1.906 2.723zM9.441 79.131c1.024-.289 1.759-.781 2.053-1.227.214-.324.123-.473.09-.529-.072-.117-.226-.25-.477-.375h-3.108c.463.723.943 1.434 1.442 2.131zM42.667 77h-2.165c-1.066 1.068-2.718 2.211-5.233 3h4.038c1.528-.916 2.613-2 3.36-3zM16.073 77h-2.828c.168.586.063 1.227-.332 1.824-.282.426-.734.828-1.293 1.176h3.32c.65-1.072.977-2.172 1.133-3zM37.832 77h-2.941c-1.185.512-2.774.92-4.92.99-5.745.195-9.643.977-9.681.982-.459.094-.907-.199-1.002-.654-.091-.459.201-.898.661-.992.066-.012.77-.152 1.971-.326h-4.129c-.174 1.1-.486 2.098-.913 3h6.16c1.509-.432 3.141-.695 4.937-.695 4.92 0 7.973-1.088 9.857-2.305zM61.062 80h1.99c.264-1.086.557-2.109.84-3h-2.039c-.27.902-.549 1.932-.791 3zM86.446 80c.119-1.137.145-2.176.128-3h-1.107c.09.674.148 1.406.148 2.182 0 .268-.01.541-.024.818h.855zM90.171 77h-1.889c.018.834-.013 1.871-.122 3h1.464c.136-.963.302-1.951.547-3zM42.183 80h2.855c.854-1.074 1.373-2.115 1.681-3h-2.01c-.564.93-1.38 1.992-2.526 3zM91.914 77l-.042.197.126-.197h-.084zM47.124 80h2.593c.436-.869.777-1.848.974-3h-2.197c-.253.881-.677 1.916-1.37 3zM54.6 80h2.051c.268-1.148.537-2.164.781-3h-2.235c-.106.852-.29 1.889-.597 3zM58.399 80h.915c.236-1.09.509-2.119.766-3h-.875c-.244.807-.523 1.826-.806 3zM51.577 80h1.237c.339-1.102.544-2.143.663-3h-1.068c-.172 1.123-.461 2.109-.832 3zM64.807 80h1.332c.275-1.092.632-2.107 1.013-3h-1.471c-.286.867-.593 1.898-.874 3z"/></g><g fill="#AC5C32"><path d="M37.215 71h-3.565c-1.415.781-3.09 1.504-5.099 2.115-3.619 1.098-6.915 2.438-9.674 3.881h12.466c1.281-2.498 3.365-4.086 5.411-5.641l.461-.355zM47.41 75.031c.126-1.434.292-2.775.481-4.031h-3.444c-1 1.396-2.316 2.68-4.072 3.639-1.227.67-2.189 1.484-2.914 2.357h9.757c.065-.613.13-1.256.192-1.965zM54.741 75.1c-.309-1.244-.357-2.654-.264-4.1h-1.892c-.019 1.348.171 2.498.705 3.201.281.371.204.896-.174 1.174-.378.275-.912.199-1.194-.172-.769-1.012-1.041-2.523-1.031-4.203h-1.272c-.201 1.299-.379 2.688-.51 4.174-.057.645-.115 1.244-.177 1.822h5.77c.23-.437.261-1 .039-1.896zM28.047 71.514c.536-.162 1.04-.336 1.526-.514h-8.948c-3.775 1.379-7.68 3.531-10.591 5.996h5.442c3.703-2.299 8.376-4.209 12.571-5.482zM4.83 71.479l.731-.479h-.949l.218.479zM39.545 73.174c1.085-.594 1.981-1.34 2.725-2.174h-2.353c-.699.6-1.418 1.146-2.118 1.68-1.749 1.328-3.379 2.572-4.5 4.316h2.086c.896-1.435 2.263-2.787 4.16-3.822zM16.402 71h-7.8c-.505.328-.999.66-1.483.984-.512.344-1.018.674-1.524 1 .679 1.301 1.414 2.566 2.203 3.797 2.306-2.203 5.378-4.215 8.604-5.781zM81.706 71h-2.263c-.557 1.496-1.347 2.965-2.475 4.248-.437.498-.797 1.1-1.114 1.748h6.862c-.56-1.775-.934-3.754-1.01-5.996zM93.615 74.393c.482-.852.931-1.727 1.362-2.611-.026-.262-.038-.523-.038-.781h-2.104c.067 1.034.312 2.179.78 3.392zM89.265 76.996h2.787l.478-.795c-.911-1.865-1.337-3.625-1.42-5.201h-3.58c.103 1.895.736 3.98 1.735 5.996zM60.129 76.996c-1.373-1.973-2.015-4.018-2.186-5.996h-1.755c-.095 1.322-.062 2.6.211 3.699.232.939.241 1.684.104 2.297h3.626zM85.797 71h-2.402c.078 2.262.482 4.238 1.09 5.996h2.852c-.908-2.008-1.46-4.064-1.54-5.996zM74.002 76.996c.436-1.086.985-2.057 1.675-2.842.834-.951 1.457-2.033 1.929-3.154h-.972c-.936 1.779-2.446 3.473-4.826 4.826-3.1 1.764-5.341 1.076-6.675.189-1.52-1.012-2.628-2.867-3.155-5.016h-2.351c.215 1.988.983 4.047 2.643 5.996h11.732zM64.963 72.471c-.343-.402-.601-.908-.785-1.471h-.434c.455 1.572 1.27 2.912 2.346 3.629 1.353.898 2.987.814 4.861-.252 1.705-.973 2.901-2.137 3.726-3.377h-2.284c-.734.838-1.672 1.559-2.836 2.078-2.572 1.143-3.982.11-4.594-.607zM68.854 71.551c.351-.156.663-.35.965-.551h-3.785c.076.135.145.283.239.395.199.234.805.945 2.581.156z"/></g></svg>