<svg xmlns="http://www.w3.org/2000/svg" width="100" height="100" viewBox="0 0 100 100"><path fill="#E2574C" d="M50 .001c-27.614 0-50 22.385-50 50 0 27.614 22.386 50 50 50s50-22.386 50-50c0-27.615-22.386-50-50-50z"/><path fill="#E5685E" d="M70.918 4.588c-6.366-2.937-13.447-4.587-20.918-4.587s-14.552 1.65-20.917 4.587l-15.857 79.281c9.129 9.906 22.205 16.12 36.735 16.131h.077c14.531-.011 27.607-6.225 36.735-16.131l-15.855-79.281z"/><path fill="#ABADAF" d="M47 84h6v16h-6v-16z"/><path fill="#3E525C" d="M56 78v3c0 1.657-1.343 3-3 3h-6c-1.656 0-3-1.343-3-3v-3h12z"/><path fill="#E1E5E7" d="M42 22h16c5.522 0 10 4.478 10 10v36c0 5.523-4.478 10-10 10h-16c-5.523 0-10-4.477-10-10v-36c0-5.522 4.477-10 10-10z"/><g fill="#BCBDBE"><path d="M60 52h-20c-1.104 0-2 .896-2 2s.896 2 2 2h20c1.104 0 2-.896 2-2s-.896-2-2-2zM60 36h-20c-1.104 0-2 .896-2 2s.896 2 2 2h20c1.104 0 2-.896 2-2s-.896-2-2-2zM58 30c1.104 0 2-.896 2-2v-5.799c-.646-.131-1.315-.201-2-.201h-2v6c0 1.104.896 2 2 2zM60 64c1.104 0 2-.896 2-2s-.896-2-2-2h-20c-1.104 0-2 .896-2 2s.896 2 2 2h20zM60 44h-20c-1.104 0-2 .896-2 2s.896 2 2 2h20c1.104 0 2-.896 2-2s-.896-2-2-2zM60 72c0-1.104-.896-2-2-2s-2 .896-2 2v6h2c.685 0 1.354-.069 2-.201v-5.799zM50 30c1.104 0 2-.896 2-2v-6h-4v6c0 1.104.896 2 2 2zM50.5 70h-1c-.828 0-1.5.672-1.5 1.5v6.5h4v-6.5c0-.828-.672-1.5-1.5-1.5zM42 70c-1.104 0-2 .896-2 2v5.799c.646.132 1.315.201 2 .201h2v-6c0-1.104-.896-2-2-2zM40 28c0 1.104.896 2 2 2s2-.896 2-2v-6h-2c-.685 0-1.354.069-2 .201v5.799z"/></g><path fill="#CFD1D3" d="M47 36h6v4h-6zM47 44h6v4h-6zM47 52h6v4h-6zM47 60h6v4h-6z"/><path fill="#CACED0" d="M58 74h-16c-5.523 0-10-4.477-10-10v4c0 5.523 4.477 10 10 10h16c5.522 0 10-4.477 10-10v-4c0 5.523-4.478 10-10 10z"/><path fill="#B5B6B7" d="M42 74c-.685 0-1.354-.069-2-.201v4c.323.065.651.116.985.15.333.033.672.051 1.015.051h2v-4h-2zM48 74h4v4h-4zM60 77.799v-4c-.646.132-1.315.201-2 .201h-2v4h2c.343 0 .682-.018 1.015-.051.334-.034.662-.085.985-.15z"/><path fill="#BCBEC0" d="M47 87h6v13h-6v-13z"/><path fill="#475F6C" d="M56 80v1c0 1.657-1.343 3-3 3h-6c-1.656 0-3-1.343-3-3v-1h12z"/></svg>