<svg xmlns="http://www.w3.org/2000/svg" width="100" height="100" viewBox="0 0 100 100"><path fill="#324D5B" d="M50 0c27.614 0 50 22.386 50 50s-22.386 50-50 50-50-22.386-50-50 22.386-50 50-50z"/><path fill="#EEF3F3" d="M19.001 89.216c8.522 6.745 19.286 10.784 30.999 10.784 3.781 0 7.459-.434 11-1.229v-31.771l-41.997-20.004-.002 42.22z"/><path fill="#D8D8D8" d="M61.012 98.769c10.183-2.29 19.195-7.673 25.979-15.129v-29.639l-25.979 13.072v31.696z"/><path fill="#C0C0C0" d="M60 67l13-20 14 7v1l-26 13-1-1z"/><path fill="#909090" d="M69 45l18 9-18-3v-6z"/><path fill="#3DBEE9" d="M32 28l.833-1.417 40.73 19.167.229 1.667-12.792 19.583v1l-42-20v-1l13-19z"/><path fill="#EEF3F3" d="M34.621 17.25l36.547 17.524c1.449.714 2.624 2.741 2.624 4.527v8.115l-41.792-19.416-.004-8.81c0-1.786 1.175-2.655 2.625-1.94z"/><path fill="#D6DADA" d="M49.068 41.381c1.914 1.914 2.606 4.618.361 7.723-2.246 3.104-6.049 4.678-8.493 3.517-2.445-1.162-2.936-2.621-2.936-2.621s8.913-9.904 10-10c.029-.002.262.573 1.068 1.381z"/><path fill="#EEF3F3" d="M47.068 39.381c2.445 1.161 2.606 4.619.36 7.723-2.245 3.104-6.048 4.678-8.492 3.517-2.445-1.161-2.606-4.619-.361-7.723 2.246-3.104 6.049-4.678 8.493-3.517z"/><path fill="#37ABD1" d="M43.895 27.081l16.211 7.482c.498.261.901.999.901 1.649s-.403.967-.901.707l-16.211-7.483c-.498-.26-.901-.998-.901-1.649-.001-.65.402-.967.901-.706z"/><path fill="#40A8CA" d="M67.795 74.455l14.41-7.276c.995-.503 1.802.107 1.802 1.363v6.821c0 1.255-.807 2.681-1.802 3.183l-14.41 7.276c-.995.502-1.802-.108-1.802-1.364v-6.82c0-1.256.807-2.681 1.802-3.183z"/><g fill="#37ABD1"><path d="M19.006 66.34l41.988 19.667v-4.346l-41.988-19.668zM19.006 89.22c8.521 6.743 19.283 10.78 30.994 10.78 3.779 0 7.455-.433 10.994-1.228v-9.111l-41.988-19.668v19.227z"/></g></svg>