<svg xmlns="http://www.w3.org/2000/svg" xmlns:xlink="http://www.w3.org/1999/xlink" width="100" height="100" viewBox="0 0 100 100"><path fill="#E2574C" d="M50 0c-27.614 0-50 22.386-50 50s22.386 50 50 50 50-22.386 50-50-22.386-50-50-50z"/><defs><path id="a" d="M50 0c-27.614 0-50 22.386-50 50s22.386 50 50 50 50-22.386 50-50-22.386-50-50-50z"/></defs><clipPath id="b"><use xlink:href="#a" overflow="visible"/></clipPath><g clip-path="url(#b)"><path fill="#E4E7E7" d="M19 56h82c1.656 0 3 1.343 3 3v51c0 1.657-1.344 3-3 3h-82c-1.657 0-3-1.343-3-3v-51c0-1.657 1.343-3 3-3z"/><path fill="#D8DBDB" d="M16 79h80v21h-80v-21z"/><path fill="#324D5B" d="M36 50h65c1.656 0 3 1.344 3 3v14c0 1.657-1.344 3.001-3 3.001h-65c-1.657 0-3-1.344-3-3.001v-14c0-1.656 1.343-3 3-3z"/><path fill="#283E49" d="M43 56.999h56c1.104 0 2 .896 2 2.001v2.001c0 1.104-.896 1.999-2 1.999h-56c-1.104 0-2-.896-2-1.999v-2.001c0-1.105.896-2.001 2-2.001z"/><path fill="#3DB39E" d="M36 86c1.657 0 3 1.343 3 3s-1.343 3-3 3-3-1.343-3-3 1.343-3 3-3z"/><path fill="#324D5B" d="M46 86c1.657 0 3 1.343 3 3s-1.343 3-3 3-3-1.343-3-3 1.343-3 3-3z"/><path fill="#CCD0D2" d="M45 20h-5c-2.761 0-5 2.239-5 5v6c0 2.762 2.239 5 5 5h5c2.761 0 5-2.238 5-5v-6c0-2.761-2.239-5-5-5z"/><path fill="#F3F3F3" d="M97 20h-57c2.762 0 5 2.239 5 5v35h55v-37c0-1.657-1.344-3-3-3z"/><path fill="#DFE1E2" d="M54.5 31h45c.828 0 1.5-.671 1.5-1.5s-.672-1.5-1.5-1.5h-45c-.828 0-1.5.671-1.5 1.5s.672 1.5 1.5 1.5zm45 4h-45c-.828 0-1.5.672-1.5 1.5 0 .829.672 1.5 1.5 1.5h45c.828 0 1.5-.672 1.5-1.5s-.672-1.5-1.5-1.5zm0 7h-45c-.828 0-1.5.672-1.5 1.5s.672 1.5 1.5 1.5h45c.828 0 1.5-.672 1.5-1.5s-.672-1.5-1.5-1.5zm0 7h-45c-.828 0-1.5.671-1.5 1.5 0 .828.672 1.5 1.5 1.5h45c.828 0 1.5-.672 1.5-1.5 0-.829-.672-1.5-1.5-1.5z"/></g></svg>