<svg xmlns="http://www.w3.org/2000/svg" width="100" height="100" viewBox="0 0 100 100"><path fill="#E37948" d="M50 0c27.613 0 50 22.386 50 50s-22.387 50-50 50c-27.614 0-50-22.386-50-50s22.386-50 50-50z"/><path fill="#34495E" d="M89.861 19.823c-.638-.841-1.307-1.656-1.995-2.454-1.537 2.761-4.481 4.631-7.866 4.631-4.971 0-9-4.029-9-9 0-2.72 1.211-5.151 3.117-6.802-.924-.509-1.865-.989-2.823-1.44-2.036 2.15-3.294 5.047-3.294 8.242 0 4.032 1.995 7.591 5.045 9.767-14.327 3.177-25.045 15.95-25.045 31.233 0 17.674 14.327 32 32 32 1.74 0 3.445-.144 5.109-.411 9.19-9.067 14.891-21.66 14.891-35.589 0-9.168-2.479-17.753-6.787-25.14-1.986-.902-4.079-1.61-6.258-2.093 1.13-.806 2.113-1.804 2.906-2.944z"/><path fill="#ECF0F1" d="M100 50c0-5.243-.811-10.296-2.308-15.045-4.64-4.313-10.856-6.955-17.692-6.955-14.359 0-26 11.641-26 26s11.641 26 26 26c4.35 0 8.446-1.073 12.049-2.962 5.024-7.797 7.951-17.073 7.951-27.038z"/><path fill="#D4D8D9" d="M98.477 37.722c-.236-.933-.497-1.856-.784-2.767-4.641-4.313-10.857-6.955-17.693-6.955-14.359 0-26 11.641-26 26 0 .335.014.668.025 1 .528-13.895 11.952-25 25.975-25 7.23 0 13.765 2.957 18.477 7.722z"/><path fill="#E74C3C" d="M82 50.555v-14.555c0-1.104-.896-2-2-2s-2 .896-2 2v14.555c-1.189.693-2 1.969-2 3.445 0 2.209 1.791 4 4 4s4-1.791 4-4c0-1.477-.811-2.752-2-3.445z"/><path fill="#fff" d="M24 35h20c1.104 0 2-.895 2-2 0-1.104-.896-2-2-2h-20c-1.104 0-2 .896-2 2 0 1.105.896 2 2 2zm-10 10h20c1.104 0 2-.895 2-2 0-1.104-.896-2-2-2h-20c-1.104 0-2 .896-2 2 0 1.105.896 2 2 2zm22 18c0-1.104-.896-2-2-2h-20c-1.104 0-2 .896-2 2s.896 2 2 2h20c1.104 0 2-.896 2-2zm9 8h-20c-1.104 0-2 .896-2 2s.896 2 2 2h20c1.104 0 2-.896 2-2s-.896-2-2-2zm-28-20c-1.104 0-2 .896-2 2 0 1.105.896 2 2 2h22c1.104 0 2-.895 2-2 0-1.104-.896-2-2-2h-22z"/><path fill="#2C3E50" d="M83 14h-6v7.477c.939.333 1.946.523 3 .523s2.061-.19 3-.523v-7.477z"/><path fill="#34495E" d="M85.712 15.019c-1.774-1.811-3.681-3.493-5.712-5.019h-4c-1.104 0-2 .896-2 2v2c0 1.105.896 2 2 2h8c.73 0 1.363-.396 1.712-.981z"/></svg>