<svg xmlns="http://www.w3.org/2000/svg" width="100" height="100" viewBox="0 0 100 100"><path fill="#2394BC" d="M50-.001c27.615 0 50.001 22.386 50.001 50 0 27.615-22.386 50.001-50.001 50.001-27.614 0-50-22.386-50-50.001 0-27.614 22.386-50 50-50z"/><g fill="#2085AA"><path d="M41.311 29.884c3.537.688 6.939-1.614 7.597-5.139.658-3.525-1.677-6.939-5.214-7.627-3.537-.687-6.938 1.615-7.597 5.14-.658 3.524 1.677 6.939 5.214 7.626zm-2.262-7.053c.354-1.9 2.179-3.141 4.076-2.771 1.898.37 3.151 2.21 2.798 4.111-.352 1.899-2.178 3.14-4.076 2.771-1.899-.371-3.15-2.211-2.798-4.111zM27.535 54.47l3.037-3.036c.562-.563.562-1.474 0-2.036s-1.473-.562-2.035 0l-3.037 3.038-3.037-3.038c-.562-.562-1.473-.562-2.034 0-.562.562-.562 1.473 0 2.036l3.036 3.036-3.066 3.066c-.562.562-.562 1.474 0 2.035.562.562 1.473.562 2.035 0l3.066-3.067 3.067 3.067c.562.562 1.473.562 2.034 0 .562-.562.562-1.473 0-2.035l-3.066-3.066zM78.603 45.537l-3.067-3.067 3.037-3.037c.562-.562.562-1.472 0-2.035-.562-.562-1.473-.562-2.035 0l-3.036 3.037-3.038-3.037c-.561-.562-1.473-.562-2.033 0-.562.563-.562 1.473 0 2.035l3.035 3.037-3.065 3.067c-.562.562-.562 1.473 0 2.035.561.562 1.472.562 2.034 0l3.067-3.067 3.066 3.067c.562.562 1.473.562 2.035 0 .56-.563.56-1.473 0-2.035zM68.536 74.47l3.035-3.037c.563-.562.563-1.473 0-2.034-.561-.562-1.473-.562-2.033 0l-3.038 3.036-3.036-3.036c-.562-.562-1.474-.562-2.035 0-.562.562-.562 1.472 0 2.034l3.037 3.037-3.067 3.066c-.561.562-.561 1.473 0 2.035.562.562 1.473.562 2.036 0l3.065-3.066 3.066 3.066c.563.562 1.474.562 2.035 0 .562-.562.562-1.473 0-2.035l-3.065-3.066zM58.525 42.04l-11.803-5.922-1.943 6.432-1.644 5.504c-.014.099-.063.252-.057.355.054.729.615 1.252 1.344 1.344l.316.008c.773-.057 1.277-.586 1.547-1.385l1.622-5.132c4.81 9.178 2.555 20.72-5.992 27.486-2.043 1.617-5 3.253-7.778 4.333 0 0-2.856.763-2.773 2.47.141 2.872 4.15 1.085 4.852.824 2.823-1.053 5.268-2.434 8.125-4.694 9.864-7.812 12.56-21.062 7.22-31.726l4.663 2.333c.575.25 1.166.525 1.783.466.688-.066 1.185-.706 1.185-1.522 0-.494-.273-.927-.667-1.174z"/></g><g fill="#fff"><path d="M42.311 28.884c3.537.688 6.939-1.614 7.597-5.139.658-3.525-1.677-6.939-5.214-7.627-3.537-.687-6.938 1.615-7.597 5.14-.658 3.524 1.677 6.939 5.214 7.626zm-2.262-7.053c.354-1.9 2.179-3.141 4.076-2.771 1.898.37 3.151 2.21 2.798 4.111-.352 1.899-2.178 3.14-4.076 2.771-1.899-.371-3.15-2.211-2.798-4.111zM28.535 53.47l3.037-3.036c.562-.563.562-1.474 0-2.036s-1.473-.562-2.035 0l-3.037 3.038-3.037-3.038c-.562-.562-1.473-.562-2.034 0-.562.562-.562 1.473 0 2.036l3.036 3.036-3.066 3.066c-.562.562-.562 1.474 0 2.035.562.562 1.473.562 2.035 0l3.066-3.067 3.067 3.067c.562.562 1.473.562 2.034 0 .562-.562.562-1.473 0-2.035l-3.066-3.066zM79.603 44.537l-3.067-3.067 3.037-3.037c.562-.562.562-1.472 0-2.035-.562-.562-1.473-.562-2.035 0l-3.036 3.037-3.038-3.037c-.561-.562-1.473-.562-2.033 0-.562.563-.562 1.473 0 2.035l3.035 3.037-3.065 3.067c-.562.562-.562 1.473 0 2.035.561.562 1.472.562 2.034 0l3.067-3.067 3.066 3.067c.562.562 1.473.562 2.035 0 .56-.563.56-1.473 0-2.035zM69.536 73.47l3.035-3.037c.563-.562.563-1.473 0-2.034-.561-.562-1.473-.562-2.033 0l-3.038 3.036-3.036-3.036c-.562-.562-1.474-.562-2.035 0-.562.562-.562 1.472 0 2.034l3.037 3.037-3.067 3.066c-.561.562-.561 1.473 0 2.035.562.562 1.473.562 2.036 0l3.065-3.066 3.066 3.066c.563.562 1.474.562 2.035 0 .562-.562.562-1.473 0-2.035l-3.065-3.066zM59.525 41.04l-11.803-5.922-1.943 6.432-1.644 5.504c-.014.099-.063.252-.057.355.054.729.615 1.252 1.344 1.344l.316.008c.773-.057 1.277-.586 1.547-1.385l1.622-5.132c4.81 9.178 2.555 20.72-5.992 27.486-2.043 1.617-5 3.253-7.778 4.333 0 0-2.856.763-2.773 2.47.141 2.872 4.15 1.085 4.852.824 2.823-1.053 5.268-2.434 8.125-4.694 9.864-7.812 12.56-21.062 7.22-31.726l4.663 2.333c.575.25 1.166.525 1.783.466.688-.066 1.185-.706 1.185-1.522 0-.494-.273-.927-.667-1.174z"/></g></svg>