<svg version="1.1" xmlns="http://www.w3.org/2000/svg" viewBox="0 0 2170.091369041903 1061.1168536036046" width="4340.182738083806" height="2122.233707207209">
  <!-- svg-source:excalidraw -->
  
  <defs>
    <style class="style-fonts">
      @font-face {
        font-family: "Virgil";
        src: url("https://excalidraw.com/Virgil.woff2");
      }
      @font-face {
        font-family: "Cascadia";
        src: url("https://excalidraw.com/Cascadia.woff2");
      }
    </style>
  </defs>
  <rect x="0" y="0" width="2170.091369041903" height="1061.1168536036046" fill="#ffffff"></rect><g stroke-linecap="round" transform="translate(592.6420739216554 407.37829164651816) rotate(0 128.5 128)"><path d="M0 0 C96.09 0, 192.17 0, 257 0 M0 0 C62.3 0, 124.6 0, 257 0 M257 0 C257 59.23, 257 118.47, 257 256 M257 0 C257 72.23, 257 144.46, 257 256 M257 256 C186.75 256, 116.49 256, 0 256 M257 256 C185.33 256, 113.66 256, 0 256 M0 256 C0 186.8, 0 117.59, 0 0 M0 256 C0 203.79, 0 151.57, 0 0" stroke="#000000" stroke-width="1" fill="none"></path></g><g transform="translate(597.1420739216554 439.37829164651816) rotate(0 123.5 96)"><text x="123.5" y="26" font-family="Helvetica, Segoe UI Emoji" font-size="28px" fill="#000000" text-anchor="middle" style="white-space: pre;" direction="ltr">Page:</text><text x="123.5" y="58" font-family="Helvetica, Segoe UI Emoji" font-size="28px" fill="#000000" text-anchor="middle" style="white-space: pre;" direction="ltr"></text><text x="123.5" y="90" font-family="Helvetica, Segoe UI Emoji" font-size="28px" fill="#000000" text-anchor="middle" style="white-space: pre;" direction="ltr">List of peeps </text><text x="123.5" y="122" font-family="Helvetica, Segoe UI Emoji" font-size="28px" fill="#000000" text-anchor="middle" style="white-space: pre;" direction="ltr">(ordered in reverse-</text><text x="123.5" y="154" font-family="Helvetica, Segoe UI Emoji" font-size="28px" fill="#000000" text-anchor="middle" style="white-space: pre;" direction="ltr">chronological </text><text x="123.5" y="186" font-family="Helvetica, Segoe UI Emoji" font-size="28px" fill="#000000" text-anchor="middle" style="white-space: pre;" direction="ltr">order)</text></g><g stroke-linecap="round" transform="translate(1199.692766083077 10) rotate(0 124.5 127.73492180796244)"><path d="M0 0 C88.85 0, 177.7 0, 249 0 M0 0 C62.22 0, 124.44 0, 249 0 M249 0 C249 70.9, 249 141.8, 249 255.47 M249 0 C249 60.07, 249 120.15, 249 255.47 M249 255.47 C173.75 255.47, 98.5 255.47, 0 255.47 M249 255.47 C153.02 255.47, 57.04 255.47, 0 255.47 M0 255.47 C0 199.73, 0 143.99, 0 0 M0 255.47 C0 163.09, 0 70.71, 0 0" stroke="#000000" stroke-width="1" fill="none"></path></g><g transform="translate(1232.9651966890137 73.73492180796244) rotate(0 90.5 48)"><text x="90.5" y="26" font-family="Helvetica, Segoe UI Emoji" font-size="28px" fill="#000000" text-anchor="middle" style="white-space: pre;" direction="ltr">Page:</text><text x="90.5" y="58" font-family="Helvetica, Segoe UI Emoji" font-size="28px" fill="#000000" text-anchor="middle" style="white-space: pre;" direction="ltr"></text><text x="90.5" y="90" font-family="Helvetica, Segoe UI Emoji" font-size="28px" fill="#000000" text-anchor="middle" style="white-space: pre;" direction="ltr">Add new peep</text></g><g stroke-linecap="round"><g transform="translate(729.908620021031 391.96660415275767) rotate(0 230.94006748528886 -141.42305722953597)"><path d="M0 0 C7.79 -29.83, 10.21 -134.74, 46.73 -179.01 C83.24 -223.27, 149.9 -248.28, 219.09 -265.59 C288.28 -282.9, 421.41 -279.97, 461.88 -282.85 M0 0 C7.79 -29.83, 10.21 -134.74, 46.73 -179.01 C83.24 -223.27, 149.9 -248.28, 219.09 -265.59 C288.28 -282.9, 421.41 -279.97, 461.88 -282.85" stroke="#000000" stroke-width="1" fill="none"></path></g><g transform="translate(729.908620021031 391.96660415275767) rotate(0 230.94006748528886 -141.42305722953597)"><path d="M434.01 -271.74 C442.11 -274.97, 450.21 -278.2, 461.88 -282.85 M434.01 -271.74 C439.62 -273.98, 445.23 -276.21, 461.88 -282.85" stroke="#000000" stroke-width="1" fill="none"></path></g><g transform="translate(729.908620021031 391.96660415275767) rotate(0 230.94006748528886 -141.42305722953597)"><path d="M433.39 -292.25 C441.67 -289.52, 449.95 -286.79, 461.88 -282.85 M433.39 -292.25 C439.12 -290.36, 444.86 -288.47, 461.88 -282.85" stroke="#000000" stroke-width="1" fill="none"></path></g></g><g transform="translate(788.7715335575921 93.52683987592323) rotate(0 75.5 16)"><text x="0" y="26" font-family="Helvetica, Segoe UI Emoji" font-size="28px" fill="#000000" text-anchor="start" style="white-space: pre;" direction="ltr">Click on link</text></g><g stroke-linecap="round" transform="translate(1904.5104974951669 263.4401059897122) rotate(0 124.5 127.73492180796242)"><path d="M0 0 C58.45 0, 116.91 0, 249 0 M0 0 C74.18 0, 148.37 0, 249 0 M249 0 C249 73.4, 249 146.8, 249 255.47 M249 0 C249 99.42, 249 198.84, 249 255.47 M249 255.47 C189.33 255.47, 129.65 255.47, 0 255.47 M249 255.47 C149.85 255.47, 50.7 255.47, 0 255.47 M0 255.47 C0 156.69, 0 57.91, 0 0 M0 255.47 C0 180.41, 0 105.34, 0 0" stroke="#000000" stroke-width="1" fill="none"></path></g><g transform="translate(1937.2829281011036 327.17502779767466) rotate(0 91 64)"><text x="91" y="26" font-family="Helvetica, Segoe UI Emoji" font-size="28px" fill="#000000" text-anchor="middle" style="white-space: pre;" direction="ltr">Page:</text><text x="91" y="58" font-family="Helvetica, Segoe UI Emoji" font-size="28px" fill="#000000" text-anchor="middle" style="white-space: pre;" direction="ltr"></text><text x="91" y="90" font-family="Helvetica, Segoe UI Emoji" font-size="28px" fill="#000000" text-anchor="middle" style="white-space: pre;" direction="ltr">Peep creation </text><text x="91" y="122" font-family="Helvetica, Segoe UI Emoji" font-size="28px" fill="#000000" text-anchor="middle" style="white-space: pre;" direction="ltr">confirmation</text></g><g stroke-linecap="round"><g transform="translate(1457.4696336281386 103.63810066046034) rotate(0 285.65187254628654 73.08787312407976)"><path d="M0 0 C62.02 3.42, 276.9 -3.85, 372.11 20.51 C467.33 44.87, 538.11 125.23, 571.3 146.18 M0 0 C62.02 3.42, 276.9 -3.85, 372.11 20.51 C467.33 44.87, 538.11 125.23, 571.3 146.18" stroke="#000000" stroke-width="1" fill="none"></path></g><g transform="translate(1457.4696336281386 103.63810066046034) rotate(0 285.65187254628654 73.08787312407976)"><path d="M542.89 136.56 C552.08 139.67, 561.27 142.78, 571.3 146.18 M542.89 136.56 C553.84 140.27, 564.79 143.97, 571.3 146.18" stroke="#000000" stroke-width="1" fill="none"></path></g><g transform="translate(1457.4696336281386 103.63810066046034) rotate(0 285.65187254628654 73.08787312407976)"><path d="M555.72 120.54 C560.76 128.84, 565.8 137.13, 571.3 146.18 M555.72 120.54 C561.72 130.42, 567.73 140.3, 571.3 146.18" stroke="#000000" stroke-width="1" fill="none"></path></g></g><g transform="translate(1521.11195298655 17.990119479262717) rotate(0 245.5 32)"><text x="0" y="26" font-family="Helvetica, Segoe UI Emoji" font-size="28px" fill="#000000" text-anchor="start" style="white-space: pre;" direction="ltr">Submit form to add peep</text><text x="0" y="58" font-family="Helvetica, Segoe UI Emoji" font-size="28px" fill="#000000" text-anchor="start" style="white-space: pre;" direction="ltr">(keep note of the time it was submitted)</text></g><g transform="translate(922.8727655310473 393.2214104738986) rotate(0 216.5 16)"><text x="0" y="26" font-family="Helvetica, Segoe UI Emoji" font-size="28px" fill="#000000" text-anchor="start" style="white-space: pre;" direction="ltr">Click on link to return to main page</text></g><g stroke-linecap="round"><g transform="translate(1894.8954106573692 380.1049911878192) rotate(0 -511.0401349983347 45.983912209738435)"><path d="M0 0 C-103.64 13.67, -451.52 66.77, -621.86 82.03 C-792.21 97.3, -955.38 89.98, -1022.08 91.57 M0 0 C-103.64 13.67, -451.52 66.77, -621.86 82.03 C-792.21 97.3, -955.38 89.98, -1022.08 91.57" stroke="#000000" stroke-width="1" fill="none"></path></g><g transform="translate(1894.8954106573692 380.1049911878192) rotate(0 -511.0401349983347 45.983912209738435)"><path d="M-993.87 81.35 C-1000.65 83.81, -1007.42 86.26, -1022.08 91.57 M-993.87 81.35 C-1003.16 84.72, -1012.45 88.08, -1022.08 91.57" stroke="#000000" stroke-width="1" fill="none"></path></g><g transform="translate(1894.8954106573692 380.1049911878192) rotate(0 -511.0401349983347 45.983912209738435)"><path d="M-993.9 101.88 C-1000.67 99.4, -1007.44 96.93, -1022.08 91.57 M-993.9 101.88 C-1003.18 98.48, -1012.46 95.09, -1022.08 91.57" stroke="#000000" stroke-width="1" fill="none"></path></g></g><g stroke-linecap="round" transform="translate(1210.9846695384858 774.5737613223604) rotate(0 138.73222038001848 138.2715461406221)"><path d="M0 0 C107.24 0, 214.48 0, 277.46 0 M0 0 C73.69 0, 147.38 0, 277.46 0 M277.46 0 C277.46 87.41, 277.46 174.83, 277.46 276.54 M277.46 0 C277.46 74.14, 277.46 148.27, 277.46 276.54 M277.46 276.54 C217.79 276.54, 158.11 276.54, 0 276.54 M277.46 276.54 C183.56 276.54, 89.66 276.54, 0 276.54 M0 276.54 C0 167.01, 0 57.48, 0 0 M0 276.54 C0 207.08, 0 137.62, 0 0" stroke="#000000" stroke-width="1" fill="none"></path></g><g transform="translate(1243.7168899185044 848.8453074629824) rotate(0 106 48)"><text x="106" y="26" font-family="Helvetica, Segoe UI Emoji" font-size="28px" fill="#000000" text-anchor="middle" style="white-space: pre;" direction="ltr">Page:</text><text x="106" y="58" font-family="Helvetica, Segoe UI Emoji" font-size="28px" fill="#000000" text-anchor="middle" style="white-space: pre;" direction="ltr"></text><text x="106" y="90" font-family="Helvetica, Segoe UI Emoji" font-size="28px" fill="#000000" text-anchor="middle" style="white-space: pre;" direction="ltr">Sign up to chitter</text></g><g stroke-linecap="round" transform="translate(1900.2503157258411 647.6493490784487) rotate(0 129.9205266580309 110.00415916533103)"><path d="M0 0 C53.51 0, 107.01 0, 259.84 0 M0 0 C73.34 0, 146.68 0, 259.84 0 M259.84 0 C259.84 56.49, 259.84 112.98, 259.84 220.01 M259.84 0 C259.84 56.15, 259.84 112.3, 259.84 220.01 M259.84 220.01 C167.13 220.01, 74.41 220.01, 0 220.01 M259.84 220.01 C178.38 220.01, 96.91 220.01, 0 220.01 M0 220.01 C0 175.93, 0 131.86, 0 0 M0 220.01 C0 155.4, 0 90.8, 0 0" stroke="#000000" stroke-width="1" fill="none"></path></g><g transform="translate(1931.6708423838722 677.6535082437797) rotate(0 98.5 80)"><text x="98.5" y="26" font-family="Helvetica, Segoe UI Emoji" font-size="28px" fill="#000000" text-anchor="middle" style="white-space: pre;" direction="ltr">Page:</text><text x="98.5" y="58" font-family="Helvetica, Segoe UI Emoji" font-size="28px" fill="#000000" text-anchor="middle" style="white-space: pre;" direction="ltr"></text><text x="98.5" y="90" font-family="Helvetica, Segoe UI Emoji" font-size="28px" fill="#000000" text-anchor="middle" style="white-space: pre;" direction="ltr">Chitter account </text><text x="98.5" y="122" font-family="Helvetica, Segoe UI Emoji" font-size="28px" fill="#000000" text-anchor="middle" style="white-space: pre;" direction="ltr">creation </text><text x="98.5" y="154" font-family="Helvetica, Segoe UI Emoji" font-size="28px" fill="#000000" text-anchor="middle" style="white-space: pre;" direction="ltr">confirmation</text></g><g stroke-linecap="round"><g transform="translate(725.6279893155197 676.7999836555898) rotate(0 238.3071304113462 114.5741755732306)"><path d="M0 0 C9.69 23.34, 19.61 103.31, 58.14 140.05 C96.66 176.79, 161.42 205.81, 231.17 220.43 C300.91 235.06, 435.71 226.57, 476.61 227.8 M0 0 C9.69 23.34, 19.61 103.31, 58.14 140.05 C96.66 176.79, 161.42 205.81, 231.17 220.43 C300.91 235.06, 435.71 226.57, 476.61 227.8" stroke="#000000" stroke-width="1" fill="none"></path></g><g transform="translate(725.6279893155197 676.7999836555898) rotate(0 238.3071304113462 114.5741755732306)"><path d="M448.54 238.37 C454.66 236.06, 460.79 233.76, 476.61 227.8 M448.54 238.37 C457.97 234.82, 467.4 231.27, 476.61 227.8" stroke="#000000" stroke-width="1" fill="none"></path></g><g transform="translate(725.6279893155197 676.7999836555898) rotate(0 238.3071304113462 114.5741755732306)"><path d="M448.31 217.85 C454.49 220.02, 460.66 222.19, 476.61 227.8 M448.31 217.85 C457.82 221.19, 467.33 224.54, 476.61 227.8" stroke="#000000" stroke-width="1" fill="none"></path></g></g><g transform="translate(649.1720036758702 859.9567311504167) rotate(0 75.5 16)"><text x="0" y="26" font-family="Helvetica, Segoe UI Emoji" font-size="28px" fill="#000000" text-anchor="start" style="white-space: pre;" direction="ltr">Click on link</text></g><g stroke-linecap="round"><g transform="translate(1503.2183956878916 900.1611791571968) rotate(0 189.83242379215778 -70.94540931325457)"><path d="M0 0 C63.28 -23.65, 316.39 -118.24, 379.66 -141.89 M0 0 C63.28 -23.65, 316.39 -118.24, 379.66 -141.89" stroke="#000000" stroke-width="1" fill="none"></path></g><g transform="translate(1503.2183956878916 900.1611791571968) rotate(0 189.83242379215778 -70.94540931325457)"><path d="M356.85 -122.41 C362.76 -127.46, 368.67 -132.51, 379.66 -141.89 M356.85 -122.41 C363.92 -128.44, 370.98 -134.48, 379.66 -141.89" stroke="#000000" stroke-width="1" fill="none"></path></g><g transform="translate(1503.2183956878916 900.1611791571968) rotate(0 189.83242379215778 -70.94540931325457)"><path d="M349.67 -141.63 C357.44 -141.7, 365.21 -141.77, 379.66 -141.89 M349.67 -141.63 C358.96 -141.71, 368.25 -141.79, 379.66 -141.89" stroke="#000000" stroke-width="1" fill="none"></path></g></g><g transform="translate(1510.1250455627514 909.9385761366742) rotate(0 257.5 32)"><text x="0" y="26" font-family="Helvetica, Segoe UI Emoji" font-size="28px" fill="#000000" text-anchor="start" style="white-space: pre;" direction="ltr">Submit form create new account</text><text x="0" y="58" font-family="Helvetica, Segoe UI Emoji" font-size="28px" fill="#000000" text-anchor="start" style="white-space: pre;" direction="ltr">(Check the account doesn't already exist)</text></g><g stroke-linecap="round"><g transform="translate(1891.500968893396 678.6703903418608) rotate(0 -513.3192601827167 -62.847449743787024)"><path d="M0 0 C-115.2 -18.99, -520.08 -93.41, -691.18 -113.93 C-862.29 -134.44, -970.73 -121.57, -1026.64 -123.09 M0 0 C-115.2 -18.99, -520.08 -93.41, -691.18 -113.93 C-862.29 -134.44, -970.73 -121.57, -1026.64 -123.09" stroke="#000000" stroke-width="1" fill="none"></path></g><g transform="translate(1891.500968893396 678.6703903418608) rotate(0 -513.3192601827167 -62.847449743787024)"><path d="M-998.65 -133.88 C-1009.56 -129.68, -1020.48 -125.47, -1026.64 -123.09 M-998.65 -133.88 C-1009.51 -129.7, -1020.38 -125.51, -1026.64 -123.09" stroke="#000000" stroke-width="1" fill="none"></path></g><g transform="translate(1891.500968893396 678.6703903418608) rotate(0 -513.3192601827167 -62.847449743787024)"><path d="M-998.26 -113.37 C-1009.33 -117.16, -1020.39 -120.95, -1026.64 -123.09 M-998.26 -113.37 C-1009.28 -117.14, -1020.29 -120.92, -1026.64 -123.09" stroke="#000000" stroke-width="1" fill="none"></path></g></g><g transform="translate(902.6654458871498 600.8781172430013) rotate(0 216.5 16)"><text x="0" y="26" font-family="Helvetica, Segoe UI Emoji" font-size="28px" fill="#000000" text-anchor="start" style="white-space: pre;" direction="ltr">Click on link to return to main page</text></g><g stroke-linecap="round" transform="translate(64.95185569942305 70.78128987163484) rotate(0 117.5 104)"><path d="M0 0 C55.13 0, 110.26 0, 235 0 M0 0 C76.85 0, 153.7 0, 235 0 M235 0 C235 58.83, 235 117.65, 235 208 M235 0 C235 70.44, 235 140.88, 235 208 M235 208 C159.72 208, 84.45 208, 0 208 M235 208 C142.8 208, 50.61 208, 0 208 M0 208 C0 162.63, 0 117.26, 0 0 M0 208 C0 128.51, 0 49.02, 0 0" stroke="#000000" stroke-width="1" fill="none"></path></g><g transform="translate(87.45185569942305 110.78128987163484) rotate(0 95 64)"><text x="95" y="26" font-family="Helvetica, Segoe UI Emoji" font-size="28px" fill="#000000" text-anchor="middle" style="white-space: pre;" direction="ltr">Page:</text><text x="95" y="58" font-family="Helvetica, Segoe UI Emoji" font-size="28px" fill="#000000" text-anchor="middle" style="white-space: pre;" direction="ltr"></text><text x="95" y="90" font-family="Helvetica, Segoe UI Emoji" font-size="28px" fill="#000000" text-anchor="middle" style="white-space: pre;" direction="ltr">Sign in form to </text><text x="95" y="122" font-family="Helvetica, Segoe UI Emoji" font-size="28px" fill="#000000" text-anchor="middle" style="white-space: pre;" direction="ltr">Chitter account</text></g><g stroke-linecap="round" transform="translate(10 720.6610204486445) rotate(0 113 95.5)"><path d="M0 0 C73.71 0, 147.41 0, 226 0 M0 0 C89.68 0, 179.37 0, 226 0 M226 0 C226 71.95, 226 143.89, 226 191 M226 0 C226 41.63, 226 83.26, 226 191 M226 191 C178.63 191, 131.27 191, 0 191 M226 191 C163.86 191, 101.72 191, 0 191 M0 191 C0 138.24, 0 85.48, 0 0 M0 191 C0 145.24, 0 99.49, 0 0" stroke="#000000" stroke-width="1" fill="none"></path></g><g transform="translate(23.5 768.1610204486445) rotate(0 99.5 48)"><text x="99.5" y="26" font-family="Helvetica, Segoe UI Emoji" font-size="28px" fill="#000000" text-anchor="middle" style="white-space: pre;" direction="ltr">Page:</text><text x="99.5" y="58" font-family="Helvetica, Segoe UI Emoji" font-size="28px" fill="#000000" text-anchor="middle" style="white-space: pre;" direction="ltr">Confirmation of </text><text x="99.5" y="90" font-family="Helvetica, Segoe UI Emoji" font-size="28px" fill="#000000" text-anchor="middle" style="white-space: pre;" direction="ltr">sign out</text></g><g stroke-linecap="round"><g transform="translate(602.6175762484332 675.2620937135457) rotate(0 -172.75630348972106 75.97626410459088)"><path d="M0 0 C-22.96 22.51, -80.18 109.77, -137.77 135.06 C-195.35 160.34, -310.89 148.94, -345.51 151.71 M0 0 C-22.96 22.51, -80.18 109.77, -137.77 135.06 C-195.35 160.34, -310.89 148.94, -345.51 151.71" stroke="#000000" stroke-width="1" fill="none"></path></g><g transform="translate(602.6175762484332 675.2620937135457) rotate(0 -172.75630348972106 75.97626410459088)"><path d="M-317.33 141.43 C-326.81 144.89, -336.3 148.35, -345.51 151.71 M-317.33 141.43 C-328.57 145.53, -339.82 149.63, -345.51 151.71" stroke="#000000" stroke-width="1" fill="none"></path></g><g transform="translate(602.6175762484332 675.2620937135457) rotate(0 -172.75630348972106 75.97626410459088)"><path d="M-317.31 161.95 C-326.8 158.5, -336.29 155.06, -345.51 151.71 M-317.31 161.95 C-328.56 157.86, -339.81 153.78, -345.51 151.71" stroke="#000000" stroke-width="1" fill="none"></path></g></g><g transform="translate(294.0212553102423 841.7934258668704) rotate(0 124.5 16)"><text x="0" y="26" font-family="Helvetica, Segoe UI Emoji" font-size="28px" fill="#000000" text-anchor="start" style="white-space: pre;" direction="ltr">Click on signout link</text></g><g stroke-linecap="round"><g transform="translate(184.74101280681975 708.1881788240855) rotate(0 196.70443650616056 -68.20821706761888)"><path d="M0 0 C8.52 -13.52, 22.31 -59.11, 51.12 -81.12 C79.93 -103.13, 115.81 -123.27, 172.86 -132.06 C229.91 -140.85, 356.65 -133.56, 393.41 -133.86 M0 0 C8.52 -13.52, 22.31 -59.11, 51.12 -81.12 C79.93 -103.13, 115.81 -123.27, 172.86 -132.06 C229.91 -140.85, 356.65 -133.56, 393.41 -133.86" stroke="#000000" stroke-width="1" fill="none"></path></g><g transform="translate(184.74101280681975 708.1881788240855) rotate(0 196.70443650616056 -68.20821706761888)"><path d="M365 -124.21 C374.63 -127.48, 384.25 -130.75, 393.41 -133.86 M365 -124.21 C373.17 -126.98, 381.34 -129.76, 393.41 -133.86" stroke="#000000" stroke-width="1" fill="none"></path></g><g transform="translate(184.74101280681975 708.1881788240855) rotate(0 196.70443650616056 -68.20821706761888)"><path d="M365.45 -144.72 C374.92 -141.04, 384.4 -137.36, 393.41 -133.86 M365.45 -144.72 C373.49 -141.6, 381.53 -138.48, 393.41 -133.86" stroke="#000000" stroke-width="1" fill="none"></path></g></g><g transform="translate(333.32750545061765 591.6230678620466) rotate(0 75.5 16)"><text x="0" y="26" font-family="Helvetica, Segoe UI Emoji" font-size="28px" fill="#000000" text-anchor="start" style="white-space: pre;" direction="ltr">Click on link</text></g><g stroke-linecap="round"><g transform="translate(654.8088502275635 389.81725109208617) rotate(0 -165.16383782989521 -117.92567785329706)"><path d="M0 0 C-8.91 -21.65, -28.73 -95.68, -53.45 -129.88 C-78.17 -164.08, -102.16 -187.53, -148.31 -205.2 C-194.46 -222.86, -299.99 -230.74, -330.33 -235.85 M0 0 C-8.91 -21.65, -28.73 -95.68, -53.45 -129.88 C-78.17 -164.08, -102.16 -187.53, -148.31 -205.2 C-194.46 -222.86, -299.99 -230.74, -330.33 -235.85" stroke="#000000" stroke-width="1" fill="none"></path></g><g transform="translate(654.8088502275635 389.81725109208617) rotate(0 -165.16383782989521 -117.92567785329706)"><path d="M-301.08 -242.51 C-306.94 -241.18, -312.8 -239.84, -330.33 -235.85 M-301.08 -242.51 C-309.25 -240.65, -317.42 -238.79, -330.33 -235.85" stroke="#000000" stroke-width="1" fill="none"></path></g><g transform="translate(654.8088502275635 389.81725109208617) rotate(0 -165.16383782989521 -117.92567785329706)"><path d="M-303.64 -222.15 C-308.99 -224.9, -314.34 -227.64, -330.33 -235.85 M-303.64 -222.15 C-311.1 -225.98, -318.56 -229.81, -330.33 -235.85" stroke="#000000" stroke-width="1" fill="none"></path></g></g><g transform="translate(425.66324886285963 113.24923926782526) rotate(0 75.5 16)"><text x="0" y="26" font-family="Helvetica, Segoe UI Emoji" font-size="28px" fill="#000000" text-anchor="start" style="white-space: pre;" direction="ltr">Click on link</text></g><g stroke-linecap="round"><g transform="translate(203.24418413655928 293.9554447046148) rotate(0 189.38906813318977 78.5570808233795)"><path d="M0 0 C6.2 19.68, -3.98 93.15, 37.21 118.05 C78.39 142.95, 190.18 142.9, 247.11 149.41 C304.04 155.92, 356.83 155.83, 378.78 157.11 M0 0 C6.2 19.68, -3.98 93.15, 37.21 118.05 C78.39 142.95, 190.18 142.9, 247.11 149.41 C304.04 155.92, 356.83 155.83, 378.78 157.11" stroke="#000000" stroke-width="1" fill="none"></path></g><g transform="translate(203.24418413655928 293.9554447046148) rotate(0 189.38906813318977 78.5570808233795)"><path d="M350.23 166.34 C359.92 163.21, 369.61 160.08, 378.78 157.11 M350.23 166.34 C358.35 163.72, 366.47 161.09, 378.78 157.11" stroke="#000000" stroke-width="1" fill="none"></path></g><g transform="translate(203.24418413655928 293.9554447046148) rotate(0 189.38906813318977 78.5570808233795)"><path d="M350.98 145.83 C360.42 149.66, 369.85 153.49, 378.78 157.11 M350.98 145.83 C358.89 149.04, 366.79 152.25, 378.78 157.11" stroke="#000000" stroke-width="1" fill="none"></path></g></g><g transform="translate(140.77260081511008 455.22192840769543) rotate(0 193 16)"><text x="0" y="26" font-family="Helvetica, Segoe UI Emoji" font-size="28px" fill="#000000" text-anchor="start" style="white-space: pre;" direction="ltr">Submit form and get redirected</text></g></svg>