<svg version="1.1" xmlns="http://www.w3.org/2000/svg" viewBox="0 0 2285.290399759498 1524.74694217315" width="2285.290399759498" height="1524.74694217315">
  <!-- svg-source:excalidraw -->
  
  <defs>
    <style>
      @font-face {
        font-family: "Virgil";
        src: url("https://excalidraw.com/Virgil.woff2");
      }
      @font-face {
        font-family: "Cascadia";
        src: url("https://excalidraw.com/Cascadia.woff2");
      }
    </style>
  </defs>
  <rect x="0" y="0" width="2285.290399759498" height="1524.74694217315" fill="#ffffff"></rect><g stroke-linecap="round" transform="translate(285.15959420089274 386.5138076280724) rotate(0 155.647851543534 212.18489832825705)"><path d="M77.82 0 M77.82 0 C113.05 0.56, 146.8 -1.61, 233.47 0 M77.82 0 C118.88 -1.58, 160.82 -1.66, 233.47 0 M233.47 0 C287.22 -0.64, 311.55 26.74, 311.3 77.82 M233.47 0 C286.11 0.08, 311.06 26.31, 311.3 77.82 M311.3 77.82 C310.82 169.99, 309.04 257.88, 311.3 346.55 M311.3 77.82 C312.18 159.39, 312.52 239.41, 311.3 346.55 M311.3 346.55 C310.01 398.69, 285.43 425.51, 233.47 424.37 M311.3 346.55 C309.97 397.18, 284.81 422.7, 233.47 424.37 M233.47 424.37 C190.38 423.73, 144.81 423.31, 77.82 424.37 M233.47 424.37 C178.24 423.38, 121.46 423.22, 77.82 424.37 M77.82 424.37 C25.7 422.74, -0.4 397.93, 0 346.55 M77.82 424.37 C27.3 426.12, -1.1 399.56, 0 346.55 M0 346.55 C-0.03 270.64, -0.12 196.49, 0 77.82 M0 346.55 C2.16 289.4, 2.02 233.79, 0 77.82 M0 77.82 C-1.94 25.17, 27.83 0.05, 77.82 0 M0 77.82 C1.67 28.2, 25.48 -1.34, 77.82 0" stroke="#000000" stroke-width="1" fill="none"></path></g><g transform="translate(358.5919715034856 322.24373067904327) rotate(0 50 11.5)"><text x="0" y="18" font-family="Helvetica, Segoe UI Emoji" font-size="20px" fill="#000000" text-anchor="start" style="white-space: pre;" direction="ltr">Homepage</text></g><g transform="translate(654.6642354939247 169.85872512654504) rotate(0 179 20.5)"><text x="0" y="33" font-family="Helvetica, Segoe UI Emoji" font-size="36px" fill="#000000" text-anchor="start" style="white-space: pre;" direction="ltr">Chitter Site Schematic</text></g><g transform="translate(349.7600968534028 413.6995347955609) rotate(0 68.5 18)"><text x="68.5" y="14" font-family="Helvetica, Segoe UI Emoji" font-size="16px" fill="#000000" text-anchor="middle" style="white-space: pre;" direction="ltr">Welcome to Chitter</text><text x="68.5" y="32" font-family="Helvetica, Segoe UI Emoji" font-size="16px" fill="#000000" text-anchor="middle" style="white-space: pre;" direction="ltr">Doomscroll forever</text></g><g transform="translate(308.96411874089705 626.0730542954866) rotate(0 57.5 18)"><text x="0" y="14" font-family="Helvetica, Segoe UI Emoji" font-size="16px" fill="#000000" text-anchor="start" style="white-space: pre;" direction="ltr">Stage 3</text><text x="0" y="32" font-family="Helvetica, Segoe UI Emoji" font-size="16px" fill="#000000" text-anchor="start" style="white-space: pre;" direction="ltr">Create account:</text></g><g transform="translate(305.19304337743057 532.0843917204661) rotate(0 37 18)"><text x="0" y="14" font-family="Helvetica, Segoe UI Emoji" font-size="16px" fill="#000000" text-anchor="start" style="white-space: pre;" direction="ltr">Stage 2</text><text x="0" y="32" font-family="Helvetica, Segoe UI Emoji" font-size="16px" fill="#000000" text-anchor="start" style="white-space: pre;" direction="ltr">Login link:</text></g><g transform="translate(365.182919630288 716.9738995809691) rotate(0 98.49999999999997 18)"><text x="0" y="14" font-family="Helvetica, Segoe UI Emoji" font-size="16px" fill="#000000" text-anchor="start" style="white-space: pre;" direction="ltr">Stage 4</text><text x="0" y="32" font-family="Helvetica, Segoe UI Emoji" font-size="16px" fill="#000000" text-anchor="start" style="white-space: pre;" direction="ltr">find password? - link/button</text></g><g stroke-linecap="round" transform="translate(295.8739622410963 897.2964715007254) rotate(0 131.2887325253447 140.45520737883498)"><path d="M65.64 0 M65.64 0 C94.7 1.5, 127.17 0.45, 196.93 0 M65.64 0 C110.84 -0.2, 154.57 -0.62, 196.93 0 M196.93 0 C240.84 0.92, 264.35 20.52, 262.58 65.64 M196.93 0 C242.06 2.06, 260.69 19.89, 262.58 65.64 M262.58 65.64 C260.39 108.95, 259.91 150.11, 262.58 215.27 M262.58 65.64 C262.86 120.29, 264.39 176.44, 262.58 215.27 M262.58 215.27 C263.02 257.74, 241.99 281.65, 196.93 280.91 M262.58 215.27 C261.52 258.47, 242.5 281.77, 196.93 280.91 M196.93 280.91 C146.87 282.95, 96.04 279.92, 65.64 280.91 M196.93 280.91 C166.66 282.18, 134.42 281.43, 65.64 280.91 M65.64 280.91 C19.89 281.92, -1.14 257.93, 0 215.27 M65.64 280.91 C22.71 282.97, 1.59 257.84, 0 215.27 M0 215.27 C-2.38 183.13, -1.72 148.23, 0 65.64 M0 215.27 C1.05 180.31, 0.6 147.55, 0 65.64 M0 65.64 C-0.32 21.48, 21.15 -0.45, 65.64 0 M0 65.64 C1.86 22.96, 22.83 -1.85, 65.64 0" stroke="#c92a2a" stroke-width="1" fill="none"></path></g><g transform="translate(355.0577273511705 841.094253240185) rotate(0 69 11.5)"><text x="69" y="18" font-family="Helvetica, Segoe UI Emoji" font-size="20px" fill="#c92a2a" text-anchor="middle" style="white-space: pre;" direction="ltr">Create account</text></g><g transform="translate(319.1267215768094 992.068364623356) rotate(0 57 63)"><text x="0" y="14" font-family="Helvetica, Segoe UI Emoji" font-size="16px" fill="#c92a2a" text-anchor="start" style="white-space: pre;" direction="ltr">Forms:</text><text x="0" y="32" font-family="Helvetica, Segoe UI Emoji" font-size="16px" fill="#c92a2a" text-anchor="start" style="white-space: pre;" direction="ltr">First name [   ]</text><text x="0" y="50" font-family="Helvetica, Segoe UI Emoji" font-size="16px" fill="#c92a2a" text-anchor="start" style="white-space: pre;" direction="ltr">Last name [  ]</text><text x="0" y="68" font-family="Helvetica, Segoe UI Emoji" font-size="16px" fill="#c92a2a" text-anchor="start" style="white-space: pre;" direction="ltr">Email [   ]</text><text x="0" y="86" font-family="Helvetica, Segoe UI Emoji" font-size="16px" fill="#c92a2a" text-anchor="start" style="white-space: pre;" direction="ltr">Username [   ]</text><text x="0" y="104" font-family="Helvetica, Segoe UI Emoji" font-size="16px" fill="#c92a2a" text-anchor="start" style="white-space: pre;" direction="ltr">Password [   ]</text><text x="0" y="122" font-family="Helvetica, Segoe UI Emoji" font-size="16px" fill="#c92a2a" text-anchor="start" style="white-space: pre;" direction="ltr">Confirm p/w [   ]</text></g><g transform="translate(284.7578410279753 915.9880264918577) rotate(0 137 18)"><text x="137" y="14" font-family="Helvetica, Segoe UI Emoji" font-size="16px" fill="#c92a2a" text-anchor="middle" style="white-space: pre;" direction="ltr">Join chitter today...</text><text x="137" y="32" font-family="Helvetica, Segoe UI Emoji" font-size="16px" fill="#c92a2a" text-anchor="middle" style="white-space: pre;" direction="ltr">The best worst decision you can make</text></g><g stroke-linecap="round" transform="translate(1001.1905830058417 454.78151310041665) rotate(0 191.15867816692787 251.74753991783402)"><path d="M95.58 0 M95.58 0 C169.27 0.3, 245.43 2.13, 286.74 0 M95.58 0 C170.97 -2.27, 247.69 -1.82, 286.74 0 M286.74 0 C348.64 -1.5, 383.51 32.61, 382.32 95.58 M286.74 0 C348.55 -1.47, 380.42 31.32, 382.32 95.58 M382.32 95.58 C382.15 193.84, 382.09 293.53, 382.32 407.92 M382.32 95.58 C380.63 193.07, 380.13 290.48, 382.32 407.92 M382.32 407.92 C383.06 471.14, 350.55 505.32, 286.74 503.5 M382.32 407.92 C383.45 470.39, 350.36 503.2, 286.74 503.5 M286.74 503.5 C242.48 503.67, 201.37 501.99, 95.58 503.5 M286.74 503.5 C212.27 501.54, 135.57 502.54, 95.58 503.5 M95.58 503.5 C30.47 504.09, 1.83 471.43, 0 407.92 M95.58 503.5 C30.6 505.51, 0.45 470.52, 0 407.92 M0 407.92 C-2.37 303.47, 0 197.18, 0 95.58 M0 407.92 C-0.13 340.8, -0.08 274.57, 0 95.58 M0 95.58 C0.87 31.17, 33.3 -1.18, 95.58 0 M0 95.58 C2.16 33.35, 33.03 0.71, 95.58 0" stroke="#2b8a3e" stroke-width="1" fill="none"></path></g><g transform="translate(1157.4326553824512 353.90537668046994) rotate(0 24 11.5)"><text x="24" y="18" font-family="Helvetica, Segoe UI Emoji" font-size="20px" fill="#2b8a3e" text-anchor="middle" style="white-space: pre;" direction="ltr">Feed</text></g><g transform="translate(308.26788213583586 469.91653863579546) rotate(0 97.50000000000003 27)"><text x="0" y="14" font-family="Helvetica, Segoe UI Emoji" font-size="16px" fill="#000000" text-anchor="start" style="white-space: pre;" direction="ltr">Stage 1 - Welcome copy &amp; </text><text x="0" y="32" font-family="Helvetica, Segoe UI Emoji" font-size="16px" fill="#000000" text-anchor="start" style="white-space: pre;" direction="ltr">link to feed</text><text x="0" y="50" font-family="Helvetica, Segoe UI Emoji" font-size="16px" fill="#000000" text-anchor="start" style="white-space: pre;" direction="ltr">link to make new peep</text></g><g transform="translate(1142.3783038237634 472.252090741451) rotate(0 57 9)"><text x="0" y="14" font-family="Helvetica, Segoe UI Emoji" font-size="16px" fill="#2b8a3e" text-anchor="start" style="white-space: pre;" direction="ltr">Peep the peeps</text></g><g transform="translate(1501.286977794008 633.8948997196503) rotate(0 61.5 18)"><text x="0" y="14" font-family="Helvetica, Segoe UI Emoji" font-size="16px" fill="#2b8a3e" text-anchor="start" style="white-space: pre;" direction="ltr">Create new peep</text><text x="0" y="32" font-family="Helvetica, Segoe UI Emoji" font-size="16px" fill="#2b8a3e" text-anchor="start" style="white-space: pre;" direction="ltr">(Feed the feed)</text></g><g stroke-linecap="round"><g transform="translate(390.60506113885316 497.07029845110173) rotate(0 302.7775104376017 4.303951196807219)"><path d="M-0.2 -0.4 C81.81 -1.91, 390.56 -12.86, 491.82 -9.55 C593.07 -6.23, 587.89 14.47, 607.32 19.49 M-1.76 -1.65 C80.1 -3.48, 389.42 -15.06, 490.8 -11.34 C592.19 -7.62, 586.81 15.71, 606.53 20.68" stroke="#000000" stroke-width="1" fill="none"></path></g><g transform="translate(390.60506113885316 497.07029845110173) rotate(0 302.7775104376017 4.303951196807219)"><path d="M576.33 15.24 C586.23 16.89, 592.98 20.11, 607.99 21.27 M576.21 15.15 C585.96 16.97, 595.12 18.69, 606.35 21.13" stroke="#000000" stroke-width="1" fill="none"></path></g><g transform="translate(390.60506113885316 497.07029845110173) rotate(0 302.7775104376017 4.303951196807219)"><path d="M586.6 -2.52 C593.58 4.04, 597.48 12.21, 607.99 21.27 M586.48 -2.61 C592.93 4.64, 598.94 11.8, 606.35 21.13" stroke="#000000" stroke-width="1" fill="none"></path></g></g><g stroke-linecap="round" transform="translate(1496.096036162638 696.1131926371543) rotate(0 82.48162026254181 21.134903306006834)"><path d="M10.57 0 M10.57 0 C61.29 1.1, 114.13 0.66, 154.4 0 M10.57 0 C42.56 -1.65, 75.2 -0.63, 154.4 0 M154.4 0 C160.64 -1.91, 166.26 1.98, 164.96 10.57 M154.4 0 C161.38 0.7, 165.71 2.84, 164.96 10.57 M164.96 10.57 C164.64 15.2, 164.23 18.77, 164.96 31.7 M164.96 10.57 C165.08 15.78, 164.85 22.4, 164.96 31.7 M164.96 31.7 C164.31 38.64, 159.74 42.92, 154.4 42.27 M164.96 31.7 C163.57 36.62, 160.42 42.36, 154.4 42.27 M154.4 42.27 C98.61 44.47, 42.96 45.16, 10.57 42.27 M154.4 42.27 C118.83 41.64, 83.48 41.69, 10.57 42.27 M10.57 42.27 C4.61 41.37, 0.95 39.76, 0 31.7 M10.57 42.27 C2.68 42.93, 1.58 38.81, 0 31.7 M0 31.7 C1.65 26.21, 1.31 20.12, 0 10.57 M0 31.7 C0.73 25.68, -0.11 19.62, 0 10.57 M0 10.57 C0.36 3.42, 3.67 1.38, 10.57 0 M0 10.57 C0 1.93, 1.83 -2.07, 10.57 0" stroke="#2b8a3e" stroke-width="1" fill="none"></path></g><g stroke-linecap="round" transform="translate(1689.0559558787345 695.5706304982014) rotate(0 18.47493036202866 20.007500947120604)"><path d="M36.95 20.01 C36.95 21.17, 36.85 22.34, 36.67 23.48 C36.48 24.62, 36.2 25.76, 35.84 26.85 C35.47 27.94, 35.01 29.01, 34.47 30.01 C33.94 31.01, 33.31 31.98, 32.63 32.87 C31.94 33.76, 31.17 34.59, 30.35 35.33 C29.53 36.08, 28.64 36.76, 27.71 37.33 C26.79 37.91, 25.8 38.41, 24.79 38.81 C23.79 39.2, 22.74 39.51, 21.68 39.71 C20.63 39.91, 19.54 40.02, 18.47 40.02 C17.41 40.02, 16.32 39.91, 15.27 39.71 C14.21 39.51, 13.16 39.2, 12.16 38.81 C11.15 38.41, 10.16 37.91, 9.24 37.33 C8.31 36.76, 7.42 36.08, 6.6 35.33 C5.78 34.59, 5.01 33.76, 4.32 32.87 C3.63 31.98, 3.01 31.01, 2.48 30.01 C1.94 29.01, 1.48 27.94, 1.11 26.85 C0.75 25.76, 0.47 24.62, 0.28 23.48 C0.09 22.34, 0 21.17, 0 20.01 C0 18.85, 0.09 17.67, 0.28 16.53 C0.47 15.39, 0.75 14.25, 1.11 13.16 C1.48 12.08, 1.94 11.01, 2.48 10 C3.01 9, 3.63 8.03, 4.32 7.15 C5.01 6.26, 5.78 5.43, 6.6 4.68 C7.42 3.94, 8.31 3.26, 9.24 2.68 C10.16 2.1, 11.15 1.6, 12.16 1.21 C13.16 0.81, 14.21 0.51, 15.27 0.3 C16.32 0.1, 17.41 0, 18.47 0 C19.54 0, 20.63 0.1, 21.68 0.3 C22.74 0.51, 23.79 0.81, 24.79 1.21 C25.8 1.6, 26.79 2.1, 27.71 2.68 C28.64 3.26, 29.53 3.94, 30.35 4.68 C31.17 5.43, 31.94 6.26, 32.63 7.15 C33.31 8.03, 33.94 9, 34.47 10 C35.01 11.01, 35.47 12.08, 35.84 13.16 C36.2 14.25, 36.48 15.39, 36.67 16.53 C36.85 17.67, 36.9 19.43, 36.95 20.01 C37 20.59, 37 19.43, 36.95 20.01" stroke="#2b8a3e" stroke-width="1" fill="none"></path></g><g transform="translate(405.78535866160763 356.1726744904577) rotate(0 5.5 9.5)"><text x="0" y="15" font-family="Cascadia, Segoe UI Emoji" font-size="16px" fill="#000000" text-anchor="start" style="white-space: pre;" direction="ltr">/</text></g><g transform="translate(388.88455398205105 875.3924663268333) rotate(0 43 9.5)"><text x="0" y="15" font-family="Cascadia, Segoe UI Emoji" font-size="16px" fill="#c92a2a" text-anchor="start" style="white-space: pre;" direction="ltr">/new_user</text></g><g stroke-linecap="round" transform="translate(1077.0294720104575 504.33989611471884) rotate(0 126.57541282491218 127.40686861693743)"><path d="M63.29 0 M63.29 0 C101.82 0, 140.36 0, 189.86 0 M63.29 0 C92.16 0, 121.03 0, 189.86 0 M189.86 0 C232.05 0, 253.15 21.1, 253.15 63.29 M189.86 0 C232.05 0, 253.15 21.1, 253.15 63.29 M253.15 63.29 C253.15 100.96, 253.15 138.63, 253.15 191.53 M253.15 63.29 C253.15 103.77, 253.15 144.26, 253.15 191.53 M253.15 191.53 C253.15 233.72, 232.05 254.81, 189.86 254.81 M253.15 191.53 C253.15 233.72, 232.05 254.81, 189.86 254.81 M189.86 254.81 C146.32 254.81, 102.79 254.81, 63.29 254.81 M189.86 254.81 C147.76 254.81, 105.67 254.81, 63.29 254.81 M63.29 254.81 C21.1 254.81, 0 233.72, 0 191.53 M63.29 254.81 C21.1 254.81, 0 233.72, 0 191.53 M0 191.53 C0 153.05, 0 114.57, 0 63.29 M0 191.53 C0 154, 0 116.48, 0 63.29 M0 63.29 C0 21.1, 21.1 0, 63.29 0 M0 63.29 C0 21.1, 21.1 0, 63.29 0" stroke="#2b8a3e" stroke-width="1" fill="none"></path></g><g stroke-linecap="round" transform="translate(1103.8491420355438 534.1886153042319) rotate(0 103.48314863460837 23.58541653098186)"><path d="M11.79 0 M11.79 0 C64.46 0, 117.12 0, 195.17 0 M11.79 0 C49.14 0, 86.49 0, 195.17 0 M195.17 0 C203.04 0, 206.97 3.93, 206.97 11.79 M195.17 0 C203.04 0, 206.97 3.93, 206.97 11.79 M206.97 11.79 C206.97 20.25, 206.97 28.71, 206.97 35.38 M206.97 11.79 C206.97 18.73, 206.97 25.66, 206.97 35.38 M206.97 35.38 C206.97 43.24, 203.04 47.17, 195.17 47.17 M206.97 35.38 C206.97 43.24, 203.04 47.17, 195.17 47.17 M195.17 47.17 C143.87 47.17, 92.57 47.17, 11.79 47.17 M195.17 47.17 C127.43 47.17, 59.69 47.17, 11.79 47.17 M11.79 47.17 C3.93 47.17, 0 43.24, 0 35.38 M11.79 47.17 C3.93 47.17, 0 43.24, 0 35.38 M0 35.38 C0 29.48, 0 23.59, 0 11.79 M0 35.38 C0 30.33, 0 25.27, 0 11.79 M0 11.79 C0 3.93, 3.93 0, 11.79 0 M0 11.79 C0 3.93, 3.93 0, 11.79 0" stroke="#2b8a3e" stroke-width="1" fill="none"></path></g><g stroke-linecap="round" transform="translate(1109.7188211815014 595.8816736697281) rotate(0 98.75269237344025 25.08201331557541)"><path d="M12.54 0 M12.54 0 C50.65 0, 88.77 0, 184.96 0 M12.54 0 C78.24 0, 143.95 0, 184.96 0 M184.96 0 C193.33 0, 197.51 4.18, 197.51 12.54 M184.96 0 C193.33 0, 197.51 4.18, 197.51 12.54 M197.51 12.54 C197.51 22.45, 197.51 32.35, 197.51 37.62 M197.51 12.54 C197.51 22.37, 197.51 32.2, 197.51 37.62 M197.51 37.62 C197.51 45.98, 193.33 50.16, 184.96 50.16 M197.51 37.62 C197.51 45.98, 193.33 50.16, 184.96 50.16 M184.96 50.16 C121.53 50.16, 58.1 50.16, 12.54 50.16 M184.96 50.16 C126.28 50.16, 67.59 50.16, 12.54 50.16 M12.54 50.16 C4.18 50.16, 0 45.98, 0 37.62 M12.54 50.16 C4.18 50.16, 0 45.98, 0 37.62 M0 37.62 C0 32.15, 0 26.67, 0 12.54 M0 37.62 C0 28.19, 0 18.77, 0 12.54 M0 12.54 C0 4.18, 4.18 0, 12.54 0 M0 12.54 C0 4.18, 4.18 0, 12.54 0" stroke="#2b8a3e" stroke-width="1" fill="none"></path></g><g stroke-linecap="round" transform="translate(1115.073834629637 680.0654102605658) rotate(0 97.39593241028058 23.926675113804777)"><path d="M11.96 0 M11.96 0 C47.31 0, 82.67 0, 182.83 0 M11.96 0 C62.24 0, 112.52 0, 182.83 0 M182.83 0 C190.8 0, 194.79 3.99, 194.79 11.96 M182.83 0 C190.8 0, 194.79 3.99, 194.79 11.96 M194.79 11.96 C194.79 16.85, 194.79 21.73, 194.79 35.89 M194.79 11.96 C194.79 17.5, 194.79 23.03, 194.79 35.89 M194.79 35.89 C194.79 43.87, 190.8 47.85, 182.83 47.85 M194.79 35.89 C194.79 43.87, 190.8 47.85, 182.83 47.85 M182.83 47.85 C122.11 47.85, 61.39 47.85, 11.96 47.85 M182.83 47.85 C144.75 47.85, 106.68 47.85, 11.96 47.85 M11.96 47.85 C3.99 47.85, 0 43.87, 0 35.89 M11.96 47.85 C3.99 47.85, 0 43.87, 0 35.89 M0 35.89 C0 30.62, 0 25.36, 0 11.96 M0 35.89 C0 30.21, 0 24.54, 0 11.96 M0 11.96 C0 3.99, 3.99 0, 11.96 0 M0 11.96 C0 3.99, 3.99 0, 11.96 0" stroke="#2b8a3e" stroke-width="1" fill="none"></path></g><g stroke-linecap="round"><g transform="translate(394.21004524232836 557.3701795321007) rotate(0 138.60849662206982 37.990222392726565)"><path d="M0 0 C46.2 12.66, 231.01 63.32, 277.22 75.98 M0 0 C46.2 12.66, 231.01 63.32, 277.22 75.98" stroke="#000000" stroke-width="1" fill="none"></path></g><g transform="translate(394.21004524232836 557.3701795321007) rotate(0 138.60849662206982 37.990222392726565)"><path d="M247.32 78.42 C253.97 77.88, 260.62 77.34, 277.22 75.98 M247.32 78.42 C258.65 77.5, 269.97 76.57, 277.22 75.98" stroke="#000000" stroke-width="1" fill="none"></path></g><g transform="translate(394.21004524232836 557.3701795321007) rotate(0 138.60849662206982 37.990222392726565)"><path d="M252.74 58.63 C258.18 62.49, 263.63 66.35, 277.22 75.98 M252.74 58.63 C262.01 65.21, 271.29 71.78, 277.22 75.98" stroke="#000000" stroke-width="1" fill="none"></path></g></g><g stroke-linecap="round" transform="translate(675.2014900143452 575.1093846966758) rotate(0 118.42614525853884 88.95962307322657)"><path d="M44.48 0 M44.48 0 C85.83 0, 127.17 0, 192.37 0 M44.48 0 C83.69 0, 122.9 0, 192.37 0 M192.37 0 C222.03 0, 236.85 14.83, 236.85 44.48 M192.37 0 C222.03 0, 236.85 14.83, 236.85 44.48 M236.85 44.48 C236.85 78.26, 236.85 112.04, 236.85 133.44 M236.85 44.48 C236.85 71.03, 236.85 97.58, 236.85 133.44 M236.85 133.44 C236.85 163.09, 222.03 177.92, 192.37 177.92 M236.85 133.44 C236.85 163.09, 222.03 177.92, 192.37 177.92 M192.37 177.92 C150.15 177.92, 107.93 177.92, 44.48 177.92 M192.37 177.92 C134.73 177.92, 77.08 177.92, 44.48 177.92 M44.48 177.92 C14.83 177.92, 0 163.09, 0 133.44 M44.48 177.92 C14.83 177.92, 0 163.09, 0 133.44 M0 133.44 C0 109.98, 0 86.51, 0 44.48 M0 133.44 C0 100.27, 0 67.11, 0 44.48 M0 44.48 C0 14.83, 14.83 0, 44.48 0 M0 44.48 C0 14.83, 14.83 0, 44.48 0" stroke="#862e9c" stroke-width="1" fill="none"></path></g><g transform="translate(731.7898596476507 526.0018299113694) rotate(0 50.5 11.5)"><text x="50.5" y="18" font-family="Helvetica, Segoe UI Emoji" font-size="20px" fill="#862e9c" text-anchor="middle" style="white-space: pre;" direction="ltr">Login page</text></g><g stroke-linecap="round"><g transform="translate(350.3439744799953 666.24469376763) rotate(0 -5.42531057277472 116.14935436258662)"><path d="M0 0 C-1.81 38.72, -9.04 193.58, -10.85 232.3 M0 0 C-1.81 38.72, -9.04 193.58, -10.85 232.3" stroke="#000000" stroke-width="1" fill="none"></path></g><g transform="translate(350.3439744799953 666.24469376763) rotate(0 -5.42531057277472 116.14935436258662)"><path d="M-19.78 203.66 C-16.95 212.73, -14.13 221.8, -10.85 232.3 M-19.78 203.66 C-17.46 211.11, -15.14 218.55, -10.85 232.3" stroke="#000000" stroke-width="1" fill="none"></path></g><g transform="translate(350.3439744799953 666.24469376763) rotate(0 -5.42531057277472 116.14935436258662)"><path d="M0.71 204.62 C-2.95 213.39, -6.61 222.15, -10.85 232.3 M0.71 204.62 C-2.29 211.81, -5.3 219.01, -10.85 232.3" stroke="#000000" stroke-width="1" fill="none"></path></g></g><g stroke-linecap="round"><g transform="translate(915.0120885897618 672.7230583101345) rotate(0 42.55163607542954 -21.380317840326825)"><path d="M0 0 C14.18 -7.13, 70.92 -35.63, 85.1 -42.76 M0 0 C14.18 -7.13, 70.92 -35.63, 85.1 -42.76" stroke="#000000" stroke-width="1" fill="none"></path></g><g transform="translate(915.0120885897618 672.7230583101345) rotate(0 42.55163607542954 -21.380317840326825)"><path d="M64.52 -20.94 C70.12 -26.87, 75.71 -32.8, 85.1 -42.76 M64.52 -20.94 C72.13 -29, 79.73 -37.07, 85.1 -42.76" stroke="#000000" stroke-width="1" fill="none"></path></g><g transform="translate(915.0120885897618 672.7230583101345) rotate(0 42.55163607542954 -21.380317840326825)"><path d="M55.31 -39.27 C63.41 -40.22, 71.51 -41.17, 85.1 -42.76 M55.31 -39.27 C66.32 -40.56, 77.33 -41.85, 85.1 -42.76" stroke="#000000" stroke-width="1" fill="none"></path></g></g><g transform="translate(1097.451272440001 793.3239946501756) rotate(0 80.5 18)"><text x="0" y="14" font-family="Helvetica, Segoe UI Emoji" font-size="16px" fill="#2b8a3e" text-anchor="start" style="white-space: pre;" direction="ltr">Link: Create new peep</text><text x="0" y="32" font-family="Helvetica, Segoe UI Emoji" font-size="16px" fill="#2b8a3e" text-anchor="start" style="white-space: pre;" direction="ltr">Link: Logout</text></g><g stroke-linecap="round"><g transform="translate(1257.9557811431573 803.6861250289819) rotate(0 117.24874207508242 -41.79596113031073)"><path d="M0 0 C39.08 -13.93, 195.41 -69.66, 234.5 -83.59 M0 0 C39.08 -13.93, 195.41 -69.66, 234.5 -83.59" stroke="#2b8a3e" stroke-width="1" fill="none"></path></g><g transform="translate(1257.9557811431573 803.6861250289819) rotate(0 117.24874207508242 -41.79596113031073)"><path d="M211.39 -64.46 C216.38 -68.6, 221.38 -72.73, 234.5 -83.59 M211.39 -64.46 C217.71 -69.7, 224.04 -74.93, 234.5 -83.59" stroke="#2b8a3e" stroke-width="1" fill="none"></path></g><g transform="translate(1257.9557811431573 803.6861250289819) rotate(0 117.24874207508242 -41.79596113031073)"><path d="M204.5 -83.79 C210.98 -83.75, 217.46 -83.7, 234.5 -83.59 M204.5 -83.79 C212.71 -83.74, 220.92 -83.68, 234.5 -83.59" stroke="#2b8a3e" stroke-width="1" fill="none"></path></g></g><g stroke-linecap="round" transform="translate(1473.9518569532704 587.9089653585943) rotate(0 126.99279559455113 158.88611114952636)"><path d="M63.5 0 M63.5 0 C114.18 0, 164.85 0, 190.49 0 M63.5 0 C106.04 0, 148.59 0, 190.49 0 M190.49 0 C232.82 0, 253.99 21.17, 253.99 63.5 M190.49 0 C232.82 0, 253.99 21.17, 253.99 63.5 M253.99 63.5 C253.99 126.44, 253.99 189.39, 253.99 254.28 M253.99 63.5 C253.99 134.73, 253.99 205.96, 253.99 254.28 M253.99 254.28 C253.99 296.61, 232.82 317.77, 190.49 317.77 M253.99 254.28 C253.99 296.61, 232.82 317.77, 190.49 317.77 M190.49 317.77 C140.65 317.77, 90.8 317.77, 63.5 317.77 M190.49 317.77 C140.45 317.77, 90.41 317.77, 63.5 317.77 M63.5 317.77 C21.17 317.77, 0 296.61, 0 254.28 M63.5 317.77 C21.17 317.77, 0 296.61, 0 254.28 M0 254.28 C0 179.23, 0 104.18, 0 63.5 M0 254.28 C0 204.35, 0 154.43, 0 63.5 M0 63.5 C0 21.17, 21.17 0, 63.5 0 M0 63.5 C0 21.17, 21.17 0, 63.5 0" stroke="#2b8a3e" stroke-width="1" fill="none"></path></g><g transform="translate(1689.536342051437 707.2009613741027) rotate(0 18.5 9)"><text x="0" y="14" font-family="Helvetica, Segoe UI Emoji" font-size="16px" fill="#2b8a3e" text-anchor="start" style="white-space: pre;" direction="ltr">send</text></g><g transform="translate(1525.5645284356012 752.390043866656) rotate(0 53.5 9)"><text x="0" y="14" font-family="Helvetica, Segoe UI Emoji" font-size="16px" fill="#2b8a3e" text-anchor="start" style="white-space: pre;" direction="ltr">max 140 chars</text></g><g transform="translate(106.61272011906209 1129.2846753613014) rotate(0 33 18)"><text x="0" y="14" font-family="Helvetica, Segoe UI Emoji" font-size="16px" fill="#c92a2a" text-anchor="start" style="white-space: pre;" direction="ltr">Masked?</text><text x="0" y="32" font-family="Helvetica, Segoe UI Emoji" font-size="16px" fill="#c92a2a" text-anchor="start" style="white-space: pre;" direction="ltr">8+ chars</text></g><g stroke-linecap="round" transform="translate(413.9367401705974 986.0822771559813) rotate(0 77.1599012956998 72.49449732875178)"><path d="M97.08 18.25 M97.08 18.25 C112.01 32.53, 126.95 46.82, 135.24 54.75 M97.08 18.25 C110.65 31.23, 124.21 44.2, 135.24 54.75 M135.24 54.75 C154.32 73, 154.32 73, 135.24 91 M135.24 54.75 C154.32 73, 154.32 73, 135.24 91 M135.24 91 C127.18 98.6, 119.12 106.2, 97.08 126.99 M135.24 91 C126.32 99.41, 117.4 107.83, 97.08 126.99 M97.08 126.99 C78 144.99, 78 144.99, 58.5 126.99 M97.08 126.99 C78 144.99, 78 144.99, 58.5 126.99 M58.5 126.99 C47.54 116.87, 36.58 106.76, 19.5 91 M58.5 126.99 C46.85 116.24, 35.19 105.48, 19.5 91 M19.5 91 C0 73, 0 73, 19.5 54.75 M19.5 91 C0 73, 0 73, 19.5 54.75 M19.5 54.75 C28.68 46.15, 37.87 37.56, 58.5 18.25 M19.5 54.75 C28.69 46.15, 37.88 37.55, 58.5 18.25 M58.5 18.25 C78 0, 78 0, 97.08 18.25 M58.5 18.25 C78 0, 78 0, 97.08 18.25" stroke="#c92a2a" stroke-width="1" fill="none"></path></g><g transform="translate(441.78054055993 1028.6648915197106) rotate(0 50.5 36)"><text x="50.5" y="14" font-family="Helvetica, Segoe UI Emoji" font-size="16px" fill="#c92a2a" text-anchor="middle" style="white-space: pre;" direction="ltr">BE CAREFUL</text><text x="50.5" y="32" font-family="Helvetica, Segoe UI Emoji" font-size="16px" fill="#c92a2a" text-anchor="middle" style="white-space: pre;" direction="ltr">HERE</text><text x="50.5" y="50" font-family="Helvetica, Segoe UI Emoji" font-size="16px" fill="#c92a2a" text-anchor="middle" style="white-space: pre;" direction="ltr">..</text><text x="50.5" y="68" font-family="Helvetica, Segoe UI Emoji" font-size="16px" fill="#c92a2a" text-anchor="middle" style="white-space: pre;" direction="ltr">PRIVACY</text></g><g stroke-linecap="round"><g transform="translate(309.52571965434714 1016.2491260993002) rotate(0 -64.70380541564941 -11.767175929540201)"><path d="M0 0 C-21.57 -3.92, -107.84 -19.61, -129.41 -23.53 M0 0 C-21.57 -3.92, -107.84 -19.61, -129.41 -23.53" stroke="#c92a2a" stroke-width="1" fill="none"></path></g><g transform="translate(309.52571965434714 1016.2491260993002) rotate(0 -64.70380541564941 -11.767175929540201)"><path d="M-99.84 -28.59 C-110.27 -26.8, -120.71 -25.02, -129.41 -23.53 M-99.84 -28.59 C-107.45 -27.28, -115.07 -25.98, -129.41 -23.53" stroke="#c92a2a" stroke-width="1" fill="none"></path></g><g transform="translate(309.52571965434714 1016.2491260993002) rotate(0 -64.70380541564941 -11.767175929540201)"><path d="M-103.51 -8.4 C-112.65 -13.74, -121.79 -19.08, -129.41 -23.53 M-103.51 -8.4 C-110.18 -12.29, -116.85 -16.19, -129.41 -23.53" stroke="#c92a2a" stroke-width="1" fill="none"></path></g></g><g transform="translate(35.291804740006285 965.4242899029784) rotate(0 76.5 18)"><text x="76.5" y="14" font-family="Helvetica, Segoe UI Emoji" font-size="16px" fill="#c92a2a" text-anchor="middle" style="white-space: pre;" direction="ltr">Capitalize?</text><text x="76.5" y="32" font-family="Helvetica, Segoe UI Emoji" font-size="16px" fill="#c92a2a" text-anchor="middle" style="white-space: pre;" direction="ltr">Ensure alphanumeric</text></g><g stroke-linecap="round"><g transform="translate(316.35388584403523 1052.6610740912595) rotate(0 -72.95908339849728 6.408655725386552)"><path d="M0 0 C-24.32 2.14, -121.6 10.68, -145.92 12.82 M0 0 C-24.32 2.14, -121.6 10.68, -145.92 12.82" stroke="#c92a2a" stroke-width="1" fill="none"></path></g><g transform="translate(316.35388584403523 1052.6610740912595) rotate(0 -72.95908339849728 6.408655725386552)"><path d="M-118.73 0.13 C-128.89 4.87, -139.06 9.61, -145.92 12.82 M-118.73 0.13 C-128.5 4.69, -138.26 9.25, -145.92 12.82" stroke="#c92a2a" stroke-width="1" fill="none"></path></g><g transform="translate(316.35388584403523 1052.6610740912595) rotate(0 -72.95908339849728 6.408655725386552)"><path d="M-116.94 20.57 C-127.77 17.67, -138.6 14.77, -145.92 12.82 M-116.94 20.57 C-127.35 17.79, -137.76 15, -145.92 12.82" stroke="#c92a2a" stroke-width="1" fill="none"></path></g></g><g transform="translate(10 1057.3220228946836) rotate(0 75.5 9)"><text x="75.5" y="14" font-family="Helvetica, Segoe UI Emoji" font-size="16px" fill="#c92a2a" text-anchor="middle" style="white-space: pre;" direction="ltr">Must have @ &amp; .com</text></g><g stroke-linecap="round"><g transform="translate(311.56068229119813 1117.9614423903613) rotate(0 -67.98791590388117 14.385413845249559)"><path d="M0 0 C-22.66 4.8, -113.31 23.98, -135.98 28.77 M0 0 C-22.66 4.8, -113.31 23.98, -135.98 28.77" stroke="#c92a2a" stroke-width="1" fill="none"></path></g><g transform="translate(311.56068229119813 1117.9614423903613) rotate(0 -67.98791590388117 14.385413845249559)"><path d="M-110.52 12.9 C-117.4 17.19, -124.27 21.47, -135.98 28.77 M-110.52 12.9 C-118.21 17.69, -125.9 22.49, -135.98 28.77" stroke="#c92a2a" stroke-width="1" fill="none"></path></g><g transform="translate(311.56068229119813 1117.9614423903613) rotate(0 -67.98791590388117 14.385413845249559)"><path d="M-106.27 32.97 C-114.3 31.84, -122.32 30.7, -135.98 28.77 M-106.27 32.97 C-115.24 31.7, -124.22 30.43, -135.98 28.77" stroke="#c92a2a" stroke-width="1" fill="none"></path></g></g><g stroke-linecap="round" transform="translate(819.5818672410674 881.6055345157097) rotate(0 47.96966420249635 72.87393621024188)"><path d="M23.98 0 M23.98 0 C42.03 0, 60.07 0, 71.95 0 M23.98 0 C37.84 0, 51.69 0, 71.95 0 M71.95 0 C87.94 0, 95.94 7.99, 95.94 23.98 M71.95 0 C87.94 0, 95.94 7.99, 95.94 23.98 M95.94 23.98 C95.94 62.7, 95.94 101.42, 95.94 121.76 M95.94 23.98 C95.94 48.67, 95.94 73.36, 95.94 121.76 M95.94 121.76 C95.94 137.75, 87.94 145.75, 71.95 145.75 M95.94 121.76 C95.94 137.75, 87.94 145.75, 71.95 145.75 M71.95 145.75 C54.37 145.75, 36.78 145.75, 23.98 145.75 M71.95 145.75 C61.89 145.75, 51.82 145.75, 23.98 145.75 M23.98 145.75 C7.99 145.75, 0 137.75, 0 121.76 M23.98 145.75 C7.99 145.75, 0 137.75, 0 121.76 M0 121.76 C0 83.62, 0 45.47, 0 23.98 M0 121.76 C0 101.7, 0 81.64, 0 23.98 M0 23.98 C0 7.99, 7.99 0, 23.98 0 M0 23.98 C0 7.99, 7.99 0, 23.98 0" stroke="#c92a2a" stroke-width="1" fill="none"></path></g><g transform="translate(710.5307903561736 625.8874903127291) rotate(0 78.5 36.00000000000003)"><text x="0" y="14" font-family="Helvetica, Segoe UI Emoji" font-size="16px" fill="#862e9c" text-anchor="start" style="white-space: pre;" direction="ltr">Stage 2</text><text x="0" y="32" font-family="Helvetica, Segoe UI Emoji" font-size="16px" fill="#862e9c" text-anchor="start" style="white-space: pre;" direction="ltr">Login form:</text><text x="0" y="50" font-family="Helvetica, Segoe UI Emoji" font-size="16px" fill="#862e9c" text-anchor="start" style="white-space: pre;" direction="ltr">Username:</text><text x="0" y="68" font-family="Helvetica, Segoe UI Emoji" font-size="16px" fill="#862e9c" text-anchor="start" style="white-space: pre;" direction="ltr">Password (masked?):</text></g><g stroke-linecap="round"><g transform="translate(555.5973111443013 916.5795549333079) rotate(0 68.17267664805445 -83.73061643121804)"><path d="M0 0 C22.72 -27.91, 113.62 -139.55, 136.35 -167.46 M0 0 C22.72 -27.91, 113.62 -139.55, 136.35 -167.46" stroke="#000000" stroke-width="1" fill="none"></path></g><g transform="translate(555.5973111443013 916.5795549333079) rotate(0 68.17267664805445 -83.73061643121804)"><path d="M126.5 -139.12 C129.52 -147.8, 132.53 -156.47, 136.35 -167.46 M126.5 -139.12 C129.45 -147.6, 132.39 -156.07, 136.35 -167.46" stroke="#000000" stroke-width="1" fill="none"></path></g><g transform="translate(555.5973111443013 916.5795549333079) rotate(0 68.17267664805445 -83.73061643121804)"><path d="M110.59 -152.08 C118.47 -156.79, 126.36 -161.5, 136.35 -167.46 M110.59 -152.08 C118.29 -156.68, 125.99 -161.28, 136.35 -167.46" stroke="#000000" stroke-width="1" fill="none"></path></g></g><g stroke-linecap="round"><g transform="translate(771.1807712602708 754.0857969974911) rotate(0 23.522973317682784 68.19915601789961)"><path d="M0 0 C7.84 22.73, 39.2 113.67, 47.05 136.4 M0 0 C7.84 22.73, 39.2 113.67, 47.05 136.4" stroke="#862e9c" stroke-width="1" fill="none"></path></g><g transform="translate(771.1807712602708 754.0857969974911) rotate(0 23.522973317682784 68.19915601789961)"><path d="M28.15 113.09 C34.71 121.18, 41.27 129.27, 47.05 136.4 M28.15 113.09 C32.49 118.44, 36.82 123.78, 47.05 136.4" stroke="#862e9c" stroke-width="1" fill="none"></path></g><g transform="translate(771.1807712602708 754.0857969974911) rotate(0 23.522973317682784 68.19915601789961)"><path d="M47.55 106.4 C47.38 116.81, 47.2 127.22, 47.05 136.4 M47.55 106.4 C47.44 113.28, 47.32 120.16, 47.05 136.4" stroke="#862e9c" stroke-width="1" fill="none"></path></g></g><g stroke-linecap="round"><g transform="translate(852.7373723079872 877.6273720784116) rotate(0 -6.54177306767815 -61.72957979872626)"><path d="M0 0 C-2.18 -20.58, -10.9 -102.88, -13.08 -123.46 M0 0 C-2.18 -20.58, -10.9 -102.88, -13.08 -123.46" stroke="#862e9c" stroke-width="1" fill="none"></path></g><g transform="translate(852.7373723079872 877.6273720784116) rotate(0 -6.54177306767815 -61.72957979872626)"><path d="M0.09 -96.51 C-4.86 -106.63, -9.81 -116.76, -13.08 -123.46 M0.09 -96.51 C-3.99 -104.86, -8.08 -113.22, -13.08 -123.46" stroke="#862e9c" stroke-width="1" fill="none"></path></g><g transform="translate(852.7373723079872 877.6273720784116) rotate(0 -6.54177306767815 -61.72957979872626)"><path d="M-20.32 -94.34 C-17.6 -105.28, -14.88 -116.22, -13.08 -123.46 M-20.32 -94.34 C-18.07 -103.37, -15.83 -112.4, -13.08 -123.46" stroke="#862e9c" stroke-width="1" fill="none"></path></g></g><g stroke-linecap="round"><g transform="translate(658.6296038754567 984.9242584639605) rotate(0 -47.699670513683884 26.52820398487836)"><path d="M0 0 C-15.9 8.84, -79.5 44.21, -95.4 53.06 M0 0 C-15.9 8.84, -79.5 44.21, -95.4 53.06" stroke="#a61e4d" stroke-width="1" fill="none"></path></g><g transform="translate(658.6296038754567 984.9242584639605) rotate(0 -47.699670513683884 26.52820398487836)"><path d="M-75.75 30.39 C-80.02 35.31, -84.29 40.24, -95.4 53.06 M-75.75 30.39 C-82.35 38, -88.95 45.61, -95.4 53.06" stroke="#a61e4d" stroke-width="1" fill="none"></path></g><g transform="translate(658.6296038754567 984.9242584639605) rotate(0 -47.699670513683884 26.52820398487836)"><path d="M-65.78 48.32 C-72.21 49.35, -78.64 50.38, -95.4 53.06 M-65.78 48.32 C-75.72 49.91, -85.67 51.5, -95.4 53.06" stroke="#a61e4d" stroke-width="1" fill="none"></path></g></g><g transform="translate(676.2039107995624 910.736075187669) rotate(0 55 36)"><text x="55" y="14" font-family="Helvetica, Segoe UI Emoji" font-size="16px" fill="#c92a2a" text-anchor="middle" style="white-space: pre;" direction="ltr">Incorrect</text><text x="55" y="32" font-family="Helvetica, Segoe UI Emoji" font-size="16px" fill="#c92a2a" text-anchor="middle" style="white-space: pre;" direction="ltr">username</text><text x="55" y="50" font-family="Helvetica, Segoe UI Emoji" font-size="16px" fill="#c92a2a" text-anchor="middle" style="white-space: pre;" direction="ltr">try again</text><text x="55" y="68" font-family="Helvetica, Segoe UI Emoji" font-size="16px" fill="#c92a2a" text-anchor="middle" style="white-space: pre;" direction="ltr">prompt create?</text></g><g transform="translate(736.0590094195513 552.2669642567772) rotate(0 29 9.5)"><text x="29" y="15" font-family="Cascadia, Segoe UI Emoji" font-size="16px" fill="#862e9c" text-anchor="middle" style="white-space: pre;" direction="ltr">/login</text></g><g transform="translate(1158.3599095228549 409.17495341721656) rotate(0 29 9.5)"><text x="29" y="15" font-family="Cascadia, Segoe UI Emoji" font-size="16px" fill="#2b8a3e" text-anchor="middle" style="white-space: pre;" direction="ltr">/peeps</text></g><g transform="translate(1125.9401288783474 544.1321204974392) rotate(0 75.10186893246123 4.802758477942177)" stroke="none"><path fill="#2b8a3e" d="M 0,-1.56 Q 0,-1.56 2.85,-1.52 5.71,-1.49 8.75,-1.46 11.79,-1.44 14.66,-1.42 17.53,-1.40 20.45,-1.39 23.38,-1.38 26.14,-1.37 28.90,-1.36 31.37,-1.35 33.84,-1.34 36.13,-1.34 38.42,-1.33 40.58,-1.33 42.74,-1.33 44.94,-1.32 47.14,-1.32 49.35,-1.32 51.56,-1.32 53.56,-1.34 55.57,-1.37 57.37,-1.43 59.17,-1.49 60.96,-1.46 62.74,-1.43 64.54,-1.22 66.33,-1.00 68.10,-0.64 69.86,-0.28 71.52,0.12 73.19,0.52 74.77,0.94 76.35,1.36 77.87,1.76 79.39,2.16 80.71,2.48 82.03,2.79 83.17,3.02 84.31,3.24 86.01,3.45 87.70,3.65 89.16,3.62 90.61,3.59 92.17,3.68 93.72,3.77 95.18,4.21 96.64,4.65 97.91,5.05 99.17,5.46 100.36,5.86 101.55,6.27 103.11,5.65 104.67,5.03 106.51,4.27 108.36,3.51 109.43,3.17 110.50,2.83 112.57,2.47 114.63,2.11 116.55,2.02 118.47,1.93 120.07,1.90 121.67,1.87 122.95,1.85 124.24,1.82 125.32,1.80 126.40,1.77 127.57,1.76 128.74,1.74 130.03,1.73 131.32,1.71 132.84,1.72 134.35,1.72 135.79,1.71 137.23,1.71 139.07,1.78 140.91,1.86 142.72,1.99 144.53,2.13 147.25,2.15 149.96,2.16 150.49,2.25 151.02,2.34 151.50,2.60 151.98,2.85 152.35,3.24 152.72,3.64 152.94,4.13 153.17,4.62 153.22,5.15 153.28,5.69 153.16,6.22 153.04,6.74 152.77,7.21 152.49,7.67 152.07,8.02 151.66,8.36 151.16,8.56 150.66,8.76 150.12,8.79 149.58,8.82 149.06,8.67 148.54,8.52 148.09,8.22 147.65,7.91 147.32,7.48 147.00,7.05 146.83,6.54 146.66,6.03 146.66,5.49 146.66,4.95 146.83,4.44 147.01,3.93 147.34,3.50 147.66,3.07 148.11,2.77 148.56,2.47 149.08,2.33 149.60,2.18 150.14,2.21 150.68,2.24 151.18,2.45 151.68,2.65 152.09,3.00 152.50,3.35 152.78,3.81 153.05,4.28 153.17,4.80 153.28,5.33 153.22,5.87 153.16,6.40 152.93,6.89 152.70,7.38 152.33,7.77 151.96,8.16 151.48,8.41 151.01,8.66 150.47,8.75 149.94,8.84 149.94,8.84 149.94,8.84 148.00,8.82 146.05,8.80 144.15,8.76 142.25,8.71 140.58,8.60 138.91,8.49 137.36,8.49 135.81,8.50 134.30,8.50 132.80,8.50 131.40,8.49 130.00,8.49 128.76,8.47 127.53,8.46 126.41,8.44 125.29,8.42 124.17,8.39 123.06,8.37 121.65,8.35 120.24,8.34 118.64,8.36 117.05,8.38 115.45,8.52 113.86,8.66 112.36,9.05 110.86,9.43 109.02,10.23 107.17,11.04 105.53,11.74 103.89,12.45 102.14,12.49 100.40,12.54 99.41,12.10 98.41,11.65 97.08,11.14 95.75,10.63 94.27,9.96 92.78,9.29 91.62,9.08 90.46,8.87 88.70,8.68 86.93,8.50 85.08,8.01 83.23,7.53 82.06,7.17 80.89,6.82 79.59,6.39 78.28,5.97 76.79,5.49 75.29,5.02 73.77,4.54 72.24,4.06 70.66,3.60 69.09,3.15 67.46,2.74 65.84,2.34 64.21,2.05 62.59,1.76 60.88,1.63 59.17,1.49 57.37,1.43 55.57,1.37 53.56,1.34 51.56,1.32 49.35,1.32 47.14,1.32 44.94,1.32 42.74,1.33 40.58,1.33 38.42,1.33 36.13,1.34 33.84,1.34 31.37,1.35 28.90,1.36 26.14,1.37 23.38,1.38 20.45,1.39 17.53,1.40 14.66,1.42 11.79,1.44 8.75,1.46 5.71,1.49 2.85,1.52 0,1.56 -0.18,1.53 -0.37,1.51 -0.54,1.45 -0.72,1.38 -0.88,1.27 -1.03,1.16 -1.16,1.02 -1.28,0.88 -1.37,0.72 -1.46,0.55 -1.50,0.37 -1.55,0.18 -1.55,-0.00 -1.55,-0.18 -1.50,-0.37 -1.46,-0.55 -1.37,-0.72 -1.28,-0.88 -1.16,-1.02 -1.03,-1.16 -0.88,-1.27 -0.72,-1.38 -0.54,-1.45 -0.37,-1.51 -0.18,-1.53 0.00,-1.56 0.00,-1.56 L 0,-1.56 Z"></path></g><g transform="translate(1280.934804695309 565.0122126667279) rotate(0 -78.36914109558859 -2.3983453039893448)" stroke="none"><path fill="#2b8a3e" d="M 0,1.61 Q 0,1.61 -1.93,1.61 -3.86,1.62 -7.52,1.58 -11.17,1.53 -15.80,1.50 -20.44,1.47 -24.99,1.45 -29.54,1.43 -33.53,1.41 -37.53,1.39 -40.71,1.38 -43.89,1.37 -46.17,1.36 -48.45,1.35 -50.41,1.39 -52.36,1.42 -54.56,1.40 -56.76,1.39 -59.55,1.38 -62.34,1.37 -65.54,1.36 -68.75,1.35 -72.06,1.43 -75.36,1.51 -78.48,1.62 -81.61,1.74 -84.12,1.79 -86.63,1.83 -88.40,1.93 -90.16,2.02 -91.44,2.14 -92.73,2.26 -93.83,2.43 -94.93,2.61 -96.08,2.07 -97.22,1.52 -98.09,0.44 -98.95,-0.62 -100.34,-0.91 -101.73,-1.19 -103.09,-0.99 -104.46,-0.80 -105.79,-0.41 -107.12,-0.02 -108.65,0.41 -110.18,0.86 -111.83,1.30 -113.48,1.74 -115.12,2.15 -116.76,2.55 -118.10,2.90 -119.44,3.25 -121.06,3.64 -122.68,4.04 -124.20,4.22 -125.73,4.40 -127.09,4.49 -128.45,4.58 -129.76,4.63 -131.08,4.68 -132.68,4.70 -134.29,4.73 -135.38,4.77 -136.47,4.81 -137.72,4.82 -138.96,4.83 -140.24,4.47 -141.53,4.11 -143.74,2.89 -145.96,1.66 -149.33,-0.10 -152.69,-1.87 -154.14,-2.56 -155.58,-3.26 -155.90,-3.48 -156.22,-3.69 -156.45,-4.00 -156.69,-4.31 -156.81,-4.67 -156.93,-5.04 -156.93,-5.42 -156.93,-5.81 -156.81,-6.17 -156.68,-6.54 -156.45,-6.85 -156.22,-7.15 -155.90,-7.37 -155.58,-7.58 -155.21,-7.69 -154.84,-7.79 -154.45,-7.77 -154.07,-7.75 -153.71,-7.60 -153.35,-7.46 -153.06,-7.21 -152.76,-6.96 -152.57,-6.63 -152.37,-6.30 -152.29,-5.92 -152.20,-5.54 -152.25,-5.16 -152.29,-4.78 -152.45,-4.43 -152.61,-4.08 -152.88,-3.80 -153.14,-3.52 -153.48,-3.34 -153.82,-3.16 -154.21,-3.10 -154.59,-3.04 -154.97,-3.10 -155.35,-3.16 -155.69,-3.35 -156.03,-3.53 -156.29,-3.81 -156.56,-4.09 -156.72,-4.44 -156.88,-4.79 -156.92,-5.17 -156.96,-5.55 -156.88,-5.93 -156.79,-6.31 -156.59,-6.64 -156.39,-6.97 -156.10,-7.21 -155.81,-7.46 -155.45,-7.61 -155.09,-7.75 -154.70,-7.77 -154.32,-7.79 -153.95,-7.68 -153.58,-7.58 -153.58,-7.58 -153.58,-7.58 -152.11,-6.92 -150.65,-6.27 -147.16,-4.86 -143.68,-3.44 -141.64,-2.77 -139.60,-2.10 -138.04,-1.83 -136.47,-1.55 -135.38,-1.51 -134.29,-1.48 -132.69,-1.45 -131.08,-1.42 -129.77,-1.37 -128.45,-1.33 -127.13,-1.24 -125.80,-1.16 -124.58,-1.09 -123.37,-1.02 -121.95,-1.17 -120.53,-1.32 -119.23,-1.60 -117.93,-1.89 -116.36,-2.33 -114.79,-2.77 -113.20,-3.27 -111.62,-3.76 -110.09,-4.27 -108.56,-4.77 -106.91,-5.29 -105.25,-5.81 -103.14,-6.16 -101.04,-6.51 -99.89,-6.28 -98.75,-6.04 -97.69,-5.52 -96.63,-4.99 -95.79,-3.22 -94.95,-1.44 -93.85,-1.28 -92.75,-1.12 -91.47,-1.02 -90.20,-0.92 -88.44,-0.87 -86.69,-0.82 -84.20,-0.87 -81.71,-0.92 -78.57,-1.05 -75.42,-1.17 -72.09,-1.26 -68.75,-1.35 -65.54,-1.36 -62.34,-1.37 -59.55,-1.38 -56.76,-1.39 -54.56,-1.40 -52.36,-1.42 -50.41,-1.39 -48.45,-1.35 -46.17,-1.36 -43.89,-1.37 -40.71,-1.38 -37.53,-1.39 -33.53,-1.41 -29.54,-1.43 -24.99,-1.45 -20.44,-1.47 -15.80,-1.50 -11.17,-1.53 -7.52,-1.58 -3.86,-1.62 -1.93,-1.61 0,-1.61 0.19,-1.59 0.38,-1.56 0.56,-1.49 0.75,-1.42 0.91,-1.31 1.07,-1.20 1.19,-1.06 1.32,-0.91 1.41,-0.74 1.50,-0.57 1.55,-0.38 1.60,-0.19 1.60,0.00 1.60,0.19 1.55,0.38 1.50,0.57 1.41,0.74 1.32,0.91 1.19,1.06 1.07,1.20 0.91,1.31 0.75,1.42 0.56,1.49 0.38,1.56 0.19,1.59 -0.00,1.61 -0.00,1.61 L 0,1.61 Z"></path></g><g transform="translate(1129.02985674241 606.9383571889849) rotate(0 70.86074304192914 4.400466579706119)" stroke="none"><path fill="#2b8a3e" d="M 0,-1.93 Q 0,-1.93 1.99,-1.88 3.98,-1.83 6.76,-1.76 9.53,-1.69 12.74,-1.64 15.94,-1.59 19.33,-1.55 22.72,-1.51 26.01,-1.48 29.29,-1.46 31.87,-1.44 34.45,-1.42 36.15,-1.49 37.85,-1.56 38.96,-1.67 40.07,-1.78 41.51,-1.94 42.95,-2.10 44.12,-2.25 45.29,-2.39 47.15,-1.93 49.02,-1.46 50.51,-0.93 52.01,-0.41 53.10,-0.28 54.19,-0.15 55.44,-0.07 56.70,0.00 57.89,0.02 59.08,0.04 60.16,0.04 61.23,0.03 63.00,-0.00 64.77,-0.05 66.34,-0.10 67.91,-0.15 69.31,-0.22 70.71,-0.29 71.85,-0.35 72.99,-0.41 74.79,-0.40 76.60,-0.40 77.91,-0.35 79.23,-0.31 80.75,-0.24 82.28,-0.17 83.92,-0.08 85.56,-0.00 87.25,0.07 88.94,0.14 90.73,0.23 92.51,0.31 94.41,0.40 96.32,0.49 98.19,0.56 100.05,0.62 101.79,0.64 103.53,0.67 105.12,0.66 106.71,0.65 108.16,0.62 109.61,0.59 110.87,0.55 112.13,0.50 113.23,0.45 114.34,0.41 115.43,0.36 116.52,0.32 117.61,0.28 118.70,0.25 119.84,0.22 120.99,0.20 122.16,0.18 123.33,0.16 124.39,0.13 125.46,0.11 127.27,0.21 129.08,0.31 130.49,0.53 131.89,0.75 133.48,1.25 135.06,1.74 136.93,2.62 138.80,3.49 140.29,4.54 141.79,5.60 140.68,6.07 139.58,6.55 139.01,4.74 138.43,2.94 138.53,2.41 138.62,1.89 138.88,1.43 139.13,0.97 139.52,0.61 139.91,0.25 140.39,0.03 140.88,-0.17 141.40,-0.22 141.93,-0.27 142.45,-0.15 142.96,-0.03 143.41,0.24 143.86,0.52 144.20,0.93 144.53,1.34 144.72,1.83 144.91,2.33 144.93,2.86 144.95,3.39 144.80,3.89 144.65,4.40 144.35,4.84 144.05,5.27 143.62,5.58 143.19,5.90 142.69,6.06 142.19,6.22 141.66,6.21 141.13,6.20 140.63,6.03 140.13,5.85 139.71,5.52 139.30,5.20 139.01,4.76 138.72,4.31 138.58,3.80 138.45,3.29 138.48,2.76 138.52,2.23 138.72,1.74 138.93,1.26 139.28,0.86 139.63,0.46 140.08,0.19 140.54,-0.06 141.06,-0.17 141.58,-0.28 142.10,-0.21 142.63,-0.14 143.11,0.07 143.58,0.30 143.96,0.67 144.34,1.04 144.58,1.52 144.82,1.99 144.90,2.51 144.98,3.03 144.98,3.03 144.98,3.03 144.94,4.76 144.89,6.49 144.77,7.86 144.65,9.22 143.93,10.03 143.21,10.84 141.84,11.34 140.48,11.83 139.21,11.19 137.95,10.54 136.86,9.69 135.77,8.85 134.40,8.16 133.03,7.47 131.78,6.98 130.53,6.49 129.37,6.20 128.22,5.91 126.84,5.71 125.46,5.50 124.39,5.48 123.33,5.45 122.16,5.43 120.99,5.41 119.84,5.39 118.70,5.36 117.61,5.32 116.52,5.29 115.43,5.25 114.34,5.20 113.23,5.15 112.13,5.11 110.87,5.06 109.61,5.02 108.16,4.99 106.71,4.96 105.12,4.95 103.53,4.94 101.79,4.96 100.05,4.99 98.19,5.05 96.32,5.11 94.41,5.21 92.51,5.30 90.73,5.38 88.94,5.47 87.25,5.54 85.56,5.62 83.92,5.70 82.28,5.78 80.75,5.86 79.23,5.93 77.91,5.97 76.60,6.02 74.79,6.02 72.99,6.03 71.85,5.97 70.71,5.90 69.31,5.84 67.91,5.77 66.33,5.71 64.76,5.66 62.96,5.60 61.16,5.54 60.06,5.51 58.95,5.47 57.68,5.44 56.41,5.40 54.95,5.33 53.49,5.26 51.94,5.05 50.39,4.84 49.10,4.40 47.81,3.95 46.55,3.17 45.29,2.39 44.12,2.25 42.95,2.10 41.51,1.94 40.07,1.78 38.96,1.67 37.85,1.56 36.15,1.49 34.45,1.42 31.87,1.44 29.29,1.46 26.01,1.48 22.72,1.51 19.33,1.55 15.94,1.59 12.74,1.64 9.53,1.69 6.76,1.76 3.98,1.83 1.99,1.88 0,1.93 -0.23,1.90 -0.46,1.88 -0.68,1.79 -0.90,1.71 -1.09,1.58 -1.28,1.45 -1.43,1.27 -1.59,1.10 -1.70,0.89 -1.81,0.68 -1.86,0.46 -1.92,0.23 -1.92,-0.00 -1.92,-0.23 -1.86,-0.46 -1.81,-0.68 -1.70,-0.89 -1.59,-1.10 -1.43,-1.27 -1.28,-1.45 -1.09,-1.58 -0.90,-1.71 -0.68,-1.79 -0.46,-1.88 -0.23,-1.90 0.00,-1.93 0.00,-1.93 L 0,-1.93 Z"></path></g><g transform="translate(1274.0908778044166 634.0310025589274) rotate(0 -74.20610947952298 -2.5384973394472468)" stroke="none"><path fill="#2b8a3e" d="M 0,2.05 Q 0,2.05 -2.73,1.95 -5.46,1.85 -9.85,1.78 -14.24,1.70 -17.61,1.65 -20.98,1.60 -23.52,1.56 -26.07,1.52 -27.90,1.56 -29.73,1.59 -31.17,1.68 -32.62,1.76 -33.96,1.84 -35.30,1.92 -36.64,1.98 -37.98,2.04 -39.47,2.08 -40.95,2.11 -42.72,2.09 -44.49,2.07 -46.36,2.03 -48.23,1.99 -49.89,2.01 -51.56,2.02 -52.92,2.07 -54.28,2.12 -55.35,2.19 -56.41,2.25 -57.51,2.20 -58.61,2.14 -59.76,1.89 -60.90,1.63 -62.07,1.21 -63.23,0.79 -64.44,0.29 -65.66,-0.19 -66.85,-0.64 -68.04,-1.10 -69.14,-1.45 -70.24,-1.80 -72.31,-2.03 -74.38,-2.26 -75.51,-2.29 -76.65,-2.31 -77.76,-2.32 -78.88,-2.32 -80.55,-2.26 -82.23,-2.20 -83.17,-1.44 -84.11,-0.69 -85.90,-0.17 -87.69,0.35 -88.76,0.38 -89.84,0.41 -91.11,0.37 -92.37,0.32 -93.75,0.13 -95.12,-0.06 -96.37,-0.31 -97.61,-0.55 -99.56,-0.72 -101.51,-0.88 -103.07,-0.88 -104.63,-0.87 -106.35,-0.86 -108.06,-0.85 -110.15,-0.86 -112.25,-0.87 -113.33,-0.88 -114.42,-0.89 -115.51,-0.90 -116.59,-0.90 -117.67,-0.91 -118.75,-0.91 -119.92,-0.93 -121.08,-0.94 -122.40,-0.92 -123.72,-0.90 -125.18,-0.86 -126.65,-0.82 -128.31,-0.84 -129.98,-0.86 -131.82,-0.95 -133.67,-1.03 -135.50,-1.09 -137.33,-1.16 -138.95,-1.18 -140.58,-1.20 -141.95,-1.17 -143.32,-1.15 -145.72,-1.29 -148.12,-1.42 -148.50,-1.52 -148.89,-1.62 -149.22,-1.84 -149.55,-2.06 -149.79,-2.37 -150.04,-2.69 -150.17,-3.06 -150.30,-3.43 -150.30,-3.83 -150.31,-4.23 -150.19,-4.60 -150.06,-4.98 -149.83,-5.30 -149.59,-5.62 -149.27,-5.85 -148.94,-6.07 -148.56,-6.18 -148.18,-6.30 -147.78,-6.28 -147.39,-6.26 -147.02,-6.12 -146.65,-5.98 -146.34,-5.72 -146.04,-5.47 -145.83,-5.13 -145.62,-4.80 -145.53,-4.41 -145.44,-4.02 -145.48,-3.63 -145.51,-3.23 -145.68,-2.87 -145.84,-2.51 -146.11,-2.22 -146.38,-1.93 -146.72,-1.74 -147.07,-1.55 -147.46,-1.48 -147.85,-1.41 -148.25,-1.47 -148.64,-1.53 -148.99,-1.71 -149.34,-1.89 -149.62,-2.18 -149.90,-2.46 -150.07,-2.82 -150.24,-3.18 -150.29,-3.57 -150.33,-3.96 -150.25,-4.35 -150.17,-4.74 -149.97,-5.08 -149.77,-5.43 -149.47,-5.69 -149.17,-5.95 -148.81,-6.10 -148.44,-6.25 -148.04,-6.28 -147.65,-6.30 -147.65,-6.30 -147.65,-6.30 -145.49,-6.10 -143.32,-5.89 -141.96,-5.87 -140.59,-5.85 -138.97,-5.87 -137.34,-5.90 -135.53,-5.98 -133.72,-6.06 -131.91,-6.18 -130.11,-6.29 -128.55,-6.39 -126.99,-6.49 -125.49,-6.63 -123.99,-6.77 -122.54,-6.88 -121.08,-6.98 -119.92,-7.00 -118.75,-7.01 -117.67,-7.02 -116.59,-7.02 -115.50,-7.03 -114.42,-7.03 -113.33,-7.04 -112.24,-7.05 -110.15,-7.06 -108.05,-7.07 -106.30,-7.05 -104.55,-7.02 -102.87,-6.95 -101.19,-6.89 -100.11,-6.82 -99.04,-6.75 -97.76,-6.62 -96.49,-6.49 -94.38,-6.17 -92.26,-5.85 -91.14,-5.86 -90.01,-5.86 -88.82,-5.78 -87.63,-5.70 -86.71,-6.31 -85.79,-6.93 -84.05,-7.41 -82.31,-7.89 -80.55,-7.83 -78.79,-7.78 -77.63,-7.74 -76.46,-7.71 -75.20,-7.65 -73.94,-7.60 -72.62,-7.47 -71.30,-7.34 -69.94,-7.05 -68.58,-6.77 -67.37,-6.34 -66.16,-5.92 -64.92,-5.43 -63.69,-4.93 -61.62,-4.03 -59.56,-3.12 -57.98,-2.69 -56.41,-2.25 -55.34,-2.19 -54.28,-2.12 -52.92,-2.07 -51.56,-2.02 -49.89,-2.01 -48.23,-1.99 -46.36,-2.03 -44.49,-2.07 -42.72,-2.09 -40.95,-2.11 -39.47,-2.08 -37.98,-2.04 -36.64,-1.98 -35.30,-1.92 -33.96,-1.84 -32.62,-1.76 -31.17,-1.68 -29.73,-1.59 -27.90,-1.56 -26.07,-1.52 -23.52,-1.56 -20.98,-1.60 -17.61,-1.65 -14.24,-1.70 -9.85,-1.78 -5.46,-1.85 -2.73,-1.95 0,-2.05 0.24,-2.02 0.49,-1.99 0.72,-1.90 0.95,-1.81 1.15,-1.67 1.36,-1.53 1.52,-1.35 1.68,-1.16 1.80,-0.94 1.91,-0.72 1.97,-0.48 2.03,-0.24 2.03,0.00 2.03,0.24 1.97,0.48 1.91,0.72 1.80,0.94 1.68,1.16 1.52,1.35 1.36,1.53 1.15,1.67 0.95,1.81 0.72,1.90 0.49,1.99 0.24,2.02 -0.00,2.05 -0.00,2.05 L 0,2.05 Z"></path></g><g transform="translate(1133.2660180120627 697.9485262923779) rotate(0 72.22002471728149 4.848937332470371)" stroke="none"><path fill="#2b8a3e" d="M 0,-1.63 Q 0,-1.63 2.10,-1.59 4.20,-1.55 6.06,-1.58 7.91,-1.61 9.74,-1.63 11.56,-1.66 13.61,-1.63 15.65,-1.61 17.95,-1.57 20.26,-1.53 22.70,-1.50 25.14,-1.47 27.58,-1.45 30.02,-1.42 32.31,-1.41 34.60,-1.39 36.74,-1.38 38.88,-1.37 40.92,-1.38 42.96,-1.39 44.98,-1.22 47.00,-1.04 49.00,-0.56 51.00,-0.08 52.88,0.46 54.77,1.00 56.53,1.49 58.30,1.97 60.04,2.44 61.78,2.90 63.55,3.31 65.32,3.71 67.15,4.03 68.98,4.34 70.83,4.61 72.67,4.88 74.49,5.04 76.31,5.21 78.01,5.26 79.70,5.30 81.02,5.26 82.35,5.21 83.95,5.08 85.56,4.94 86.64,4.84 87.73,4.73 89.55,4.78 91.37,4.83 93.20,4.94 95.02,5.04 96.66,5.59 98.30,6.14 99.78,6.35 101.27,6.55 102.89,6.24 104.52,5.92 106.44,5.09 108.37,4.27 109.47,3.74 110.57,3.22 111.69,2.73 112.82,2.24 113.87,1.83 114.92,1.42 115.99,1.13 117.06,0.84 118.88,0.76 120.70,0.69 122.11,0.67 123.53,0.65 124.95,0.66 126.37,0.66 127.94,0.71 129.51,0.76 131.31,0.98 133.11,1.20 134.94,1.63 136.77,2.05 138.40,2.48 140.04,2.92 142.02,3.25 144.01,3.57 144.39,3.71 144.76,3.85 145.07,4.10 145.38,4.35 145.60,4.69 145.81,5.03 145.91,5.42 146.01,5.81 145.97,6.21 145.94,6.61 145.78,6.97 145.62,7.34 145.35,7.64 145.09,7.94 144.74,8.13 144.39,8.33 143.99,8.40 143.60,8.48 143.20,8.42 142.81,8.37 142.45,8.19 142.09,8.01 141.81,7.73 141.52,7.44 141.35,7.08 141.17,6.72 141.12,6.33 141.06,5.93 141.14,5.54 141.22,5.14 141.41,4.80 141.61,4.45 141.91,4.18 142.21,3.91 142.58,3.76 142.95,3.60 143.35,3.57 143.74,3.54 144.13,3.63 144.52,3.73 144.86,3.95 145.20,4.16 145.45,4.48 145.70,4.79 145.83,5.17 145.97,5.54 145.98,5.94 145.99,6.34 145.87,6.73 145.75,7.11 145.52,7.43 145.28,7.76 144.96,7.99 144.63,8.22 144.25,8.34 143.87,8.46 143.47,8.44 143.07,8.43 143.07,8.43 143.07,8.43 140.98,7.97 138.90,7.51 137.35,7.16 135.81,6.80 134.23,6.53 132.66,6.27 131.08,6.19 129.50,6.11 127.97,6.15 126.44,6.19 125.07,6.24 123.70,6.28 122.38,6.34 121.06,6.41 119.78,6.53 118.50,6.66 116.86,7.16 115.22,7.66 114.22,8.11 113.21,8.56 112.13,9.12 111.05,9.67 109.83,10.29 108.62,10.92 107.34,11.42 106.06,11.92 104.76,12.25 103.46,12.58 102.32,12.69 101.17,12.80 99.75,12.69 98.32,12.58 97.29,12.16 96.25,11.74 95.27,11.14 94.30,10.55 92.61,10.32 90.91,10.10 89.31,9.87 87.72,9.65 86.62,9.53 85.52,9.42 83.89,9.25 82.25,9.07 80.90,8.96 79.54,8.85 77.76,8.74 75.98,8.63 74.08,8.44 72.18,8.25 70.29,7.97 68.40,7.69 66.47,7.35 64.54,7.01 62.70,6.56 60.86,6.11 59.12,5.58 57.39,5.05 55.64,4.50 53.89,3.94 52.07,3.38 50.25,2.81 48.47,2.32 46.70,1.84 44.83,1.62 42.96,1.39 40.92,1.38 38.88,1.37 36.74,1.38 34.60,1.39 32.31,1.41 30.02,1.42 27.58,1.45 25.14,1.47 22.70,1.50 20.26,1.53 17.95,1.57 15.65,1.61 13.61,1.63 11.56,1.66 9.74,1.63 7.91,1.61 6.06,1.58 4.20,1.55 2.10,1.59 0,1.63 -0.19,1.60 -0.39,1.58 -0.57,1.51 -0.75,1.44 -0.92,1.33 -1.08,1.22 -1.21,1.07 -1.34,0.92 -1.43,0.75 -1.52,0.57 -1.57,0.38 -1.62,0.19 -1.62,-0.00 -1.62,-0.19 -1.57,-0.38 -1.52,-0.57 -1.43,-0.75 -1.34,-0.92 -1.21,-1.07 -1.08,-1.22 -0.92,-1.33 -0.75,-1.44 -0.57,-1.51 -0.39,-1.58 -0.19,-1.60 0.00,-1.63 0.00,-1.63 L 0,-1.63 Z"></path></g><g transform="translate(1277.357913557026 716.6376445837711) rotate(0 -67.7110457097848 0.34110097581088894)" stroke="none"><path fill="#2b8a3e" d="M 0,1.66 Q 0,1.66 -1.88,1.67 -3.76,1.68 -6.87,1.63 -9.98,1.58 -14.55,1.54 -19.11,1.50 -24.56,1.48 -30.00,1.45 -34.96,1.43 -39.91,1.41 -43.82,1.40 -47.73,1.38 -50.82,1.37 -53.91,1.36 -56.18,1.36 -58.44,1.35 -60.20,1.42 -61.96,1.49 -63.84,1.52 -65.73,1.55 -68.17,1.51 -70.61,1.48 -73.49,1.46 -76.36,1.43 -79.53,1.42 -82.69,1.40 -85.82,1.39 -88.95,1.37 -91.63,1.37 -94.32,1.36 -96.56,1.35 -98.81,1.34 -100.53,1.42 -102.26,1.49 -103.61,1.60 -104.96,1.70 -106.09,1.80 -107.22,1.89 -108.97,2.05 -110.73,2.21 -112.02,2.33 -113.32,2.45 -114.77,2.59 -116.22,2.73 -117.91,2.83 -119.61,2.93 -120.95,2.98 -122.29,3.03 -123.51,3.07 -124.72,3.11 -125.91,3.17 -127.10,3.23 -128.37,3.56 -129.64,3.88 -132.25,3.99 -134.86,4.10 -135.41,4.01 -135.96,3.92 -136.45,3.67 -136.94,3.41 -137.32,3.01 -137.70,2.60 -137.94,2.10 -138.17,1.60 -138.23,1.05 -138.29,0.50 -138.17,-0.03 -138.05,-0.58 -137.77,-1.05 -137.48,-1.53 -137.06,-1.89 -136.64,-2.25 -136.13,-2.45 -135.61,-2.66 -135.06,-2.69 -134.51,-2.72 -133.97,-2.57 -133.44,-2.43 -132.98,-2.11 -132.52,-1.80 -132.18,-1.36 -131.85,-0.92 -131.67,-0.40 -131.49,0.12 -131.49,0.67 -131.49,1.22 -131.66,1.75 -131.84,2.28 -132.18,2.72 -132.51,3.16 -132.97,3.47 -133.43,3.78 -133.96,3.93 -134.49,4.08 -135.05,4.05 -135.60,4.02 -136.12,3.82 -136.63,3.61 -137.05,3.26 -137.48,2.90 -137.76,2.42 -138.05,1.95 -138.17,1.41 -138.29,0.87 -138.23,0.32 -138.17,-0.23 -137.94,-0.73 -137.71,-1.23 -137.33,-1.63 -136.95,-2.04 -136.46,-2.30 -135.97,-2.56 -135.42,-2.65 -134.87,-2.74 -134.88,-2.74 -134.88,-2.74 -132.62,-2.80 -130.35,-2.87 -128.73,-3.05 -127.10,-3.23 -125.91,-3.17 -124.72,-3.11 -123.51,-3.07 -122.29,-3.03 -120.95,-2.98 -119.61,-2.93 -117.91,-2.83 -116.22,-2.73 -114.77,-2.59 -113.32,-2.45 -112.02,-2.33 -110.73,-2.21 -108.97,-2.05 -107.22,-1.89 -106.09,-1.80 -104.96,-1.70 -103.61,-1.60 -102.26,-1.49 -100.53,-1.42 -98.81,-1.34 -96.56,-1.35 -94.32,-1.36 -91.63,-1.37 -88.95,-1.37 -85.82,-1.39 -82.69,-1.40 -79.53,-1.42 -76.36,-1.43 -73.49,-1.46 -70.61,-1.48 -68.17,-1.51 -65.73,-1.55 -63.84,-1.52 -61.96,-1.49 -60.20,-1.42 -58.44,-1.35 -56.18,-1.36 -53.91,-1.36 -50.82,-1.37 -47.73,-1.38 -43.82,-1.40 -39.91,-1.41 -34.96,-1.43 -30.00,-1.45 -24.56,-1.48 -19.11,-1.50 -14.55,-1.54 -9.98,-1.58 -6.87,-1.63 -3.76,-1.68 -1.88,-1.67 0,-1.66 0.19,-1.63 0.39,-1.61 0.58,-1.54 0.77,-1.47 0.93,-1.35 1.10,-1.24 1.23,-1.09 1.36,-0.94 1.46,-0.76 1.55,-0.58 1.60,-0.39 1.65,-0.20 1.65,0.00 1.65,0.20 1.60,0.39 1.55,0.58 1.46,0.76 1.36,0.94 1.23,1.09 1.10,1.24 0.93,1.35 0.77,1.47 0.58,1.54 0.39,1.61 0.19,1.63 -0.00,1.66 -0.00,1.66 L 0,1.66 Z"></path></g><g stroke-linecap="round" transform="translate(1345.9108171216308 269.49335183463484) rotate(0 164.574660436895 71.98765287890271)"><path d="M35.99 0 M35.99 0 C136.13 0, 236.27 0, 293.16 0 M35.99 0 C106.81 0, 177.63 0, 293.16 0 M293.16 0 C317.15 0, 329.15 12, 329.15 35.99 M293.16 0 C317.15 0, 329.15 12, 329.15 35.99 M329.15 35.99 C329.15 60.52, 329.15 85.04, 329.15 107.98 M329.15 35.99 C329.15 58.18, 329.15 80.36, 329.15 107.98 M329.15 107.98 C329.15 131.98, 317.15 143.98, 293.16 143.98 M329.15 107.98 C329.15 131.98, 317.15 143.98, 293.16 143.98 M293.16 143.98 C231.72 143.98, 170.28 143.98, 35.99 143.98 M293.16 143.98 C223.06 143.98, 152.97 143.98, 35.99 143.98 M35.99 143.98 C12 143.98, 0 131.98, 0 107.98 M35.99 143.98 C12 143.98, 0 131.98, 0 107.98 M0 107.98 C0 86.33, 0 64.68, 0 35.99 M0 107.98 C0 82.14, 0 56.31, 0 35.99 M0 35.99 C0 12, 12 0, 35.99 0 M0 35.99 C0 12, 12 0, 35.99 0" stroke="#2b8a3e" stroke-width="1" fill="none"></path></g><g transform="translate(1402.6527207217703 205.52539109189735) rotate(0 52 9)"><text x="52" y="14" font-family="Helvetica, Segoe UI Emoji" font-size="16px" fill="#2b8a3e" text-anchor="middle" style="white-space: pre;" direction="ltr">Example peep</text></g><g transform="translate(824.6915997189487 903.1098658925084) rotate(0 44 18)"><text x="44" y="14" font-family="Helvetica, Segoe UI Emoji" font-size="16px" fill="#c92a2a" text-anchor="middle" style="white-space: pre;" direction="ltr">Incorrect pw</text><text x="44" y="32" font-family="Helvetica, Segoe UI Emoji" font-size="16px" fill="#c92a2a" text-anchor="middle" style="white-space: pre;" direction="ltr">try again</text></g><g stroke-linecap="round" transform="translate(672.774893653447 877.5990854661075) rotate(0 62.64819626022097 75.02499611233787)"><path d="M31.32 0 M31.32 0 C45.64 0, 59.96 0, 93.97 0 M31.32 0 C55.42 0, 79.53 0, 93.97 0 M93.97 0 C114.86 0, 125.3 10.44, 125.3 31.32 M93.97 0 C114.86 0, 125.3 10.44, 125.3 31.32 M125.3 31.32 C125.3 65.92, 125.3 100.52, 125.3 118.73 M125.3 31.32 C125.3 54.27, 125.3 77.21, 125.3 118.73 M125.3 118.73 C125.3 139.61, 114.86 150.05, 93.97 150.05 M125.3 118.73 C125.3 139.61, 114.86 150.05, 93.97 150.05 M93.97 150.05 C79.92 150.05, 65.87 150.05, 31.32 150.05 M93.97 150.05 C81.05 150.05, 68.13 150.05, 31.32 150.05 M31.32 150.05 C10.44 150.05, 0 139.61, 0 118.73 M31.32 150.05 C10.44 150.05, 0 139.61, 0 118.73 M0 118.73 C0 97.21, 0 75.7, 0 31.32 M0 118.73 C0 97.7, 0 76.68, 0 31.32 M0 31.32 C0 10.44, 10.44 0, 31.32 0 M0 31.32 C0 10.44, 10.44 0, 31.32 0" stroke="#c92a2a" stroke-width="1" fill="none"></path></g><g stroke-linecap="round"><g transform="translate(718.3733465864445 872.7857429594887) rotate(0 0.9262813522153692 -58.938960159112355)"><path d="M0 0 C0.31 -19.65, 1.54 -98.23, 1.85 -117.88 M0 0 C0.31 -19.65, 1.54 -98.23, 1.85 -117.88" stroke="#862e9c" stroke-width="1" fill="none"></path></g><g transform="translate(718.3733465864445 872.7857429594887) rotate(0 0.9262813522153692 -58.938960159112355)"><path d="M11.67 -89.53 C8.75 -97.97, 5.82 -106.41, 1.85 -117.88 M11.67 -89.53 C9.4 -96.09, 7.13 -102.65, 1.85 -117.88" stroke="#862e9c" stroke-width="1" fill="none"></path></g><g transform="translate(718.3733465864445 872.7857429594887) rotate(0 0.9262813522153692 -58.938960159112355)"><path d="M-8.85 -89.85 C-5.66 -98.2, -2.48 -106.54, 1.85 -117.88 M-8.85 -89.85 C-6.37 -96.34, -3.9 -102.82, 1.85 -117.88" stroke="#862e9c" stroke-width="1" fill="none"></path></g></g><g stroke-linecap="round"><g transform="translate(762.2317188826892 750.5822534103977) rotate(0 -5.188611279950521 61.81646604774693)"><path d="M0 0 C-1.73 20.61, -8.65 103.03, -10.38 123.63 M0 0 C-1.73 20.61, -8.65 103.03, -10.38 123.63" stroke="#862e9c" stroke-width="1" fill="none"></path></g><g transform="translate(762.2317188826892 750.5822534103977) rotate(0 -5.188611279950521 61.81646604774693)"><path d="M-18.24 94.68 C-15.52 104.71, -12.79 114.74, -10.38 123.63 M-18.24 94.68 C-15.46 104.94, -12.67 115.21, -10.38 123.63" stroke="#862e9c" stroke-width="1" fill="none"></path></g><g transform="translate(762.2317188826892 750.5822534103977) rotate(0 -5.188611279950521 61.81646604774693)"><path d="M2.21 96.4 C-2.15 105.83, -6.51 115.27, -10.38 123.63 M2.21 96.4 C-2.25 106.05, -6.71 115.71, -10.38 123.63" stroke="#862e9c" stroke-width="1" fill="none"></path></g></g><g transform="translate(726.3454912377974 871.7439176367848) rotate(0 69 9)"><text x="69" y="14" font-family="Helvetica, Segoe UI Emoji" font-size="16px" fill="#862e9c" text-anchor="middle" style="white-space: pre;" direction="ltr">Make same to start</text></g><g transform="translate(1364.0920714526274 282.8310788737355) rotate(0 44.5 9)"><text x="44.5" y="14" font-family="Helvetica, Segoe UI Emoji" font-size="16px" fill="#2b8a3e" text-anchor="middle" style="white-space: pre;" direction="ltr">@username</text></g><g transform="translate(1360.8268299409924 305.2983946249752) rotate(0 143 27)"><text x="0" y="14" font-family="Helvetica, Segoe UI Emoji" font-size="16px" fill="#2b8a3e" text-anchor="start" style="white-space: pre;" direction="ltr">Lorem ipsum dolor sit amet, consectetur</text><text x="0" y="32" font-family="Helvetica, Segoe UI Emoji" font-size="16px" fill="#2b8a3e" text-anchor="start" style="white-space: pre;" direction="ltr">adipiscing elit. Pellentesque interdum</text><text x="0" y="50" font-family="Helvetica, Segoe UI Emoji" font-size="16px" fill="#2b8a3e" text-anchor="start" style="white-space: pre;" direction="ltr">rutrum sodales. </text></g><g transform="translate(1544.7634266074424 377.7966323548294) rotate(0 63 18)"><text x="0" y="14" font-family="Helvetica, Segoe UI Emoji" font-size="16px" fill="#2b8a3e" text-anchor="start" style="white-space: pre;" direction="ltr">Peep sent: 17:24</text><text x="0" y="32" font-family="Helvetica, Segoe UI Emoji" font-size="16px" fill="#2b8a3e" text-anchor="start" style="white-space: pre;" direction="ltr">5th October 2022</text></g><g transform="translate(1560.5926868618355 429.94698015873985) rotate(0 84.5 36)"><text x="0" y="14" font-family="Helvetica, Segoe UI Emoji" font-size="16px" fill="#c92a2a" text-anchor="start" style="white-space: pre;" direction="ltr">Stage 3</text><text x="0" y="32" font-family="Helvetica, Segoe UI Emoji" font-size="16px" fill="#c92a2a" text-anchor="start" style="white-space: pre;" direction="ltr">Peep sent: 53 mins ago</text><text x="0" y="50" font-family="Helvetica, Segoe UI Emoji" font-size="16px" fill="#c92a2a" text-anchor="start" style="white-space: pre;" direction="ltr">3 hours ago</text><text x="0" y="68" font-family="Helvetica, Segoe UI Emoji" font-size="16px" fill="#c92a2a" text-anchor="start" style="white-space: pre;" direction="ltr">2 days ago</text></g><g transform="translate(1552.6779779311328 561.3047807552879) rotate(0 42 9)"><text x="0" y="14" font-family="Helvetica, Segoe UI Emoji" font-size="16px" fill="#2b8a3e" text-anchor="start" style="white-space: pre;" direction="ltr">/peeps/new</text></g><g stroke-linecap="round" transform="translate(1039.33735408286 1025.1662087058996) rotate(0 180.81168943319244 92.83624334665956)"><path d="M46.42 0 M46.42 0 C113.92 0, 181.42 0, 315.21 0 M46.42 0 C117.56 0, 188.7 0, 315.21 0 M315.21 0 C346.15 0, 361.62 15.47, 361.62 46.42 M315.21 0 C346.15 0, 361.62 15.47, 361.62 46.42 M361.62 46.42 C361.62 74.16, 361.62 101.9, 361.62 139.25 M361.62 46.42 C361.62 80.32, 361.62 114.22, 361.62 139.25 M361.62 139.25 C361.62 170.2, 346.15 185.67, 315.21 185.67 M361.62 139.25 C361.62 170.2, 346.15 185.67, 315.21 185.67 M315.21 185.67 C249.21 185.67, 183.21 185.67, 46.42 185.67 M315.21 185.67 C242.86 185.67, 170.52 185.67, 46.42 185.67 M46.42 185.67 C15.47 185.67, 0 170.2, 0 139.25 M46.42 185.67 C15.47 185.67, 0 170.2, 0 139.25 M0 139.25 C0 114.23, 0 89.2, 0 46.42 M0 139.25 C0 119.05, 0 98.85, 0 46.42 M0 46.42 C0 15.47, 15.47 0, 46.42 0 M0 46.42 C0 15.47, 15.47 0, 46.42 0" stroke="#e67700" stroke-width="1" fill="none"></path></g><g transform="translate(1100.5001506366727 1059.4232119600026) rotate(0 128 65.00000000000006)"><text x="0" y="14.571428571428573" font-family="Helvetica, Segoe UI Emoji" font-size="16px" fill="#e67700" text-anchor="start" style="white-space: pre;" direction="ltr">1. Reply to peep</text><text x="0" y="33.142857142857146" font-family="Helvetica, Segoe UI Emoji" font-size="16px" fill="#e67700" text-anchor="start" style="white-space: pre;" direction="ltr">2. CSS to look nice</text><text x="0" y="51.71428571428572" font-family="Helvetica, Segoe UI Emoji" font-size="16px" fill="#e67700" text-anchor="start" style="white-space: pre;" direction="ltr">3. Delete peep</text><text x="0" y="70.28571428571429" font-family="Helvetica, Segoe UI Emoji" font-size="16px" fill="#e67700" text-anchor="start" style="white-space: pre;" direction="ltr">4. See user peeps</text><text x="0" y="88.85714285714286" font-family="Helvetica, Segoe UI Emoji" font-size="16px" fill="#e67700" text-anchor="start" style="white-space: pre;" direction="ltr">5. See peeps you've been tagged in</text><text x="0" y="107.42857142857144" font-family="Helvetica, Segoe UI Emoji" font-size="16px" fill="#e67700" text-anchor="start" style="white-space: pre;" direction="ltr">6. Search... lol</text><text x="0" y="126" font-family="Helvetica, Segoe UI Emoji" font-size="16px" fill="#e67700" text-anchor="start" style="white-space: pre;" direction="ltr">7. Following?</text></g><g transform="translate(1170.507451708397 1000.6693155777821) rotate(0 29.5 9)"><text x="0" y="14" font-family="Helvetica, Segoe UI Emoji" font-size="16px" fill="#e67700" text-anchor="start" style="white-space: pre;" direction="ltr">If time...</text></g><g stroke-linecap="round"><g transform="translate(1709.2285501709687 688.8509767363037) rotate(0 -200.11701173991514 -74.76120188067097)"><path d="M0 0 C-19.65 -27.46, -51.22 -167.29, -117.92 -164.74 C-184.63 -162.2, -353.18 -14.74, -400.23 15.26 M0 0 C-19.65 -27.46, -51.22 -167.29, -117.92 -164.74 C-184.63 -162.2, -353.18 -14.74, -400.23 15.26" stroke="#2b8a3e" stroke-width="1" fill="none"></path></g><g transform="translate(1709.2285501709687 688.8509767363037) rotate(0 -200.11701173991514 -74.76120188067097)"><path d="M-383.79 -9.83 C-387.54 -4.11, -391.29 1.62, -400.23 15.26 M-383.79 -9.83 C-389.88 -0.55, -395.96 8.74, -400.23 15.26" stroke="#2b8a3e" stroke-width="1" fill="none"></path></g><g transform="translate(1709.2285501709687 688.8509767363037) rotate(0 -200.11701173991514 -74.76120188067097)"><path d="M-371.51 6.61 C-378.06 8.58, -384.62 10.55, -400.23 15.26 M-371.51 6.61 C-382.14 9.81, -392.77 13.01, -400.23 15.26" stroke="#2b8a3e" stroke-width="1" fill="none"></path></g></g><g stroke-linecap="round"><g transform="translate(473.5678259975537 519.1339935140229) rotate(0 503.15904628304645 -52.54083703918772)"><path d="M0 0 C112.42 -35.71, 506.81 -232.63, 674.53 -214.23 C842.25 -195.84, 951.02 56.26, 1006.32 110.36 M0 0 C112.42 -35.71, 506.81 -232.63, 674.53 -214.23 C842.25 -195.84, 951.02 56.26, 1006.32 110.36" stroke="#000000" stroke-width="1" fill="none"></path></g><g transform="translate(473.5678259975537 519.1339935140229) rotate(0 503.15904628304645 -52.54083703918772)"><path d="M981.62 93.33 C990.18 99.24, 998.75 105.14, 1006.32 110.36 M981.62 93.33 C991.17 99.92, 1000.72 106.5, 1006.32 110.36" stroke="#000000" stroke-width="1" fill="none"></path></g><g transform="translate(473.5678259975537 519.1339935140229) rotate(0 503.15904628304645 -52.54083703918772)"><path d="M998.34 81.44 C1001.11 91.47, 1003.87 101.5, 1006.32 110.36 M998.34 81.44 C1001.43 92.62, 1004.51 103.8, 1006.32 110.36" stroke="#000000" stroke-width="1" fill="none"></path></g></g><g transform="translate(1542.7878227115013 538.1463216199265) rotate(0 47.5 9)"><text x="0" y="14" font-family="Helvetica, Segoe UI Emoji" font-size="16px" fill="#000000" text-anchor="start" style="white-space: pre;" direction="ltr">Make a peep</text></g><g stroke-linecap="round" transform="translate(1530.1989626246823 1020.0151456520327) rotate(0 59 43.5)"><path d="M21.75 0 M21.75 0 C39.97 0, 58.19 0, 96.25 0 M21.75 0 C39.38 0, 57.01 0, 96.25 0 M96.25 0 C110.75 0, 118 7.25, 118 21.75 M96.25 0 C110.75 0, 118 7.25, 118 21.75 M118 21.75 C118 36.41, 118 51.07, 118 65.25 M118 21.75 C118 32.14, 118 42.53, 118 65.25 M118 65.25 C118 79.75, 110.75 87, 96.25 87 M118 65.25 C118 79.75, 110.75 87, 96.25 87 M96.25 87 C80.4 87, 64.54 87, 21.75 87 M96.25 87 C76.62 87, 56.98 87, 21.75 87 M21.75 87 C7.25 87, 0 79.75, 0 65.25 M21.75 87 C7.25 87, 0 79.75, 0 65.25 M0 65.25 C0 55.73, 0 46.22, 0 21.75 M0 65.25 C0 52.94, 0 40.64, 0 21.75 M0 21.75 C0 7.25, 7.25 0, 21.75 0 M0 21.75 C0 7.25, 7.25 0, 21.75 0" stroke="#862e9c" stroke-width="1" fill="none"></path></g><g transform="translate(1550.1989626246823 1027.5151456520327) rotate(0 39 27)"><text x="39" y="14" font-family="Helvetica, Segoe UI Emoji" font-size="16px" fill="#862e9c" text-anchor="middle" style="white-space: pre;" direction="ltr">Logout</text><text x="39" y="32" font-family="Helvetica, Segoe UI Emoji" font-size="16px" fill="#862e9c" text-anchor="middle" style="white-space: pre;" direction="ltr">- back to </text><text x="39" y="50" font-family="Helvetica, Segoe UI Emoji" font-size="16px" fill="#862e9c" text-anchor="middle" style="white-space: pre;" direction="ltr">homepage</text></g><g stroke-linecap="round"><g transform="translate(1187.929961247518 828.2983512434143) rotate(0 169.6125968968131 125.42026722408315)"><path d="M0 0 C56.54 41.81, 282.69 209.03, 339.23 250.84 M0 0 C56.54 41.81, 282.69 209.03, 339.23 250.84" stroke="#862e9c" stroke-width="1" fill="none"></path></g><g transform="translate(1187.929961247518 828.2983512434143) rotate(0 169.6125968968131 125.42026722408315)"><path d="M310.46 242.33 C317.14 244.31, 323.82 246.28, 339.23 250.84 M310.46 242.33 C318.35 244.66, 326.23 247, 339.23 250.84" stroke="#862e9c" stroke-width="1" fill="none"></path></g><g transform="translate(1187.929961247518 828.2983512434143) rotate(0 169.6125968968131 125.42026722408315)"><path d="M322.66 225.83 C326.51 231.64, 330.35 237.45, 339.23 250.84 M322.66 225.83 C327.2 232.69, 331.74 239.55, 339.23 250.84" stroke="#862e9c" stroke-width="1" fill="none"></path></g></g><g stroke-linecap="round"><g transform="translate(1568.8046426172482 873.135970099115) rotate(0 -1.3951599985226721 72.75990027645895)"><path d="M0 0 C-0.47 24.25, -2.33 121.27, -2.79 145.52 M0 0 C-0.47 24.25, -2.33 121.27, -2.79 145.52" stroke="#862e9c" stroke-width="1" fill="none"></path></g><g transform="translate(1568.8046426172482 873.135970099115) rotate(0 -1.3951599985226721 72.75990027645895)"><path d="M-12.51 117.14 C-9.66 125.46, -6.81 133.78, -2.79 145.52 M-12.51 117.14 C-9.68 125.41, -6.84 133.68, -2.79 145.52" stroke="#862e9c" stroke-width="1" fill="none"></path></g><g transform="translate(1568.8046426172482 873.135970099115) rotate(0 -1.3951599985226721 72.75990027645895)"><path d="M8.01 117.53 C4.84 125.74, 1.68 133.94, -2.79 145.52 M8.01 117.53 C4.86 125.69, 1.72 133.84, -2.79 145.52" stroke="#862e9c" stroke-width="1" fill="none"></path></g></g><g stroke-linecap="round"><g transform="translate(1730.8749276328033 778.4920137260917) rotate(0 15.239889682535818 77.97556367711002)"><path d="M0 0 C5.08 25.99, 25.4 129.96, 30.48 155.95 M0 0 C5.08 25.99, 25.4 129.96, 30.48 155.95" stroke="#e67700" stroke-width="1" fill="none"></path></g><g transform="translate(1730.8749276328033 778.4920137260917) rotate(0 15.239889682535818 77.97556367711002)"><path d="M15 130.25 C18.66 136.32, 22.31 142.39, 30.48 155.95 M15 130.25 C20.48 139.35, 25.97 148.46, 30.48 155.95" stroke="#e67700" stroke-width="1" fill="none"></path></g><g transform="translate(1730.8749276328033 778.4920137260917) rotate(0 15.239889682535818 77.97556367711002)"><path d="M35.14 126.32 C34.04 133.32, 32.94 140.32, 30.48 155.95 M35.14 126.32 C33.49 136.81, 31.84 147.31, 30.48 155.95" stroke="#e67700" stroke-width="1" fill="none"></path></g></g><g transform="translate(1714.3194282873453 947.8155039393771) rotate(0 113.5 46.5)"><text x="0" y="14.600000000000001" font-family="Helvetica, Segoe UI Emoji" font-size="16px" fill="#e67700" text-anchor="start" style="white-space: pre;" direction="ltr">scan peep for @username</text><text x="0" y="33.2" font-family="Helvetica, Segoe UI Emoji" font-size="16px" fill="#e67700" text-anchor="start" style="white-space: pre;" direction="ltr"></text><text x="0" y="51.800000000000004" font-family="Helvetica, Segoe UI Emoji" font-size="16px" fill="#e67700" text-anchor="start" style="white-space: pre;" direction="ltr">if one:</text><text x="0" y="70.4" font-family="Helvetica, Segoe UI Emoji" font-size="16px" fill="#e67700" text-anchor="start" style="white-space: pre;" direction="ltr">send email (lookup API for this!)</text><text x="0" y="89" font-family="Helvetica, Segoe UI Emoji" font-size="16px" fill="#e67700" text-anchor="start" style="white-space: pre;" direction="ltr">Need: email contents</text></g><g transform="translate(1426.148546951984 243.85864736414896) rotate(0 35.5 9)"><text x="0" y="14" font-family="Helvetica, Segoe UI Emoji" font-size="16px" fill="#000000" text-anchor="start" style="white-space: pre;" direction="ltr">/peeps/:id</text></g><g transform="translate(645.888967670445 1043.904202605072) rotate(0 90 9.5)"><text x="0" y="15" font-family="Cascadia, Segoe UI Emoji" font-size="16px" fill="#000000" text-anchor="start" style="white-space: pre;" direction="ltr">/login/bad_username</text></g><g transform="translate(819.2229653430911 1029.555125069421) rotate(0 89.5 19)"><text x="0" y="15" font-family="Cascadia, Segoe UI Emoji" font-size="16px" fill="#000000" text-anchor="start" style="white-space: pre;" direction="ltr">/login/bad_password</text><text x="0" y="34" font-family="Cascadia, Segoe UI Emoji" font-size="16px" fill="#000000" text-anchor="start" style="white-space: pre;" direction="ltr"></text></g><g stroke-linecap="round"><g transform="translate(1276.5785468824806 534.4432294321848) rotate(0 48.999232008657714 -62.61537459996336)"><path d="M0 0 C16.33 -20.87, 81.67 -104.36, 98 -125.23 M0 0 C16.33 -20.87, 81.67 -104.36, 98 -125.23" stroke="#000000" stroke-width="1" fill="none"></path></g><g transform="translate(1276.5785468824806 534.4432294321848) rotate(0 48.999232008657714 -62.61537459996336)"><path d="M88.71 -96.71 C90.87 -103.34, 93.03 -109.98, 98 -125.23 M88.71 -96.71 C90.91 -103.46, 93.11 -110.22, 98 -125.23" stroke="#000000" stroke-width="1" fill="none"></path></g><g transform="translate(1276.5785468824806 534.4432294321848) rotate(0 48.999232008657714 -62.61537459996336)"><path d="M72.54 -109.35 C78.47 -113.05, 84.39 -116.74, 98 -125.23 M72.54 -109.35 C78.58 -113.11, 84.61 -116.88, 98 -125.23" stroke="#000000" stroke-width="1" fill="none"></path></g></g><g transform="translate(1861.491530216102 68.78895181397093) rotate(0 86.99999999999989 20.5)"><text x="0" y="33" font-family="Helvetica, Segoe UI Emoji" font-size="36px" fill="#000000" text-anchor="start" style="white-space: pre;" direction="ltr">Databases</text></g><g stroke-linecap="round" transform="translate(1702.3952402469629 178.58988539109623) rotate(0 84.98703664893674 51.30922181391651)"><path d="M0 0 C62.16 0, 124.32 0, 169.97 0 M0 0 C66.28 0, 132.55 0, 169.97 0 M169.97 0 C169.97 37.97, 169.97 75.94, 169.97 102.62 M169.97 0 C169.97 23.14, 169.97 46.28, 169.97 102.62 M169.97 102.62 C125.9 102.62, 81.83 102.62, 0 102.62 M169.97 102.62 C123.75 102.62, 77.52 102.62, 0 102.62 M0 102.62 C0 74.91, 0 47.2, 0 0 M0 102.62 C0 75.32, 0 48.01, 0 0" stroke="#000000" stroke-width="1" fill="none"></path></g><g transform="translate(1783.639588857424 138.73575386226776) rotate(0 24.5 11.5)"><text x="0" y="18" font-family="Helvetica, Segoe UI Emoji" font-size="20px" fill="#000000" text-anchor="start" style="white-space: pre;" direction="ltr">Peep</text></g><g transform="translate(2082.067886243243 138.5343531284259) rotate(0 27 11.5)"><text x="0" y="18" font-family="Helvetica, Segoe UI Emoji" font-size="20px" fill="#000000" text-anchor="start" style="white-space: pre;" direction="ltr">Users</text></g><g stroke-linecap="round" transform="translate(2032.7070209165079 184.5816376116943) rotate(0 93.0313828307244 83.97338750580519)"><path d="M0 0 C42.71 0, 85.42 0, 186.06 0 M0 0 C50.79 0, 101.58 0, 186.06 0 M186.06 0 C186.06 62.71, 186.06 125.43, 186.06 167.95 M186.06 0 C186.06 60.51, 186.06 121.02, 186.06 167.95 M186.06 167.95 C135.77 167.95, 85.48 167.95, 0 167.95 M186.06 167.95 C144.75 167.95, 103.43 167.95, 0 167.95 M0 167.95 C0 120.52, 0 73.1, 0 0 M0 167.95 C0 133.14, 0 98.34, 0 0" stroke="#000000" stroke-width="1" fill="none"></path></g><g transform="translate(1722.1087170794424 193.43695418771443) rotate(0 40 34.5)"><text x="0" y="18" font-family="Helvetica, Segoe UI Emoji" font-size="20px" fill="#000000" text-anchor="start" style="white-space: pre;" direction="ltr">- content</text><text x="0" y="41" font-family="Helvetica, Segoe UI Emoji" font-size="20px" fill="#000000" text-anchor="start" style="white-space: pre;" direction="ltr">- time</text><text x="0" y="64" font-family="Helvetica, Segoe UI Emoji" font-size="20px" fill="#000000" text-anchor="start" style="white-space: pre;" direction="ltr">- user_id</text></g><g transform="translate(2056.066290490287 201.95602301462526) rotate(0 54 69)"><text x="0" y="18" font-family="Helvetica, Segoe UI Emoji" font-size="20px" fill="#000000" text-anchor="start" style="white-space: pre;" direction="ltr">- First name</text><text x="0" y="41" font-family="Helvetica, Segoe UI Emoji" font-size="20px" fill="#000000" text-anchor="start" style="white-space: pre;" direction="ltr">- Last name</text><text x="0" y="64" font-family="Helvetica, Segoe UI Emoji" font-size="20px" fill="#000000" text-anchor="start" style="white-space: pre;" direction="ltr">- Username</text><text x="0" y="87" font-family="Helvetica, Segoe UI Emoji" font-size="20px" fill="#000000" text-anchor="start" style="white-space: pre;" direction="ltr">- Email</text><text x="0" y="110" font-family="Helvetica, Segoe UI Emoji" font-size="20px" fill="#000000" text-anchor="start" style="white-space: pre;" direction="ltr">- Password</text><text x="0" y="133" font-family="Helvetica, Segoe UI Emoji" font-size="20px" fill="#000000" text-anchor="start" style="white-space: pre;" direction="ltr"></text></g><g stroke-linecap="round"><g transform="translate(2053.7412320983226 256.4746253791272) rotate(0 -120.95290408713186 -0.8257458142516754)"><path d="M0 0 C-40.32 -0.28, -201.59 -1.38, -241.91 -1.65 M0 0 C-40.32 -0.28, -201.59 -1.38, -241.91 -1.65" stroke="#000000" stroke-width="1" fill="none"></path></g><g transform="translate(2053.7412320983226 256.4746253791272) rotate(0 -120.95290408713186 -0.8257458142516754)"><path d="M-213.65 -11.72 C-219.79 -9.53, -225.94 -7.34, -241.91 -1.65 M-213.65 -11.72 C-222.02 -8.73, -230.4 -5.75, -241.91 -1.65" stroke="#000000" stroke-width="1" fill="none"></path></g><g transform="translate(2053.7412320983226 256.4746253791272) rotate(0 -120.95290408713186 -0.8257458142516754)"><path d="M-213.79 8.8 C-219.9 6.53, -226.02 4.25, -241.91 -1.65 M-213.79 8.8 C-222.12 5.7, -230.46 2.6, -241.91 -1.65" stroke="#000000" stroke-width="1" fill="none"></path></g></g><g transform="translate(1516.831956980248 813.9462986154156) rotate(0 44.5 9)"><text x="0" y="14" font-family="Helvetica, Segoe UI Emoji" font-size="16px" fill="#2b8a3e" text-anchor="start" style="white-space: pre;" direction="ltr">Link: Logout</text></g><g stroke-linecap="round" transform="translate(1693.056420056336 10) rotate(0 291.1169898515809 189.04947744884)"><path d="M0 0 C199.16 0, 398.32 0, 582.23 0 M0 0 C231.62 0, 463.24 0, 582.23 0 M582.23 0 C582.23 87.94, 582.23 175.89, 582.23 378.1 M582.23 0 C582.23 118.14, 582.23 236.29, 582.23 378.1 M582.23 378.1 C367.67 378.1, 153.11 378.1, 0 378.1 M582.23 378.1 C370.11 378.1, 157.99 378.1, 0 378.1 M0 378.1 C0 236.17, 0 94.25, 0 0 M0 378.1 C0 235.91, 0 93.71, 0 0" stroke="#000000" stroke-width="1" fill="none"></path></g><g transform="translate(1797.1292578073746 457.80382002953303) rotate(0 99 46.5)"><text x="0" y="14.600000000000001" font-family="Helvetica, Segoe UI Emoji" font-size="16px" fill="#000000" text-anchor="start" style="white-space: pre;" direction="ltr">Peep (author, content, time)</text><text x="0" y="33.2" font-family="Helvetica, Segoe UI Emoji" font-size="16px" fill="#000000" text-anchor="start" style="white-space: pre;" direction="ltr">- author</text><text x="0" y="51.800000000000004" font-family="Helvetica, Segoe UI Emoji" font-size="16px" fill="#000000" text-anchor="start" style="white-space: pre;" direction="ltr">- content</text><text x="0" y="70.4" font-family="Helvetica, Segoe UI Emoji" font-size="16px" fill="#000000" text-anchor="start" style="white-space: pre;" direction="ltr">- time</text><text x="0" y="89" font-family="Helvetica, Segoe UI Emoji" font-size="16px" fill="#000000" text-anchor="start" style="white-space: pre;" direction="ltr">- format?? </text></g><g transform="translate(2097.2152793813793 457.68539611946) rotate(0 83 46.5)"><text x="0" y="14.600000000000001" font-family="Helvetica, Segoe UI Emoji" font-size="16px" fill="#000000" text-anchor="start" style="white-space: pre;" direction="ltr">Feed</text><text x="0" y="33.2" font-family="Helvetica, Segoe UI Emoji" font-size="16px" fill="#000000" text-anchor="start" style="white-space: pre;" direction="ltr">- add(peep)</text><text x="0" y="51.800000000000004" font-family="Helvetica, Segoe UI Emoji" font-size="16px" fill="#000000" text-anchor="start" style="white-space: pre;" direction="ltr">- all peeps</text><text x="0" y="70.4" font-family="Helvetica, Segoe UI Emoji" font-size="16px" fill="#000000" text-anchor="start" style="white-space: pre;" direction="ltr">- search_for_username</text><text x="0" y="89" font-family="Helvetica, Segoe UI Emoji" font-size="16px" fill="#000000" text-anchor="start" style="white-space: pre;" direction="ltr"></text></g><g transform="translate(1819.7483073343662 623.772923439164) rotate(0 130.5 18.49999999999997)"><text x="0" y="15.5" font-family="Helvetica, Segoe UI Emoji" font-size="16px" fill="#000000" text-anchor="start" style="white-space: pre;" direction="ltr">User (un, first, last, email, password)</text><text x="0" y="34" font-family="Helvetica, Segoe UI Emoji" font-size="16px" fill="#000000" text-anchor="start" style="white-space: pre;" direction="ltr">- </text></g><g stroke-linecap="round" transform="translate(667.1268476002415 1241.5564966417628) rotate(0 118.02869425323524 136.59522276569362)"><path d="M0 0 C50.88 0, 101.76 0, 236.06 0 M0 0 C76.51 0, 153.02 0, 236.06 0 M236.06 0 C236.06 103.65, 236.06 207.3, 236.06 273.19 M236.06 0 C236.06 79.62, 236.06 159.25, 236.06 273.19 M236.06 273.19 C150.28 273.19, 64.51 273.19, 0 273.19 M236.06 273.19 C188.34 273.19, 140.62 273.19, 0 273.19 M0 273.19 C0 215.13, 0 157.07, 0 0 M0 273.19 C0 164.79, 0 56.38, 0 0" stroke="#000000" stroke-width="1" fill="none"></path></g><g transform="translate(700.4137404988612 1263.9133060844777) rotate(0 99.5 120.5)"><text x="0" y="14.53846153846154" font-family="Helvetica, Segoe UI Emoji" font-size="16px" fill="#000000" text-anchor="start" style="white-space: pre;" direction="ltr">To do:</text><text x="0" y="33.07692307692308" font-family="Helvetica, Segoe UI Emoji" font-size="16px" fill="#000000" text-anchor="start" style="white-space: pre;" direction="ltr">-- Ensure logged-in </text><text x="0" y="51.61538461538462" font-family="Helvetica, Segoe UI Emoji" font-size="16px" fill="#000000" text-anchor="start" style="white-space: pre;" direction="ltr">person automatically </text><text x="0" y="70.15384615384616" font-family="Helvetica, Segoe UI Emoji" font-size="16px" fill="#000000" text-anchor="start" style="white-space: pre;" direction="ltr">authors peep</text><text x="0" y="88.69230769230771" font-family="Helvetica, Segoe UI Emoji" font-size="16px" fill="#000000" text-anchor="start" style="white-space: pre;" direction="ltr">- Make the site flow</text><text x="0" y="107.23076923076924" font-family="Helvetica, Segoe UI Emoji" font-size="16px" fill="#000000" text-anchor="start" style="white-space: pre;" direction="ltr">- Better timestamp</text><text x="0" y="125.76923076923077" font-family="Helvetica, Segoe UI Emoji" font-size="16px" fill="#000000" text-anchor="start" style="white-space: pre;" direction="ltr">- Make p/w 8 chars etc</text><text x="0" y="144.30769230769232" font-family="Helvetica, Segoe UI Emoji" font-size="16px" fill="#000000" text-anchor="start" style="white-space: pre;" direction="ltr">- Capitalize</text><text x="0" y="162.84615384615387" font-family="Helvetica, Segoe UI Emoji" font-size="16px" fill="#000000" text-anchor="start" style="white-space: pre;" direction="ltr">- Ensure email has @.com</text><text x="0" y="181.38461538461542" font-family="Helvetica, Segoe UI Emoji" font-size="16px" fill="#000000" text-anchor="start" style="white-space: pre;" direction="ltr">- Upload to heroku</text><text x="0" y="199.92307692307693" font-family="Helvetica, Segoe UI Emoji" font-size="16px" fill="#000000" text-anchor="start" style="white-space: pre;" direction="ltr">- Boxes on peeps / colours?</text><text x="0" y="218.46153846153848" font-family="Helvetica, Segoe UI Emoji" font-size="16px" fill="#000000" text-anchor="start" style="white-space: pre;" direction="ltr">- Write copy...</text><text x="0" y="237.00000000000003" font-family="Helvetica, Segoe UI Emoji" font-size="16px" fill="#000000" text-anchor="start" style="white-space: pre;" direction="ltr"></text></g></svg>