<svg id="Layer_1" data-name="Layer 1" xmlns="http://www.w3.org/2000/svg" viewBox="0 0 155.28 137.89">
  <defs>
    <style>
      .cls-1 {
        fill: #0d6dfc;
      }
    </style>
  </defs>
  <path class="cls-1" d="M145.47,53.87l-19.65-13.1c-4.35-18.37-19.45-25.33-32.79-24h0A31.88,31.88,0,0,0,64.24,43.65L27.54,19.18a3.47,3.47,0,0,0-4.81,1c-7,10.53-8.08,23.67-3,37A65.69,65.69,0,0,0,41.82,85.5c-7.29,10.64-24.12,16.34-30.08,16.34A3.47,3.47,0,0,0,10,108.32a97.5,97.5,0,0,0,48.1,13A79.74,79.74,0,0,0,98.2,111c17.29-10,27.14-25.88,27.94-44.81L144.64,60a3.47,3.47,0,0,0,.82-6.17Zm-47-.58a7,7,0,1,1,4.9-2,6.93,6.93,0,0,1-4.9,2Z"/>
</svg>
