<svg id="Layer_1" data-name="Layer 1" xmlns="http://www.w3.org/2000/svg" viewBox="0 0 155.28 137.89">
  <defs>
    <style>
      .cls-1 {
        fill: #4294ff;
      }

      .cls-2 {
        fill: #e6ecff;
      }
    </style>
  </defs>
  <g>
    <ellipse class="cls-1" cx="77.64" cy="75.37" rx="53.04" ry="52.74"/>
    <path class="cls-2" d="M77.64,5.17A64.67,64.67,0,1,0,142.3,69.83,64.73,64.73,0,0,0,77.64,5.17Zm0,23.09a23.1,23.1,0,1,1-23.1,23.1A23.17,23.17,0,0,1,77.64,28.26ZM59.16,83.69h37a23.15,23.15,0,0,1,23.08,22.79,55.36,55.36,0,0,1-83.11,0A23.15,23.15,0,0,1,59.16,83.69Z"/>
  </g>
</svg>
