<svg height="512pt" viewBox="0 0 512 512" width="512pt" xmlns="http://www.w3.org/2000/svg"><path d="m440.765625 497c-8.28125 0-15-6.714844-15-15v-64.265625c0-8.285156 6.71875-15 15-15 8.285156 0 15 6.714844 15 15v64.265625c0 8.285156-6.714844 15-15 15zm0 0" fill="#504541"/><path d="m455.765625 482v-64.265625c0-8.285156-6.714844-15-15-15v94.265625c8.285156 0 15-6.714844 15-15zm0 0" fill="#3d3532"/><path d="m344.367188 497c-8.285157 0-15-6.714844-15-15v-64.265625c0-8.285156 6.714843-15 15-15 8.28125 0 15 6.714844 15 15v64.265625c0 8.285156-6.71875 15-15 15zm0 0" fill="#bb8272"/><path d="m359.367188 482v-64.265625c0-8.285156-6.71875-15-15-15-.007813 0-.011719 0-.015626 0v94.265625h.015626c8.28125 0 15-6.714844 15-15zm0 0" fill="#875140"/><path d="m344.382812 447.734375c-30.441406 0-55.183593-24.742187-55.183593-55.152344v-96.433593c0-30.410157 24.742187-55.148438 55.152343-55.148438 30.441407 0 55.179688 24.738281 55.179688 55.148438v96.433593c0 30.410157-24.738281 55.152344-55.148438 55.152344zm0 0" fill="#9adb05"/><path d="m399.53125 392.582031v-96.433593c0-30.410157-24.738281-55.148438-55.179688-55.148438v206.734375h.03125c30.410157 0 55.148438-24.742187 55.148438-55.152344zm0 0" fill="#00ca76"/><path d="m95.351562 447.734375c-52.59375 0-95.351562-42.761719-95.351562-95.320313v-144.628906c0-52.558594 42.757812-95.316406 95.316406-95.316406 52.589844 0 95.351563 42.757812 95.351563 95.316406v144.628906c0 52.558594-42.761719 95.320313-95.316407 95.320313zm0 0" fill="#9adb05"/><path d="m95.351562 447.734375c52.558594 0 95.316407-42.761719 95.316407-95.320313v-144.628906c0-52.558594-42.761719-95.316406-95.351563-95.316406v335.265625zm0 0" fill="#00ca76"/><path d="m95.332031 497c-8.28125 0-15-6.714844-15-15v-289.199219c0-8.285156 6.71875-15 15-15 8.285157 0 15 6.714844 15 15v289.199219c0 8.285156-6.714843 15-15 15zm0 0" fill="#875140"/><path d="m95.316406 497h.015625c8.285157 0 15-6.714844 15-15v-289.199219c0-8.285156-6.714843-15-15-15-.003906 0-.007812 0-.015625 0zm0 0" fill="#504541"/><path d="m440.765625 447.734375c-39.277344 0-71.230469-31.957031-71.230469-71.234375v-112.46875c0-39.277344 31.953125-71.230469 71.230469-71.230469 39.28125 0 71.234375 31.953125 71.234375 71.230469v112.46875c0 39.277344-31.953125 71.234375-71.234375 71.234375zm0 0" fill="#9adb05"/><path d="m512 376.5v-112.46875c0-39.277344-31.953125-71.230469-71.234375-71.230469v254.933594c39.28125 0 71.234375-31.957031 71.234375-71.234375zm0 0" fill="#00ca76"/><path d="m497 512h-482c-8.285156 0-15-6.714844-15-15s6.714844-15 15-15h482c8.285156 0 15 6.714844 15 15s-6.714844 15-15 15zm0 0" fill="#9adb05"/><path d="m497 482h-152.632812v30h152.632812c8.285156 0 15-6.714844 15-15s-6.714844-15-15-15zm0 0" fill="#00ca76"/><path d="m384.53125 142.46875h-112.464844c-25.988281 0-47.132812-21.144531-47.132812-47.132812 0-25.757813 20.800781-47.136719 47.132812-47.136719h1.503906c3.4375-27.140625 26.671876-48.199219 54.730469-48.199219 28.058594 0 51.292969 21.058594 54.726563 48.199219h1.503906c25.800781 0 47.132812 20.847656 47.132812 47.132812.003907 25.992188-21.140624 47.136719-47.132812 47.136719zm0 0" fill="#ebf5ff"/><path d="m384.53125 142.46875c25.992188 0 47.132812-21.144531 47.132812-47.132812 0-26.289063-21.332031-47.136719-47.132812-47.136719h-1.503906c-3.433594-27.140625-26.667969-48.199219-54.726563-48.199219v142.46875zm0 0" fill="#cbdfee"/></svg>