<svg version="1.1" xmlns="http://www.w3.org/2000/svg" viewBox="0 0 3052.1279463973524 1168.2624956453305" width="6104.255892794705" height="2336.524991290661">
  <!-- svg-source:excalidraw -->
  
  <defs>
    <style class="style-fonts">
      @font-face {
        font-family: "Virgil";
        src: url("https://excalidraw.com/Virgil.woff2");
      }
      @font-face {
        font-family: "Cascadia";
        src: url("https://excalidraw.com/Cascadia.woff2");
      }
    </style>
  </defs>
  <rect x="0" y="0" width="3052.1279463973524" height="1168.2624956453305" fill="#ffffff"></rect><g stroke-linecap="round" transform="translate(1736.1701190531223 630.0839036216669) rotate(0 128.5 128)"><path d="M0 0 C96.09 0, 192.17 0, 257 0 M0 0 C62.3 0, 124.6 0, 257 0 M257 0 C257 59.23, 257 118.47, 257 256 M257 0 C257 72.23, 257 144.46, 257 256 M257 256 C186.75 256, 116.49 256, 0 256 M257 256 C185.33 256, 113.66 256, 0 256 M0 256 C0 186.8, 0 117.59, 0 0 M0 256 C0 203.79, 0 151.57, 0 0" stroke="#000000" stroke-width="1" fill="none"></path></g><g transform="translate(1740.6701190531223 662.0839036216669) rotate(0 123.5 96)"><text x="123.5" y="26" font-family="Helvetica, Segoe UI Emoji" font-size="28px" fill="#000000" text-anchor="middle" style="white-space: pre;" direction="ltr">Page:</text><text x="123.5" y="58" font-family="Helvetica, Segoe UI Emoji" font-size="28px" fill="#000000" text-anchor="middle" style="white-space: pre;" direction="ltr"></text><text x="123.5" y="90" font-family="Helvetica, Segoe UI Emoji" font-size="28px" fill="#000000" text-anchor="middle" style="white-space: pre;" direction="ltr">List of peeps </text><text x="123.5" y="122" font-family="Helvetica, Segoe UI Emoji" font-size="28px" fill="#000000" text-anchor="middle" style="white-space: pre;" direction="ltr">(ordered in reverse-</text><text x="123.5" y="154" font-family="Helvetica, Segoe UI Emoji" font-size="28px" fill="#000000" text-anchor="middle" style="white-space: pre;" direction="ltr">chronological </text><text x="123.5" y="186" font-family="Helvetica, Segoe UI Emoji" font-size="28px" fill="#000000" text-anchor="middle" style="white-space: pre;" direction="ltr">order)</text></g><g stroke-linecap="round" transform="translate(2166.4298496149545 244.17675009915183) rotate(0 124.49999999999994 127.73492180796244)"><path d="M0 0 C88.85 0, 177.7 0, 249 0 M0 0 C62.22 0, 124.44 0, 249 0 M249 0 C249 70.9, 249 141.8, 249 255.47 M249 0 C249 60.07, 249 120.15, 249 255.47 M249 255.47 C173.75 255.47, 98.5 255.47, 0 255.47 M249 255.47 C153.02 255.47, 57.04 255.47, 0 255.47 M0 255.47 C0 199.73, 0 143.99, 0 0 M0 255.47 C0 163.09, 0 70.71, 0 0" stroke="#000000" stroke-width="1" fill="none"></path></g><g transform="translate(2199.702280220891 307.9116719071143) rotate(0 90.5 48)"><text x="90.5" y="26" font-family="Helvetica, Segoe UI Emoji" font-size="28px" fill="#000000" text-anchor="middle" style="white-space: pre;" direction="ltr">Page:</text><text x="90.5" y="58" font-family="Helvetica, Segoe UI Emoji" font-size="28px" fill="#000000" text-anchor="middle" style="white-space: pre;" direction="ltr"></text><text x="90.5" y="90" font-family="Helvetica, Segoe UI Emoji" font-size="28px" fill="#000000" text-anchor="middle" style="white-space: pre;" direction="ltr">Add new peep</text></g><g stroke-linecap="round"><g transform="translate(1873.4366651524979 614.6722161279065) rotate(0 142.5445866854942 -135.3609426125866)"><path d="M0 0 C7.79 -29.83, 25.68 -137.85, 46.73 -179.01 C67.77 -220.16, 86.56 -231.66, 126.29 -246.95 C166.02 -262.23, 258.62 -266.76, 285.09 -270.72 M0 0 C7.79 -29.83, 25.68 -137.85, 46.73 -179.01 C67.77 -220.16, 86.56 -231.66, 126.29 -246.95 C166.02 -262.23, 258.62 -266.76, 285.09 -270.72" stroke="#000000" stroke-width="1" fill="none"></path></g><g transform="translate(1873.4366651524979 614.6722161279065) rotate(0 142.5445866854942 -135.3609426125866)"><path d="M258.11 -257.6 C265.95 -261.42, 273.79 -265.23, 285.09 -270.72 M258.11 -257.6 C263.54 -260.24, 268.97 -262.88, 285.09 -270.72" stroke="#000000" stroke-width="1" fill="none"></path></g><g transform="translate(1873.4366651524979 614.6722161279065) rotate(0 142.5445866854942 -135.3609426125866)"><path d="M255.99 -278.02 C264.45 -275.9, 272.9 -273.78, 285.09 -270.72 M255.99 -278.02 C261.84 -276.55, 267.7 -275.08, 285.09 -270.72" stroke="#000000" stroke-width="1" fill="none"></path></g></g><g transform="translate(1932.299578689059 316.232451851072) rotate(0 75.5 16)"><text x="0" y="26" font-family="Helvetica, Segoe UI Emoji" font-size="28px" fill="#000000" text-anchor="start" style="white-space: pre;" direction="ltr">Click on link</text></g><g stroke-linecap="round" transform="translate(2656.7226124406025 472.82255398442214) rotate(0 124.5 127.73492180796242)"><path d="M0 0 C58.45 0, 116.91 0, 249 0 M0 0 C74.18 0, 148.37 0, 249 0 M249 0 C249 73.4, 249 146.8, 249 255.47 M249 0 C249 99.42, 249 198.84, 249 255.47 M249 255.47 C189.33 255.47, 129.65 255.47, 0 255.47 M249 255.47 C149.85 255.47, 50.7 255.47, 0 255.47 M0 255.47 C0 156.69, 0 57.91, 0 0 M0 255.47 C0 180.41, 0 105.34, 0 0" stroke="#000000" stroke-width="1" fill="none"></path></g><g transform="translate(2689.4950430465396 536.5574757923846) rotate(0 91 64)"><text x="91" y="26" font-family="Helvetica, Segoe UI Emoji" font-size="28px" fill="#000000" text-anchor="middle" style="white-space: pre;" direction="ltr">Page:</text><text x="91" y="58" font-family="Helvetica, Segoe UI Emoji" font-size="28px" fill="#000000" text-anchor="middle" style="white-space: pre;" direction="ltr"></text><text x="91" y="90" font-family="Helvetica, Segoe UI Emoji" font-size="28px" fill="#000000" text-anchor="middle" style="white-space: pre;" direction="ltr">Peep creation </text><text x="91" y="122" font-family="Helvetica, Segoe UI Emoji" font-size="28px" fill="#000000" text-anchor="middle" style="white-space: pre;" direction="ltr">confirmation</text></g><g stroke-linecap="round"><g transform="translate(2424.4596369906308 334.68624947071487) rotate(0 158.63304255085518 61.39005659421605)"><path d="M0 0 C36.26 2.55, 164.7 -5.18, 217.58 15.29 C270.46 35.75, 300.65 104.86, 317.27 122.78 M0 0 C36.26 2.55, 164.7 -5.18, 217.58 15.29 C270.46 35.75, 300.65 104.86, 317.27 122.78" stroke="#000000" stroke-width="1" fill="none"></path></g><g transform="translate(2424.4596369906308 334.68624947071487) rotate(0 158.63304255085518 61.39005659421605)"><path d="M292.78 105.44 C300.7 111.05, 308.62 116.66, 317.27 122.78 M292.78 105.44 C302.22 112.12, 311.66 118.81, 317.27 122.78" stroke="#000000" stroke-width="1" fill="none"></path></g><g transform="translate(2424.4596369906308 334.68624947071487) rotate(0 158.63304255085518 61.39005659421605)"><path d="M309.66 93.76 C312.12 103.15, 314.58 112.54, 317.27 122.78 M309.66 93.76 C312.59 104.95, 315.52 116.13, 317.27 122.78" stroke="#000000" stroke-width="1" fill="none"></path></g></g><g transform="translate(2551.1279463973524 245.10959043384656) rotate(0 245.5 32)"><text x="0" y="26" font-family="Helvetica, Segoe UI Emoji" font-size="28px" fill="#000000" text-anchor="start" style="white-space: pre;" direction="ltr">Submit form to add peep</text><text x="0" y="58" font-family="Helvetica, Segoe UI Emoji" font-size="28px" fill="#000000" text-anchor="start" style="white-space: pre;" direction="ltr">(keep note of the time it was submitted)</text></g><g transform="translate(2066.4008106625142 615.9270224490474) rotate(0 216.5 16)"><text x="0" y="26" font-family="Helvetica, Segoe UI Emoji" font-size="28px" fill="#000000" text-anchor="start" style="white-space: pre;" direction="ltr">Click on link to return to main page</text></g><g stroke-linecap="round"><g transform="translate(2647.1075256028053 610.3715036512287) rotate(0 -315.3821699053192 42.00641269256505)"><path d="M0 0 C-38.42 12.41, -125.42 60.47, -230.55 74.47 C-335.67 88.48, -564.06 82.42, -630.76 84.01 M0 0 C-38.42 12.41, -125.42 60.47, -230.55 74.47 C-335.67 88.48, -564.06 82.42, -630.76 84.01" stroke="#000000" stroke-width="1" fill="none"></path></g><g transform="translate(2647.1075256028053 610.3715036512287) rotate(0 -315.3821699053192 42.00641269256505)"><path d="M-602.59 73.72 C-609.35 76.19, -616.12 78.66, -630.76 84.01 M-602.59 73.72 C-611.86 77.11, -621.14 80.5, -630.76 84.01" stroke="#000000" stroke-width="1" fill="none"></path></g><g transform="translate(2647.1075256028053 610.3715036512287) rotate(0 -315.3821699053192 42.00641269256505)"><path d="M-602.56 94.24 C-609.34 91.78, -616.11 89.33, -630.76 84.01 M-602.56 94.24 C-611.85 90.87, -621.13 87.51, -630.76 84.01" stroke="#000000" stroke-width="1" fill="none"></path></g></g><g stroke-linecap="round" transform="translate(538.4585851109435 113.87935718607253) rotate(0 77 84)"><path d="M0 0 C59.52 0, 119.04 0, 154 0 M0 0 C40.9 0, 81.8 0, 154 0 M154 0 C154 53.1, 154 106.21, 154 168 M154 0 C154 45.04, 154 90.08, 154 168 M154 168 C120.88 168, 87.75 168, 0 168 M154 168 C101.88 168, 49.76 168, 0 168 M0 168 C0 101.46, 0 34.92, 0 0 M0 168 C0 125.8, 0 83.6, 0 0" stroke="#000000" stroke-width="1" fill="none"></path></g><g transform="translate(547.9585851109435 133.87935718607253) rotate(0 67.5 64)"><text x="67.5" y="26" font-family="Helvetica, Segoe UI Emoji" font-size="28px" fill="#000000" text-anchor="middle" style="white-space: pre;" direction="ltr">Page:</text><text x="67.5" y="58" font-family="Helvetica, Segoe UI Emoji" font-size="28px" fill="#000000" text-anchor="middle" style="white-space: pre;" direction="ltr"></text><text x="67.5" y="90" font-family="Helvetica, Segoe UI Emoji" font-size="28px" fill="#000000" text-anchor="middle" style="white-space: pre;" direction="ltr">Sign up to </text><text x="67.5" y="122" font-family="Helvetica, Segoe UI Emoji" font-size="28px" fill="#000000" text-anchor="middle" style="white-space: pre;" direction="ltr">chitter</text></g><g stroke-linecap="round" transform="translate(1197.5288670046036 217.27516488569313) rotate(0 129.9205266580309 110.00415916533103)"><path d="M0 0 C53.51 0, 107.01 0, 259.84 0 M0 0 C73.34 0, 146.68 0, 259.84 0 M259.84 0 C259.84 56.49, 259.84 112.98, 259.84 220.01 M259.84 0 C259.84 56.15, 259.84 112.3, 259.84 220.01 M259.84 220.01 C167.13 220.01, 74.41 220.01, 0 220.01 M259.84 220.01 C178.38 220.01, 96.91 220.01, 0 220.01 M0 220.01 C0 175.93, 0 131.86, 0 0 M0 220.01 C0 155.4, 0 90.8, 0 0" stroke="#000000" stroke-width="1" fill="none"></path></g><g transform="translate(1228.9493936626345 247.2793240510241) rotate(0 98.5 80)"><text x="98.5" y="26" font-family="Helvetica, Segoe UI Emoji" font-size="28px" fill="#000000" text-anchor="middle" style="white-space: pre;" direction="ltr">Page:</text><text x="98.5" y="58" font-family="Helvetica, Segoe UI Emoji" font-size="28px" fill="#000000" text-anchor="middle" style="white-space: pre;" direction="ltr"></text><text x="98.5" y="90" font-family="Helvetica, Segoe UI Emoji" font-size="28px" fill="#000000" text-anchor="middle" style="white-space: pre;" direction="ltr">Chitter account </text><text x="98.5" y="122" font-family="Helvetica, Segoe UI Emoji" font-size="28px" fill="#000000" text-anchor="middle" style="white-space: pre;" direction="ltr">creation </text><text x="98.5" y="154" font-family="Helvetica, Segoe UI Emoji" font-size="28px" fill="#000000" text-anchor="middle" style="white-space: pre;" direction="ltr">confirmation</text></g><g transform="translate(807.8604842774631 86.09456384555716) rotate(0 257.5 32)"><text x="0" y="26" font-family="Helvetica, Segoe UI Emoji" font-size="28px" fill="#000000" text-anchor="start" style="white-space: pre;" direction="ltr">Submit form to create new account</text><text x="0" y="58" font-family="Helvetica, Segoe UI Emoji" font-size="28px" fill="#000000" text-anchor="start" style="white-space: pre;" direction="ltr">(Check the account doesn't already exist)</text></g><g stroke-linecap="round"><g transform="translate(1482.8260194496718 392.29516373023733) rotate(0 154.30410588386553 107.91060127765022)"><path d="M0 0 C34.65 8.08, 156.49 12.5, 207.92 48.47 C259.36 84.44, 291.83 187.93, 308.61 215.82 M0 0 C34.65 8.08, 156.49 12.5, 207.92 48.47 C259.36 84.44, 291.83 187.93, 308.61 215.82" stroke="#000000" stroke-width="1" fill="none"></path></g><g transform="translate(1482.8260194496718 392.29516373023733) rotate(0 154.30410588386553 107.91060127765022)"><path d="M287.39 194.61 C295.67 202.88, 303.94 211.15, 308.61 215.82 M287.39 194.61 C295.63 202.84, 303.86 211.08, 308.61 215.82" stroke="#000000" stroke-width="1" fill="none"></path></g><g transform="translate(1482.8260194496718 392.29516373023733) rotate(0 154.30410588386553 107.91060127765022)"><path d="M305.99 185.94 C307.01 197.59, 308.03 209.25, 308.61 215.82 M305.99 185.94 C307.01 197.54, 308.02 209.14, 308.61 215.82" stroke="#000000" stroke-width="1" fill="none"></path></g></g><g stroke-linecap="round" transform="translate(1153.528045131467 943.3666324237934) rotate(0 113 95.5)"><path d="M0 0 C73.71 0, 147.41 0, 226 0 M0 0 C89.68 0, 179.37 0, 226 0 M226 0 C226 71.95, 226 143.89, 226 191 M226 0 C226 41.63, 226 83.26, 226 191 M226 191 C178.63 191, 131.27 191, 0 191 M226 191 C163.86 191, 101.72 191, 0 191 M0 191 C0 138.24, 0 85.48, 0 0 M0 191 C0 145.24, 0 99.49, 0 0" stroke="#000000" stroke-width="1" fill="none"></path></g><g transform="translate(1167.028045131467 990.8666324237934) rotate(0 99.5 48)"><text x="99.5" y="26" font-family="Helvetica, Segoe UI Emoji" font-size="28px" fill="#000000" text-anchor="middle" style="white-space: pre;" direction="ltr">Page:</text><text x="99.5" y="58" font-family="Helvetica, Segoe UI Emoji" font-size="28px" fill="#000000" text-anchor="middle" style="white-space: pre;" direction="ltr">Confirmation of </text><text x="99.5" y="90" font-family="Helvetica, Segoe UI Emoji" font-size="28px" fill="#000000" text-anchor="middle" style="white-space: pre;" direction="ltr">sign out</text></g><g stroke-linecap="round"><g transform="translate(1746.1456213799001 897.9677056886944) rotate(0 -172.75630348972106 75.97626410459088)"><path d="M0 0 C-22.96 22.51, -80.18 109.77, -137.77 135.06 C-195.35 160.34, -310.89 148.94, -345.51 151.71 M0 0 C-22.96 22.51, -80.18 109.77, -137.77 135.06 C-195.35 160.34, -310.89 148.94, -345.51 151.71" stroke="#000000" stroke-width="1" fill="none"></path></g><g transform="translate(1746.1456213799001 897.9677056886944) rotate(0 -172.75630348972106 75.97626410459088)"><path d="M-317.33 141.43 C-326.81 144.89, -336.3 148.35, -345.51 151.71 M-317.33 141.43 C-328.57 145.53, -339.82 149.63, -345.51 151.71" stroke="#000000" stroke-width="1" fill="none"></path></g><g transform="translate(1746.1456213799001 897.9677056886944) rotate(0 -172.75630348972106 75.97626410459088)"><path d="M-317.31 161.95 C-326.8 158.5, -336.29 155.06, -345.51 151.71 M-317.31 161.95 C-328.56 157.86, -339.81 153.78, -345.51 151.71" stroke="#000000" stroke-width="1" fill="none"></path></g></g><g transform="translate(1437.5493004417092 1064.499037842019) rotate(0 159 32)"><text x="0" y="26" font-family="Helvetica, Segoe UI Emoji" font-size="28px" fill="#000000" text-anchor="start" style="white-space: pre;" direction="ltr">Click on signout link</text><text x="0" y="58" font-family="Helvetica, Segoe UI Emoji" font-size="28px" fill="#000000" text-anchor="start" style="white-space: pre;" direction="ltr">(Could be a post request)</text></g><g stroke-linecap="round" transform="translate(298.98130323769374 580.508735012449) rotate(0 149.5041753579618 149.2267794147071)"><path d="M0 0 C106.89 0, 213.79 0, 299.01 0 M0 0 C113.05 0, 226.1 0, 299.01 0 M299.01 0 C299.01 110.7, 299.01 221.4, 299.01 298.45 M299.01 0 C299.01 76.12, 299.01 152.24, 299.01 298.45 M299.01 298.45 C237.53 298.45, 176.06 298.45, 0 298.45 M299.01 298.45 C217.67 298.45, 136.34 298.45, 0 298.45 M0 298.45 C0 200.19, 0 101.93, 0 0 M0 298.45 C0 181.4, 0 64.34, 0 0" stroke="#000000" stroke-width="1" fill="none"></path></g><g transform="translate(324.4854785956554 665.7355144271562) rotate(0 124 64)"><text x="124" y="26" font-family="Helvetica, Segoe UI Emoji" font-size="28px" fill="#000000" text-anchor="middle" style="white-space: pre;" direction="ltr">Page: (Home Page)</text><text x="124" y="58" font-family="Helvetica, Segoe UI Emoji" font-size="28px" fill="#000000" text-anchor="middle" style="white-space: pre;" direction="ltr"></text><text x="124" y="90" font-family="Helvetica, Segoe UI Emoji" font-size="28px" fill="#000000" text-anchor="middle" style="white-space: pre;" direction="ltr">Sign in form +</text><text x="124" y="122" font-family="Helvetica, Segoe UI Emoji" font-size="28px" fill="#000000" text-anchor="middle" style="white-space: pre;" direction="ltr">Link to sign up</text></g><g stroke-linecap="round"><g transform="translate(1144.3128054895303 1049.030483169633) rotate(0 -343.3182732987547 -77.48729326651437)"><path d="M0 0 C-83.5 -3.54, -386.55 4.62, -500.99 -21.21 C-615.43 -47.04, -655.7 -132.68, -686.64 -154.97 M0 0 C-83.5 -3.54, -386.55 4.62, -500.99 -21.21 C-615.43 -47.04, -655.7 -132.68, -686.64 -154.97" stroke="#000000" stroke-width="1" fill="none"></path></g><g transform="translate(1144.3128054895303 1049.030483169633) rotate(0 -343.3182732987547 -77.48729326651437)"><path d="M-659.79 -141.59 C-666.67 -145.02, -673.55 -148.45, -686.64 -154.97 M-659.79 -141.59 C-669.23 -146.29, -678.67 -151, -686.64 -154.97" stroke="#000000" stroke-width="1" fill="none"></path></g><g transform="translate(1144.3128054895303 1049.030483169633) rotate(0 -343.3182732987547 -77.48729326651437)"><path d="M-674.67 -127.46 C-677.74 -134.51, -680.81 -141.56, -686.64 -154.97 M-674.67 -127.46 C-678.88 -137.14, -683.09 -146.81, -686.64 -154.97" stroke="#000000" stroke-width="1" fill="none"></path></g></g><g transform="translate(640.9697077496687 1075.0943589432652) rotate(0 222 16)"><text x="0" y="26" font-family="Helvetica, Segoe UI Emoji" font-size="28px" fill="#000000" text-anchor="start" style="white-space: pre;" direction="ltr">Clink on link to return to home page</text></g><g transform="translate(1559.9999895352664 328.2851138326747) rotate(0 101.5 32)"><text x="0" y="26" font-family="Helvetica, Segoe UI Emoji" font-size="28px" fill="#000000" text-anchor="start" style="white-space: pre;" direction="ltr">Click on link to</text><text x="0" y="58" font-family="Helvetica, Segoe UI Emoji" font-size="28px" fill="#000000" text-anchor="start" style="white-space: pre;" direction="ltr">go to main page</text></g><g stroke-linecap="round"><g transform="translate(707.5925323800561 157.55965264304936) rotate(0 340.2838123193892 23.1675685879338)"><path d="M0 0 C30.1 1.77, 84.6 8.83, 180.59 10.59 C276.57 12.35, 492.59 4.6, 575.92 10.56 C659.25 16.52, 663.13 40.37, 680.57 46.34 M0 0 C30.1 1.77, 84.6 8.83, 180.59 10.59 C276.57 12.35, 492.59 4.6, 575.92 10.56 C659.25 16.52, 663.13 40.37, 680.57 46.34" stroke="#000000" stroke-width="1" fill="none"></path></g><g transform="translate(707.5925323800561 157.55965264304936) rotate(0 340.2838123193892 23.1675685879338)"><path d="M651.27 39.89 C662.95 42.46, 674.63 45.03, 680.57 46.34 M651.27 39.89 C658.41 41.46, 665.55 43.03, 680.57 46.34" stroke="#000000" stroke-width="1" fill="none"></path></g><g transform="translate(707.5925323800561 157.55965264304936) rotate(0 340.2838123193892 23.1675685879338)"><path d="M662.26 22.57 C669.56 32.04, 676.86 41.52, 680.57 46.34 M662.26 22.57 C666.73 28.36, 671.19 34.15, 680.57 46.34" stroke="#000000" stroke-width="1" fill="none"></path></g></g><g stroke-linecap="round"><g transform="translate(525.9972479748086 572.8313943476644) rotate(0 46.69679258206054 -134.8722845543603)"><path d="M0 0 C11.89 -21.2, 56.08 -88.77, 71.35 -127.19 C86.62 -165.61, 88.09 -206.76, 91.61 -230.52 C95.13 -254.28, 92.32 -263.21, 92.46 -269.74 M0 0 C11.89 -21.2, 56.08 -88.77, 71.35 -127.19 C86.62 -165.61, 88.09 -206.76, 91.61 -230.52 C95.13 -254.28, 92.32 -263.21, 92.46 -269.74" stroke="#000000" stroke-width="1" fill="none"></path></g><g transform="translate(525.9972479748086 572.8313943476644) rotate(0 46.69679258206054 -134.8722845543603)"><path d="M100.28 -251.76 C97.26 -258.7, 94.25 -265.64, 92.46 -269.74 M100.28 -251.76 C97.83 -257.4, 95.38 -263.04, 92.46 -269.74" stroke="#000000" stroke-width="1" fill="none"></path></g><g transform="translate(525.9972479748086 572.8313943476644) rotate(0 46.69679258206054 -134.8722845543603)"><path d="M86.89 -250.94 C89.04 -258.2, 91.19 -265.46, 92.46 -269.74 M86.89 -250.94 C88.64 -256.84, 90.39 -262.73, 92.46 -269.74" stroke="#000000" stroke-width="1" fill="none"></path></g></g><g transform="translate(638.0652090497061 297.847243352029) rotate(0 61.5 32)"><text x="0" y="26" font-family="Helvetica, Segoe UI Emoji" font-size="28px" fill="#000000" text-anchor="start" style="white-space: pre;" direction="ltr">Click link</text><text x="0" y="58" font-family="Helvetica, Segoe UI Emoji" font-size="28px" fill="#000000" text-anchor="start" style="white-space: pre;" direction="ltr">to sign up</text></g><g stroke-linecap="round"><g transform="translate(609.5831726408204 859.8138150530746) rotate(0 558.940587601895 16.463562933159636)"><path d="M0 0 C92.28 7.71, 367.37 48.47, 553.68 46.24 C740 44, 1023.85 -3.46, 1117.88 -13.4 M0 0 C92.28 7.71, 367.37 48.47, 553.68 46.24 C740 44, 1023.85 -3.46, 1117.88 -13.4" stroke="#000000" stroke-width="1" fill="none"></path></g><g transform="translate(609.5831726408204 859.8138150530746) rotate(0 558.940587601895 16.463562933159636)"><path d="M1091.27 0.45 C1097.22 -2.64, 1103.16 -5.74, 1117.88 -13.4 M1091.27 0.45 C1101.14 -4.69, 1111.02 -9.83, 1117.88 -13.4" stroke="#000000" stroke-width="1" fill="none"></path></g><g transform="translate(609.5831726408204 859.8138150530746) rotate(0 558.940587601895 16.463562933159636)"><path d="M1088.59 -19.9 C1095.14 -18.44, 1101.68 -16.99, 1117.88 -13.4 M1088.59 -19.9 C1099.46 -17.48, 1110.33 -15.07, 1117.88 -13.4" stroke="#000000" stroke-width="1" fill="none"></path></g></g><g transform="translate(901.1834199310009 838.8182849239686) rotate(0 261.5 16)"><text x="0" y="26" font-family="Helvetica, Segoe UI Emoji" font-size="28px" fill="#000000" text-anchor="start" style="white-space: pre;" direction="ltr">Submit sign in form and sign in successful</text></g><g stroke-linecap="round" transform="translate(904.3571558700031 469.78696013275686) rotate(0 92.5 91.5)"><path d="M0 0 C65.28 0, 130.55 0, 185 0 M0 0 C41.09 0, 82.17 0, 185 0 M185 0 C185 56.22, 185 112.44, 185 183 M185 0 C185 66.95, 185 133.9, 185 183 M185 183 C114.22 183, 43.44 183, 0 183 M185 183 C120.13 183, 55.26 183, 0 183 M0 183 C0 131.28, 0 79.56, 0 0 M0 183 C0 141.14, 0 99.28, 0 0" stroke="#000000" stroke-width="1" fill="none"></path></g><g transform="translate(915.8571558700031 513.2869601327568) rotate(0 81 48)"><text x="81" y="26" font-family="Helvetica, Segoe UI Emoji" font-size="28px" fill="#000000" text-anchor="middle" style="white-space: pre;" direction="ltr">Page:</text><text x="81" y="58" font-family="Helvetica, Segoe UI Emoji" font-size="28px" fill="#000000" text-anchor="middle" style="white-space: pre;" direction="ltr"></text><text x="81" y="90" font-family="Helvetica, Segoe UI Emoji" font-size="28px" fill="#000000" text-anchor="middle" style="white-space: pre;" direction="ltr">Sign in failed</text></g><g stroke-linecap="round"><g transform="translate(610.2766624989572 780.7967647465526) rotate(0 141.93826740583378 -66.07103872657089)"><path d="M0 0 C18.19 -0.44, 74.43 4.17, 109.16 -2.62 C143.88 -9.41, 179.25 -18.99, 208.37 -40.76 C237.49 -62.54, 271.29 -117.85, 283.88 -133.27 M0 0 C18.19 -0.44, 74.43 4.17, 109.16 -2.62 C143.88 -9.41, 179.25 -18.99, 208.37 -40.76 C237.49 -62.54, 271.29 -117.85, 283.88 -133.27" stroke="#000000" stroke-width="1" fill="none"></path></g><g transform="translate(610.2766624989572 780.7967647465526) rotate(0 141.93826740583378 -66.07103872657089)"><path d="M275.7 -104.4 C278.91 -115.72, 282.11 -127.04, 283.88 -133.27 M275.7 -104.4 C278.23 -113.33, 280.76 -122.26, 283.88 -133.27" stroke="#000000" stroke-width="1" fill="none"></path></g><g transform="translate(610.2766624989572 780.7967647465526) rotate(0 141.93826740583378 -66.07103872657089)"><path d="M259.06 -116.41 C268.79 -123.02, 278.52 -129.63, 283.88 -133.27 M259.06 -116.41 C266.74 -121.63, 274.42 -126.84, 283.88 -133.27" stroke="#000000" stroke-width="1" fill="none"></path></g></g><g stroke-linecap="round"><g transform="translate(896.7264802432021 524.3591663438428) rotate(0 -142.54773642241244 50.11613861163025)"><path d="M0 0 C-16.63 -0.92, -63.79 -10.41, -99.77 -5.53 C-135.75 -0.65, -185 10.49, -215.89 29.27 C-246.77 48.05, -273.56 94.17, -285.1 107.15 M0 0 C-16.63 -0.92, -63.79 -10.41, -99.77 -5.53 C-135.75 -0.65, -185 10.49, -215.89 29.27 C-246.77 48.05, -273.56 94.17, -285.1 107.15" stroke="#000000" stroke-width="1" fill="none"></path></g><g transform="translate(896.7264802432021 524.3591663438428) rotate(0 -142.54773642241244 50.11613861163025)"><path d="M-276.44 78.43 C-278.26 84.48, -280.09 90.54, -285.1 107.15 M-276.44 78.43 C-279.4 88.25, -282.36 98.08, -285.1 107.15" stroke="#000000" stroke-width="1" fill="none"></path></g><g transform="translate(896.7264802432021 524.3591663438428) rotate(0 -142.54773642241244 50.11613861163025)"><path d="M-260 90.71 C-265.29 94.18, -270.58 97.64, -285.1 107.15 M-260 90.71 C-268.59 96.34, -277.17 101.96, -285.1 107.15" stroke="#000000" stroke-width="1" fill="none"></path></g></g><g transform="translate(849.6204093024807 703.9793803895457) rotate(0 150.5 32)"><text x="0" y="26" font-family="Helvetica, Segoe UI Emoji" font-size="28px" fill="#000000" text-anchor="start" style="white-space: pre;" direction="ltr">Submit incorrect form</text><text x="0" y="58" font-family="Helvetica, Segoe UI Emoji" font-size="28px" fill="#000000" text-anchor="start" style="white-space: pre;" direction="ltr">(ie sign in unsuccessful)</text></g><g transform="translate(677.708352822489 554.8382673690792) rotate(0 82.5 32)"><text x="0" y="26" font-family="Helvetica, Segoe UI Emoji" font-size="28px" fill="#000000" text-anchor="start" style="white-space: pre;" direction="ltr">Link to return</text><text x="0" y="58" font-family="Helvetica, Segoe UI Emoji" font-size="28px" fill="#000000" text-anchor="start" style="white-space: pre;" direction="ltr">to homepage</text></g><g stroke-linecap="round" transform="translate(2402.0749644316047 955.2624956453305) rotate(0 104 101.5)"><path d="M0 0 C77.94 0, 155.87 0, 208 0 M0 0 C77.84 0, 155.68 0, 208 0 M208 0 C208 65.15, 208 130.3, 208 203 M208 0 C208 60.07, 208 120.13, 208 203 M208 203 C126.17 203, 44.34 203, 0 203 M208 203 C144.2 203, 80.4 203, 0 203 M0 203 C0 132.82, 0 62.64, 0 0 M0 203 C0 131.08, 0 59.16, 0 0" stroke="#000000" stroke-width="1" fill="none"></path></g><g transform="translate(2431.0749644316047 1008.7624956453305) rotate(0 75 48)"><text x="75" y="26" font-family="Helvetica, Segoe UI Emoji" font-size="28px" fill="#000000" text-anchor="middle" style="white-space: pre;" direction="ltr">Page:</text><text x="75" y="58" font-family="Helvetica, Segoe UI Emoji" font-size="28px" fill="#000000" text-anchor="middle" style="white-space: pre;" direction="ltr"></text><text x="75" y="90" font-family="Helvetica, Segoe UI Emoji" font-size="28px" fill="#000000" text-anchor="middle" style="white-space: pre;" direction="ltr">Single peep</text></g><g stroke-linecap="round"><g transform="translate(2013.5574697907612 801.797269391776) rotate(0 240.4329338160088 57.16638201508846)"><path d="M0 0 C28.78 -2.61, 110.39 -19.26, 172.67 -15.66 C234.96 -12.05, 322.34 -2.71, 373.71 21.65 C425.08 46, 463.01 112.36, 480.87 130.5 M0 0 C28.78 -2.61, 110.39 -19.26, 172.67 -15.66 C234.96 -12.05, 322.34 -2.71, 373.71 21.65 C425.08 46, 463.01 112.36, 480.87 130.5" stroke="#000000" stroke-width="1" fill="none"></path></g><g transform="translate(2013.5574697907612 801.797269391776) rotate(0 240.4329338160088 57.16638201508846)"><path d="M455.32 114.77 C463.86 120.03, 472.41 125.29, 480.87 130.5 M455.32 114.77 C463.72 119.94, 472.12 125.12, 480.87 130.5" stroke="#000000" stroke-width="1" fill="none"></path></g><g transform="translate(2013.5574697907612 801.797269391776) rotate(0 240.4329338160088 57.16638201508846)"><path d="M471.41 102.03 C474.57 111.55, 477.73 121.07, 480.87 130.5 M471.41 102.03 C474.52 111.39, 477.63 120.76, 480.87 130.5" stroke="#000000" stroke-width="1" fill="none"></path></g></g><g stroke-linecap="round"><g transform="translate(2389.363703267169 1082.7340902750775) rotate(0 -192.61884777353384 -93.592575082199)"><path d="M0 0 C-29.17 -1.57, -123.41 5.51, -175.03 -9.42 C-226.65 -24.34, -274.7 -59.87, -309.74 -89.56 C-344.77 -119.24, -372.65 -171.2, -385.24 -187.53 M0 0 C-29.17 -1.57, -123.41 5.51, -175.03 -9.42 C-226.65 -24.34, -274.7 -59.87, -309.74 -89.56 C-344.77 -119.24, -372.65 -171.2, -385.24 -187.53" stroke="#000000" stroke-width="1" fill="none"></path></g><g transform="translate(2389.363703267169 1082.7340902750775) rotate(0 -192.61884777353384 -93.592575082199)"><path d="M-361.03 -169.81 C-367.53 -174.57, -374.04 -179.33, -385.24 -187.53 M-361.03 -169.81 C-366.83 -174.06, -372.63 -178.3, -385.24 -187.53" stroke="#000000" stroke-width="1" fill="none"></path></g><g transform="translate(2389.363703267169 1082.7340902750775) rotate(0 -192.61884777353384 -93.592575082199)"><path d="M-378.08 -158.39 C-380 -166.22, -381.93 -174.05, -385.24 -187.53 M-378.08 -158.39 C-379.79 -165.38, -381.51 -172.36, -385.24 -187.53" stroke="#000000" stroke-width="1" fill="none"></path></g></g><g transform="translate(2057.753170514605 1102.2954787906508) rotate(0 117.5 16)"><text x="0" y="26" font-family="Helvetica, Segoe UI Emoji" font-size="28px" fill="#000000" text-anchor="start" style="white-space: pre;" direction="ltr">Link back to peeps</text></g><g transform="translate(2449.4362423902376 804.1682681297716) rotate(0 126.5 32)"><text x="0" y="26" font-family="Helvetica, Segoe UI Emoji" font-size="28px" fill="#000000" text-anchor="start" style="white-space: pre;" direction="ltr">Click on link to</text><text x="0" y="58" font-family="Helvetica, Segoe UI Emoji" font-size="28px" fill="#000000" text-anchor="start" style="white-space: pre;" direction="ltr">view individual peep</text></g><g transform="translate(264.2986516266369 10) rotate(0 142 64)"><text x="0" y="26" font-family="Helvetica, Segoe UI Emoji" font-size="28px" fill="#000000" text-anchor="start" style="white-space: pre;" direction="ltr">Submit incorrect</text><text x="0" y="58" font-family="Helvetica, Segoe UI Emoji" font-size="28px" fill="#000000" text-anchor="start" style="white-space: pre;" direction="ltr">account details</text><text x="0" y="90" font-family="Helvetica, Segoe UI Emoji" font-size="28px" fill="#000000" text-anchor="start" style="white-space: pre;" direction="ltr">(ie the account already</text><text x="0" y="122" font-family="Helvetica, Segoe UI Emoji" font-size="28px" fill="#000000" text-anchor="start" style="white-space: pre;" direction="ltr">exists)</text></g><g stroke-linecap="round" transform="translate(182.36078521172726 182.30685847032993) rotate(0 82.44778542824542 117)"><path d="M0 0 C58.01 0, 116.03 0, 164.9 0 M0 0 C61.52 0, 123.04 0, 164.9 0 M164.9 0 C164.9 74.44, 164.9 148.88, 164.9 234 M164.9 0 C164.9 71.98, 164.9 143.96, 164.9 234 M164.9 234 C127.89 234, 90.89 234, 0 234 M164.9 234 C114.81 234, 64.73 234, 0 234 M0 234 C0 155.3, 0 76.61, 0 0 M0 234 C0 168.91, 0 103.83, 0 0" stroke="#000000" stroke-width="1" fill="none"></path></g><g transform="translate(192.8085706399727 187.30685847032993) rotate(0 72 112)"><text x="72" y="26" font-family="Helvetica, Segoe UI Emoji" font-size="28px" fill="#000000" text-anchor="middle" style="white-space: pre;" direction="ltr">Page:</text><text x="72" y="58" font-family="Helvetica, Segoe UI Emoji" font-size="28px" fill="#000000" text-anchor="middle" style="white-space: pre;" direction="ltr"></text><text x="72" y="90" font-family="Helvetica, Segoe UI Emoji" font-size="28px" fill="#000000" text-anchor="middle" style="white-space: pre;" direction="ltr">Invalid </text><text x="72" y="122" font-family="Helvetica, Segoe UI Emoji" font-size="28px" fill="#000000" text-anchor="middle" style="white-space: pre;" direction="ltr">credentials,</text><text x="72" y="154" font-family="Helvetica, Segoe UI Emoji" font-size="28px" fill="#000000" text-anchor="middle" style="white-space: pre;" direction="ltr">Account </text><text x="72" y="186" font-family="Helvetica, Segoe UI Emoji" font-size="28px" fill="#000000" text-anchor="middle" style="white-space: pre;" direction="ltr">already </text><text x="72" y="218" font-family="Helvetica, Segoe UI Emoji" font-size="28px" fill="#000000" text-anchor="middle" style="white-space: pre;" direction="ltr">exists</text></g><g stroke-linecap="round"><g transform="translate(525.4832496093611 142.57938008659053) rotate(0 -82.5130550619524 36.988811984347976)"><path d="M0 0 C-27.5 12.33, -137.52 61.65, -165.03 73.98 M0 0 C-27.5 12.33, -137.52 61.65, -165.03 73.98" stroke="#000000" stroke-width="1" fill="none"></path></g><g transform="translate(525.4832496093611 142.57938008659053) rotate(0 -82.5130550619524 36.988811984347976)"><path d="M-143.5 53.08 C-147.82 57.27, -152.14 61.47, -165.03 73.98 M-143.5 53.08 C-149.76 59.16, -156.02 65.24, -165.03 73.98" stroke="#000000" stroke-width="1" fill="none"></path></g><g transform="translate(525.4832496093611 142.57938008659053) rotate(0 -82.5130550619524 36.988811984347976)"><path d="M-135.1 71.81 C-141.11 72.24, -147.11 72.68, -165.03 73.98 M-135.1 71.81 C-143.81 72.44, -152.51 73.07, -165.03 73.98" stroke="#000000" stroke-width="1" fill="none"></path></g></g><g stroke-linecap="round"><g transform="translate(294.46138110347874 422.9804740606333) rotate(0 36.204249946844584 67.24404012662399)"><path d="M0 0 C12.07 22.41, 60.34 112.07, 72.41 134.49 M0 0 C12.07 22.41, 60.34 112.07, 72.41 134.49" stroke="#000000" stroke-width="1" fill="none"></path></g><g transform="translate(294.46138110347874 422.9804740606333) rotate(0 36.204249946844584 67.24404012662399)"><path d="M50.01 114.53 C57.66 121.35, 65.31 128.17, 72.41 134.49 M50.01 114.53 C58.94 122.49, 67.87 130.44, 72.41 134.49" stroke="#000000" stroke-width="1" fill="none"></path></g><g transform="translate(294.46138110347874 422.9804740606333) rotate(0 36.204249946844584 67.24404012662399)"><path d="M68.08 104.8 C69.56 114.94, 71.04 125.08, 72.41 134.49 M68.08 104.8 C69.8 116.63, 71.53 128.47, 72.41 134.49" stroke="#000000" stroke-width="1" fill="none"></path></g></g><g transform="translate(10 468.0051784261453) rotate(0 149.5 16)"><text x="0" y="26" font-family="Helvetica, Segoe UI Emoji" font-size="28px" fill="#000000" text-anchor="start" style="white-space: pre;" direction="ltr">Link back to home page</text></g></svg>