<svg id="visual" viewBox="0 0 900 600" width="900" height="600" xmlns="http://www.w3.org/2000/svg" xmlns:xlink="http://www.w3.org/1999/xlink" version="1.1"><rect width="900" height="600" fill="#999"></rect><g><g transform="translate(562 281)"><path d="M0 -54.2L42.4 -33.8L52.9 12.1L23.5 48.9L-23.5 48.9L-52.9 12.1L-42.4 -33.8Z" fill="none" stroke="#666" stroke-width="2"></path></g><g transform="translate(607 519)"><path d="M0 -49L38.3 -30.6L47.8 10.9L21.3 44.1L-21.3 44.1L-47.8 10.9L-38.3 -30.6Z" stroke="#666" fill="none" stroke-width="2"></path></g><g transform="translate(88 486)"><path d="M0 -34L26.6 -21.2L33.1 7.6L14.8 30.6L-14.8 30.6L-33.1 7.6L-26.6 -21.2Z" stroke="#666" fill="none" stroke-width="2"></path></g><g transform="translate(476 90)"><path d="M0 -17L13.3 -10.6L16.6 3.8L7.4 15.3L-7.4 15.3L-16.6 3.8L-13.3 -10.6Z" stroke="#666" fill="none" stroke-width="2"></path></g></g></svg>