<svg enable-background="new 0 0 512 512" viewBox="0 0 512 512" xmlns="http://www.w3.org/2000/svg"><path d="m120.965 227.598c-22.179 1.905-39.631 20.262-39.631 42.885 0 22.686 17.452 41.043 39.631 42.976v.522h60.887v-.185h.17c23.911 0 43.312-19.401 43.312-43.312s-19.401-43.312-43.312-43.312c-.047 0-.079.091-.17.091v-.091h-60.887z" fill="#2b3b47"/><path d="m342.806 88.829c-1.347-8.714 12.194-19.682 12.194-19.682 0-1.186-.961-2.147-2.147-2.147h-39.38c-1.596 0-2.634-1.679-1.92-3.107l5.48-10.96c.802-1.605-.593-3.43-2.35-3.063-12.299 2.565-51.739 14.027-89.985 30.758-17.707 5.925-34.344 14.895-49.476 26.226-11.825 7.924-21.587 16.366-27.716 25.13l.009-.002c-35.468 38.585-57.606 91.326-57.606 143.974 0 101.526 82.303 183.829 183.829 183.829s183.829-82.303 183.829-183.829c-.001-77.094-47.465-154.386-114.761-187.127z" fill="#adbcbb"/><path d="m309.365 247c-2.832-32.971-30.121-58.914-63.751-58.914-33.723 0-61.013 25.943-63.886 58.914l-.776 41.426h.276v.252c0 35.546 28.84 64.386 64.386 64.386s64.386-28.84 64.386-64.385c0-.07-.135-.117-.135-.252h.135v-41.427z" fill="#e5e4df"/><path d="m269.263 256.567c-1.054-12.276-11.215-21.935-23.736-21.935-12.556 0-22.717 9.659-23.787 21.935h-.289v33.7h.103v.094c0 13.235 10.738 23.973 23.973 23.973s23.973-10.738 23.973-23.973c0-.026-.05-.043-.05-.094h.05v-33.7z" fill="#2b3b47"/><path d="m112.6 286.502c31.605 0 62.185 75.77 50.569 87.386s-96.428 9.162-124.523 0c-28.561-9.314 57.539-87.386 73.954-87.386z" fill="#d1cfc3"/></svg>