<?xml version="1.0" encoding="iso-8859-1"?>
<!-- Generator: Adobe Illustrator 19.0.0, SVG Export Plug-In . SVG Version: 6.00 Build 0)  -->
<svg version="1.1" id="Layer_1" xmlns="http://www.w3.org/2000/svg" xmlns:xlink="http://www.w3.org/1999/xlink" x="0px" y="0px"
	 viewBox="0 0 512 512" style="enable-background:new 0 0 512 512;" xml:space="preserve">
<path style="fill:#3AC099;" d="M39.557,122.483c63.8-63.8,167.237-63.8,231.036,0l201.879,201.879
	c20.293,20.293,20.293,53.187,0,73.48c0,0-298.235-263.303-348.372-266.021C57.401,128.206,8.792,165.198,8.792,165.198
	C16.467,149.784,26.715,135.326,39.557,122.483z"/>
<path style="fill:#BBE095;" d="M40.459,137.803c-11.996,7.832-22.593,17.076-31.667,27.394
	c61.134-30.447,137.373-20.184,188.322,30.765l54.726,54.726l96.786,23.307L233.854,159.223
	C180.845,106.214,99.34,99.075,40.459,137.803z"/>
<polygon style="fill:#E0F4B4;" points="251.839,250.688 337.236,336.086 434.023,359.392 325.318,250.688 "/>
<path style="fill:#BBE095;" d="M337.236,336.086l61.756,61.756c20.293,20.293,53.195,20.285,73.48,0l-61.756-61.756H337.236z"/>
<path style="fill:#80086E;" d="M509.426,434.791c3.432-3.432,3.432-8.998,0-12.431L240.073,153.006
	c-3.432-3.432-8.998-3.432-12.431,0s-3.432,8.998,0,12.431l269.354,269.354C500.428,438.224,505.993,438.224,509.426,434.791z"/>
<path style="fill:#51E9D3;" d="M472.443,122.484c-63.8-63.8-167.237-63.8-231.036,0L39.528,324.363
	c-20.293,20.293-20.293,53.187,0,73.48c0,0,298.235-263.303,348.372-266.021c66.698-3.616,115.309,33.376,115.309,33.376
	C495.533,149.785,485.285,135.327,472.443,122.484z"/>
<path style="fill:#FFD3FF;" d="M471.542,137.805c11.996,7.832,22.593,17.076,31.667,27.394
	c-61.134-30.447-137.373-20.184-188.322,30.765l-54.726,54.726l-96.786,23.307l114.772-114.772
	C331.156,106.216,412.66,99.076,471.542,137.805z"/>
<polygon style="fill:#C392BF;" points="260.161,250.689 174.764,336.087 77.978,359.394 186.682,250.689 "/>
<path style="fill:#FFD3FF;" d="M174.764,336.087l-61.756,61.756c-20.293,20.293-53.195,20.286-73.48,0l61.756-61.756H174.764z"/>
<path style="fill:#80086E;" d="M2.574,434.793c-3.432-3.432-3.432-8.998,0-12.431l269.354-269.354c3.432-3.432,8.998-3.432,12.431,0
	c3.432,3.432,3.432,8.998,0,12.431L15.005,434.793C11.573,438.225,6.007,438.225,2.574,434.793z"/>
<g>
</g>
<g>
</g>
<g>
</g>
<g>
</g>
<g>
</g>
<g>
</g>
<g>
</g>
<g>
</g>
<g>
</g>
<g>
</g>
<g>
</g>
<g>
</g>
<g>
</g>
<g>
</g>
<g>
</g>
</svg>
