<?xml version="1.0" encoding="iso-8859-1"?>
<!-- Generator: Adobe Illustrator 19.0.0, SVG Export Plug-In . SVG Version: 6.00 Build 0)  -->
<svg version="1.1" id="Layer_1" xmlns="http://www.w3.org/2000/svg" xmlns:xlink="http://www.w3.org/1999/xlink" x="0px" y="0px"
	 viewBox="0 0 512 512" style="enable-background:new 0 0 512 512;" xml:space="preserve">
<path style="fill:#B7BF03;" d="M310.185,78.175c-0.045,0.011-33.895,58.31-54.185,71.166c-20.29-12.856-54.14-71.155-54.14-71.155
	C218.696,28.059,234.503,0,256,0S293.304,28.059,310.185,78.175z"/>
<path style="fill:#BD60B2;" d="M256,115.804v100.611c-28.048-17.775-52.161-68.684-69.914-87.152
	c5.455-18.915,10.642-36.008,15.729-51.088C217.175,90.874,235.71,102.948,256,115.804z"/>
<path style="fill:#C392BF;" d="M256,182.878v100.611c-36.444-23.085-66.56-77.538-84.145-103.663
	c4.997-18.043,9.715-34.935,14.22-50.563C203.839,147.731,227.952,165.103,256,182.878z"/>
<path style="fill:#FFADD4;" d="M171.855,179.826c17.585,26.125,47.701,47.041,84.145,70.126v100.611
	c-46.885-29.714-83.463-88.806-96.106-127.363c0.458-1.867,0.95-3.756,1.487-5.668C165.025,204.465,168.502,191.877,171.855,179.826
	z"/>
<path style="fill:#FFD3FF;" d="M256,317.026v67.074c-69.59-44.09-116.441-79.047-96.117-160.9
	C172.537,261.757,209.115,287.313,256,317.026z"/>
<path style="fill:#693F9E;" d="M325.925,129.263c-17.764,18.468-41.877,58.198-69.925,75.973v-89.432
	c20.29-12.856,38.825-24.929,54.14-37.617C315.271,93.256,320.458,110.348,325.925,129.263z"/>
<path style="fill:#4B58E3;" d="M325.925,129.263c4.505,15.628,9.223,32.52,14.22,50.563C322.56,205.951,292.444,249.226,256,272.31
	v-89.432C284.048,165.103,308.161,147.731,325.925,129.263z"/>
<path style="fill:#089AC6;" d="M340.145,179.826c3.354,12.051,6.83,24.639,10.475,37.707c0.537,1.912,1.028,3.801,1.498,5.668
	c-12.655,38.557-49.233,86.47-96.117,116.184v-89.432C292.444,226.867,322.56,205.951,340.145,179.826z"/>
<path style="fill:#51E9D3;" d="M352.117,223.201c20.323,81.853-26.528,116.81-96.117,160.9v-67.074
	C302.885,287.313,339.463,261.757,352.117,223.201z"/>
<path style="fill:#089AC6;" d="M324.371,378.914c2.974,3.946,2.18,9.547-1.766,12.521c-13.594,10.251-28.328,19.921-46.259,31.279
	l-16.444,10.419L256,430.661v-16.232l10.765-6.83c17.573-11.123,31.961-20.558,45.074-30.452
	C315.786,374.174,321.397,374.967,324.371,378.914z"/>
<path style="fill:#51E9D3;" d="M291.628,453.344c4.136,2.694,5.31,8.239,2.616,12.375c-1.722,2.638-4.583,4.069-7.501,4.069
	c-1.677,0-3.365-0.47-4.874-1.453c-4.349-2.828-9.144-5.903-15.103-9.681L256,451.834v-16.232l3.901-2.471l16.444,10.419
	C282.36,447.363,287.223,450.471,291.628,453.344z"/>
<path style="fill:#FFD3FF;" d="M256,435.602v16.232l-10.765,6.819c-5.958,3.779-10.754,6.853-15.103,9.681
	c-4.136,2.694-9.681,1.52-12.375-2.616c-2.694-4.136-1.52-9.681,2.616-12.375c4.405-2.873,9.267-5.981,15.293-9.793l16.433-10.419
	L256,435.602z"/>
<path style="fill:#FFADD4;" d="M256,414.429v16.232l-3.901,2.471l-16.444-10.419c-17.931-11.358-32.665-21.028-46.259-31.279
	c-3.946-2.974-4.74-8.574-1.766-12.521c2.974-3.946,8.585-4.729,12.532-1.766c13.113,9.893,27.5,19.329,45.074,30.452L256,414.429z"
	/>
<path style="fill:#80086E;" d="M256,512c-4.939,0-8.943-4.004-8.943-8.943V104.62c0-4.939,4.004-8.943,8.943-8.943
	c4.939,0,8.943,4.004,8.943,8.943v398.437C264.943,507.996,260.939,512,256,512z"/>
<g>
</g>
<g>
</g>
<g>
</g>
<g>
</g>
<g>
</g>
<g>
</g>
<g>
</g>
<g>
</g>
<g>
</g>
<g>
</g>
<g>
</g>
<g>
</g>
<g>
</g>
<g>
</g>
<g>
</g>
</svg>
