<?xml version="1.0" encoding="iso-8859-1"?>
<!-- Generator: Adobe Illustrator 19.0.0, SVG Export Plug-In . SVG Version: 6.00 Build 0)  -->
<svg version="1.1" id="Layer_1" xmlns="http://www.w3.org/2000/svg" xmlns:xlink="http://www.w3.org/1999/xlink" x="0px" y="0px"
	 viewBox="0 0 512 512" style="enable-background:new 0 0 512 512;" xml:space="preserve">
<path style="fill:#FFA3A9;" d="M256,0l-22.358,68.595l127.542,28.473l0.157,0.022c3.097-23.219,6.014-46.829,8.898-70.394
	C370.239,26.696,321.207,0,256,0z"/>
<path style="fill:#FFD3FF;" d="M141.761,26.696c2.884,23.554,5.802,47.164,8.899,70.372l105.262-28.473L256,0
	C190.793,0,141.761,26.696,141.761,26.696z"/>
<path style="fill:#FF5A55;" d="M361.184,97.068L256,130.605L150.66,97.068c24.627-30.966,62.625-50.831,105.262-50.831
	c0.022,0,0.056,0,0.078,0C298.603,46.259,336.567,66.124,361.184,97.068z"/>
<g>
	<path style="fill:#51E9D3;" d="M361.184,97.068l0.157,0.022C343.353,231.563,318.904,353.034,256,377.852l-33.537-201.664
		L256,97.068C256,97.068,361.184,97.068,361.184,97.068z"/>
	<path style="fill:#51E9D3;" d="M351.279,293.539c4.639,1.688,7.043,6.819,5.355,11.458
		c-21.084,58.131-49.445,93.524-86.693,108.213l-13.94,5.5v-19.228l7.378-2.918c32.207-12.688,57.203-44.638,76.442-97.671
		C341.508,294.255,346.628,291.862,351.279,293.539z"/>
</g>
<path style="fill:#3AC099;" d="M324.125,400.88c3.309,3.667,3.018,9.323-0.648,12.632c-12.822,11.581-27.243,20.569-42.872,26.74
	L256,449.956v-19.228l18.043-7.121c13.817-5.444,26.07-13.091,37.45-23.364C315.159,396.923,320.816,397.225,324.125,400.88z"/>
<path style="fill:#FF5A55;" d="M296.312,455.691c1.811,4.595-0.447,9.782-5.042,11.593L256,481.202v-19.228l28.708-11.324
	C289.302,448.838,294.501,451.097,296.312,455.691z"/>
<path style="fill:#FFA3A9;" d="M256,461.974v19.228l-35.27-13.918c-4.595-1.811-6.853-6.998-5.042-11.593s7.009-6.853,11.604-5.042
	L256,461.974z"/>
<path style="fill:#B7BF03;" d="M256,430.728v19.228l-24.605-9.703c-15.628-6.171-30.049-15.159-42.872-26.74
	c-3.667-3.309-3.957-8.966-0.648-12.632c3.309-3.667,8.966-3.946,12.632-0.637c11.38,10.274,23.632,17.92,37.45,23.364L256,430.728z
	"/>
<g>
	<path style="fill:#C4DC46;" d="M256,399.483v19.228l-13.94-5.5c-37.249-14.689-65.61-50.082-86.693-108.213
		c-1.688-4.639,0.715-9.77,5.355-11.458c4.639-1.677,9.77,0.715,11.459,5.355c19.239,53.033,44.235,84.983,76.442,97.671
		L256,399.483z"/>
	<path style="fill:#C4DC46;" d="M256,97.068v280.784c-62.916-24.817-87.353-146.3-105.34-280.784H256z"/>
</g>
<path style="fill:#8F2929;" d="M256,512c-4.939,0-8.943-4.004-8.943-8.943V130.606c0-4.939,4.004-8.943,8.943-8.943
	c4.939,0,8.943,4.004,8.943,8.943v372.451C264.943,507.996,260.939,512,256,512z"/>
<g>
</g>
<g>
</g>
<g>
</g>
<g>
</g>
<g>
</g>
<g>
</g>
<g>
</g>
<g>
</g>
<g>
</g>
<g>
</g>
<g>
</g>
<g>
</g>
<g>
</g>
<g>
</g>
<g>
</g>
</svg>
