<?xml version="1.0" encoding="iso-8859-1"?>
<!-- Generator: Adobe Illustrator 19.0.0, SVG Export Plug-In . SVG Version: 6.00 Build 0)  -->
<svg version="1.1" id="Layer_1" xmlns="http://www.w3.org/2000/svg" xmlns:xlink="http://www.w3.org/1999/xlink" x="0px" y="0px"
	 viewBox="0 0 512 512" style="enable-background:new 0 0 512 512;" xml:space="preserve">
<path style="fill:#51A978;" d="M341.486,85.486v227.002c0,47.209-28.283,64.056-85.486,121.259l-33.537-216.873L256,0
	C303.209,0,341.486,38.277,341.486,85.486z"/>
<path style="fill:#ADEBFF;" d="M256,0v218.673L170.514,99.65V85.486C170.514,38.277,208.791,0,256,0z"/>
<polygon style="fill:#51E9D3;" points="256,185.136 256,365.398 170.514,246.375 170.514,99.65 "/>
<path style="fill:#3AC099;" d="M256,331.861v101.886c-57.203-57.203-85.486-74.05-85.486-121.259v-66.113L256,331.861z"/>
<path style="fill:#E0F4B4;" d="M256,512c-4.939,0-8.943-4.004-8.943-8.943V33.537c0-4.939,4.004-8.943,8.943-8.943
	c4.939,0,8.943,4.004,8.943,8.943v469.52C264.943,507.996,260.939,512,256,512z"/>
<g>
</g>
<g>
</g>
<g>
</g>
<g>
</g>
<g>
</g>
<g>
</g>
<g>
</g>
<g>
</g>
<g>
</g>
<g>
</g>
<g>
</g>
<g>
</g>
<g>
</g>
<g>
</g>
<g>
</g>
</svg>
