<?xml version="1.0" encoding="iso-8859-1"?>
<!-- Generator: Adobe Illustrator 19.0.0, SVG Export Plug-In . SVG Version: 6.00 Build 0)  -->
<svg version="1.1" id="Layer_1" xmlns="http://www.w3.org/2000/svg" xmlns:xlink="http://www.w3.org/1999/xlink" x="0px" y="0px"
	 viewBox="0 0 512 512" style="enable-background:new 0 0 512 512;" xml:space="preserve">
<path style="fill:#FFA3A9;" d="M203.535,454.866c-4.62-1.753-9.782,0.57-11.535,5.188c-1.753,4.618,0.57,9.783,5.188,11.535
	c12.02,4.561,25.071,6.874,38.791,6.874v-17.886C224.437,460.576,213.521,458.655,203.535,454.866z"/>
<path style="fill:#FF5A55;" d="M211.061,426.543c-2.074-0.923-4.09-1.989-5.993-3.165c-4.203-2.597-9.712-1.295-12.309,2.907
	c-2.597,4.202-1.296,9.712,2.907,12.31c2.582,1.596,5.313,3.038,8.116,4.287c9.703,4.324,20.537,6.516,32.199,6.516v-17.886
	C226.843,431.511,218.458,429.84,211.061,426.543z"/>
<path style="fill:#FFA3A9;" d="M235.981,11.067l-33.537,124.758h117.402c0.559-3.454,1.096-6.819,1.621-10.095
	C331.875,60.344,279.904,26.617,235.981,11.067z"/>
<path style="fill:#E0F4B4;" d="M189.186,0c0,0,0.894,49.803,2.403,114.809l44.392,26.26V11.067
	C216.977,4.337,199.471,1.017,189.186,0z"/>
<path style="fill:#FFADD4;" d="M235.981,107.531v303.857c-18.289,0-34.018-9.279-35.616-35.069
	c-3.588-57.907-6.741-173.61-8.776-261.511C205.519,110.091,220.454,107.531,235.981,107.531z"/>
<path style="fill:#FF5A55;" d="M235.981,107.531v334.041c18.289,0,30.675-9.703,35.605-35.069
	c7.714-39.619,33.861-181.861,48.26-270.678C296.583,118.073,267.506,107.531,235.981,107.531z"/>
<path style="fill:#80086E;" d="M235.98,512c-4.939,0-8.943-4.004-8.943-8.943V55.787c0-4.939,4.004-8.943,8.943-8.943
	c4.939,0,8.943,4.004,8.943,8.943v447.27C244.924,507.996,240.92,512,235.98,512z"/>
<g>
</g>
<g>
</g>
<g>
</g>
<g>
</g>
<g>
</g>
<g>
</g>
<g>
</g>
<g>
</g>
<g>
</g>
<g>
</g>
<g>
</g>
<g>
</g>
<g>
</g>
<g>
</g>
<g>
</g>
</svg>
