<?xml version="1.0" encoding="iso-8859-1"?>
<!-- Generator: Adobe Illustrator 19.0.0, SVG Export Plug-In . SVG Version: 6.00 Build 0)  -->
<svg version="1.1" id="Layer_1" xmlns="http://www.w3.org/2000/svg" xmlns:xlink="http://www.w3.org/1999/xlink" x="0px" y="0px"
	 viewBox="0 0 512 512" style="enable-background:new 0 0 512 512;" xml:space="preserve">
<path style="fill:#80086E;" d="M280.415,0c25.835,0,46.784,20.95,46.784,46.784V333.84c0,25.846-15.483,35.069-46.784,66.37
	l-33.537-235.878L280.415,0z"/>
<g>
	<path style="fill:#FFF06B;" d="M280.415,468.055v12.643c-63.586-55.493-104.558-142.51-104.558-240.349S216.829,55.493,280.415,0
		v400.21v27.601V468.055z"/>
	<path style="fill:#FFF06B;" d="M333.549,387.566c3.477,3.499,3.454,9.167-0.045,12.643c-12.666,12.565-31.055,30.854-46.773,46.572
		l-6.316-18.971c14.153-14.13,29.479-29.367,40.49-40.289C324.405,384.034,330.072,384.056,333.549,387.566z"/>
</g>
<path style="fill:#80086E;" d="M333.549,427.811c3.477,3.499,3.454,9.167-0.045,12.643c-10.274,10.195-29.993,29.792-46.773,46.572
	l-6.316-18.971c15.192-15.17,31.48-31.346,40.49-40.289C324.405,424.278,330.072,424.3,333.549,427.811z"/>
<path style="fill:#C392BF;" d="M280.415,512c-4.939,0-8.943-4.004-8.943-8.943V67.074c0-4.939,4.004-8.943,8.943-8.943
	s8.943,4.004,8.943,8.943v435.983C289.358,507.996,285.354,512,280.415,512z"/>
<g>
</g>
<g>
</g>
<g>
</g>
<g>
</g>
<g>
</g>
<g>
</g>
<g>
</g>
<g>
</g>
<g>
</g>
<g>
</g>
<g>
</g>
<g>
</g>
<g>
</g>
<g>
</g>
<g>
</g>
</svg>
