<?xml version="1.0" encoding="iso-8859-1"?>
<!-- Generator: Adobe Illustrator 19.0.0, SVG Export Plug-In . SVG Version: 6.00 Build 0)  -->
<svg version="1.1" id="Layer_1" xmlns="http://www.w3.org/2000/svg" xmlns:xlink="http://www.w3.org/1999/xlink" x="0px" y="0px"
	 viewBox="0 0 512 512" style="enable-background:new 0 0 512 512;" xml:space="preserve">
<g>
	<path style="fill:#E0F4B4;" d="M77.955,434.046l-17.962,17.962l1.402-105.428c0.063-4.888,4.081-8.844,8.976-8.742
		c4.895,0.071,8.805,4.089,8.742,8.976L77.955,434.046z"/>
	<path style="fill:#E0F4B4;" d="M155.88,356.12l-17.97,17.97l1.661-124.925c0.071-4.849,4.018-8.734,8.859-8.734
		c0.039-0.008,0.079,0,0.125,0c4.888,0.063,8.805,4.089,8.742,8.976L155.88,356.12z"/>
	<path style="fill:#E0F4B4;" d="M233.798,278.202l-17.962,17.962l1.919-144.406c0.063-4.888,4.104-8.789,8.976-8.742
		c4.895,0.071,8.805,4.089,8.742,8.976L233.798,278.202z"/>
</g>
<g>
	<path style="fill:#C4DC46;" d="M271.571,363.444c0.071,4.895-3.846,8.922-8.734,8.985l-124.925,1.661l17.97-17.97l106.713-1.418
		c0.039,0.008,0.079,0,0.125,0C267.559,354.702,271.515,358.595,271.571,363.444z"/>
	<path style="fill:#C4DC46;" d="M174.163,441.627c0.071,4.895-3.854,8.914-8.742,8.976l-105.428,1.402l17.962-17.962l87.231-1.16
		c0.031,0,0.079,0,0.117-0.008C170.137,432.886,174.1,436.771,174.163,441.627z"/>
	<path style="fill:#C4DC46;" d="M368.984,285.268c0.063,4.888-3.854,8.914-8.742,8.976l-144.406,1.919l17.962-17.962l126.21-1.676
		C364.903,276.423,368.915,280.371,368.984,285.268z"/>
</g>
<g>
	<path style="fill:#51E9D3;" d="M38.993,473.008L21.031,490.97l1.277-95.683c0.054-4.849,4.01-8.742,8.851-8.742
		c0.047,0,0.079,0,0.125,0c4.888,0.063,8.805,4.089,8.742,8.976L38.993,473.008z"/>
	<path style="fill:#51E9D3;" d="M116.917,395.082l-17.97,17.969l1.535-115.181c0.054-4.849,4.018-8.734,8.851-8.742
		c0.047,0,0.086,0.008,0.125,0c4.895,0.071,8.805,4.089,8.742,8.976L116.917,395.082z"/>
	<path style="fill:#51E9D3;" d="M194.835,317.165l-17.962,17.962l1.794-134.662c0.063-4.888,4.027-8.836,8.976-8.742
		c4.888,0.063,8.805,4.089,8.742,8.976L194.835,317.165z"/>
	<path style="fill:#51E9D3;" d="M272.76,239.239l-17.962,17.962l2.045-154.152c0.071-4.849,4.018-8.734,8.859-8.734
		c0.039-0.008,0.079,0,0.117-0.008c4.895,0.071,8.805,4.089,8.749,8.985L272.76,239.239z"/>
</g>
<g>
	<path style="fill:#3AC099;" d="M125.456,480.716c0.071,4.895-3.846,8.922-8.742,8.976l-95.683,1.277l17.962-17.962l77.487-1.034
		C121.414,471.896,125.393,475.828,125.456,480.716z"/>
	<path style="fill:#3AC099;" d="M222.871,402.54c0.063,4.888-3.854,8.914-8.742,8.976l-115.182,1.535l17.97-17.97l96.976-1.285
		c0.031,0,0.079,0,0.117-0.008C218.844,393.797,222.808,397.683,222.871,402.54z"/>
	<path style="fill:#3AC099;" d="M320.277,324.355c0.071,4.895-3.846,8.922-8.742,8.976l-134.662,1.794l17.962-17.962l116.466-1.551
		c0.031,0,0.079,0,0.125,0C316.259,315.621,320.215,319.499,320.277,324.355z"/>
	<path style="fill:#3AC099;" d="M417.692,246.179c0.063,4.888-3.854,8.914-8.742,8.976l-154.152,2.045l17.962-17.962l135.946-1.809
		C413.564,237.382,417.622,241.284,417.692,246.179z"/>
</g>
<path style="fill:#51E9D3;" d="M302.738,209.261c0.008-95.104-1.755-140.545,37.49-179.789c39.3-39.3,103.008-39.291,142.299,0
	s39.3,102.999,0,142.299C443.283,211.016,397.842,209.253,302.738,209.261z M367.677,144.323c24.134,24.134,63.269,24.134,87.404,0
	c24.134-24.134,24.134-63.269,0-87.404c-24.134-24.134-63.269-24.134-87.404,0C343.543,81.054,343.543,120.189,367.677,144.323z"/>
<path style="fill:#80086E;" d="M455.08,56.92c24.134,24.134,24.134,63.269,0,87.404s-63.269,24.134-87.404,0l20.202-67.202
	L455.08,56.92z"/>
<path style="fill:#BD60B2;" d="M455.08,56.92l-87.403,87.404c-24.134-24.134-24.134-63.269,0-87.404
	C391.811,32.785,430.947,32.785,455.08,56.92z"/>
<path style="fill:#51A978;" d="M2.596,509.404c-3.461-3.461-3.461-9.073,0-12.534L405.114,94.353c3.461-3.461,9.073-3.461,12.534,0
	c3.461,3.461,3.461,9.073,0,12.534L15.13,509.404C11.669,512.865,6.057,512.865,2.596,509.404z"/>
<g>
</g>
<g>
</g>
<g>
</g>
<g>
</g>
<g>
</g>
<g>
</g>
<g>
</g>
<g>
</g>
<g>
</g>
<g>
</g>
<g>
</g>
<g>
</g>
<g>
</g>
<g>
</g>
<g>
</g>
</svg>
