<?xml version="1.0" encoding="iso-8859-1"?>
<!-- Generator: Adobe Illustrator 19.0.0, SVG Export Plug-In . SVG Version: 6.00 Build 0)  -->
<svg version="1.1" id="Layer_1" xmlns="http://www.w3.org/2000/svg" xmlns:xlink="http://www.w3.org/1999/xlink" x="0px" y="0px"
	 viewBox="0 0 512 512" style="enable-background:new 0 0 512 512;" xml:space="preserve">
<path style="fill:#51A978;" d="M355.214,162.286L233.642,83.429L256,0C306.127,39.473,342.19,96.62,355.214,162.286z"/>
<path style="fill:#BBE095;" d="M360.558,216.873c0,3.164-0.056,6.316-0.168,9.446L256,142.186V61.071l99.214,101.215
	C358.724,179.927,360.558,198.182,360.558,216.873z"/>
<path style="fill:#8BB642;" d="M256,119.828L360.39,226.32c-0.626,19.15-3.186,37.796-7.49,55.75c-0.011,0-96.9-76.487-96.9-76.487
	V119.828z"/>
<path style="fill:#4B58E3;" d="M352.889,282.07c-14.645,61.205-49.49,114.35-96.889,151.677V183.224L352.889,282.07z"/>
<path style="fill:#8BB642;" d="M256,0v83.429l-99.214,78.857C169.81,96.62,205.873,39.473,256,0z"/>
<path style="fill:#E0F4B4;" d="M256,61.071v81.115L151.61,226.32c-0.112-3.13-0.168-6.283-0.168-9.446
	c0-18.691,1.833-36.947,5.344-54.587L256,61.071z"/>
<path style="fill:#BBE095;" d="M256,119.828v85.754l-96.889,76.487c-4.315-17.954-6.875-36.6-7.501-55.75L256,119.828z"/>
<path style="fill:#089AC6;" d="M256,183.224v250.522c-47.399-37.327-82.244-90.472-96.9-151.677
	C159.111,282.07,256,183.224,256,183.224z"/>
<path style="fill:#8BB642;" d="M323.264,407.7c3.767,3.197,4.237,8.831,1.051,12.61c-13.515,15.964-28.596,30.53-44.794,43.296
	L256,482.13v-22.772l12.453-9.804c15.259-12.017,29.468-25.745,42.212-40.803C313.852,404.983,319.497,404.514,323.264,407.7z"/>
<path style="fill:#BBE095;" d="M256,459.358v22.772l-23.521-18.524c-16.21-12.766-31.279-27.333-44.794-43.308
	c-3.197-3.767-2.728-9.413,1.051-12.599c3.767-3.197,9.413-2.728,12.599,1.051c12.744,15.047,26.953,28.786,42.212,40.803
	L256,459.358z"/>
<path style="fill:#80086E;" d="M256,512c-4.939,0-8.943-4.004-8.943-8.943V67.074c0-4.939,4.004-8.943,8.943-8.943
	c4.939,0,8.943,4.004,8.943,8.943v435.983C264.943,507.996,260.939,512,256,512z"/>
<g>
</g>
<g>
</g>
<g>
</g>
<g>
</g>
<g>
</g>
<g>
</g>
<g>
</g>
<g>
</g>
<g>
</g>
<g>
</g>
<g>
</g>
<g>
</g>
<g>
</g>
<g>
</g>
<g>
</g>
</svg>
