<?xml version="1.0" encoding="iso-8859-1"?>
<!-- Generator: Adobe Illustrator 19.0.0, SVG Export Plug-In . SVG Version: 6.00 Build 0)  -->
<svg version="1.1" id="Layer_1" xmlns="http://www.w3.org/2000/svg" xmlns:xlink="http://www.w3.org/1999/xlink" x="0px" y="0px"
	 viewBox="0 0 512 512" style="enable-background:new 0 0 512 512;" xml:space="preserve">
<path style="fill:#FFA3A9;" d="M304.488,413.234c-3.477-3.509-9.14-3.534-12.647-0.058c-0.32,0.316-29.788,29.518-55.19,54.879
	v25.29c0,0,67.433-67.121,67.78-67.464C307.939,422.406,307.965,416.743,304.488,413.234z"/>
<g>
	<path style="fill:#FF5A55;" d="M212.214,443.712c-3.502-3.482-9.165-3.467-12.647,0.035c-3.483,3.502-3.468,9.165,0.035,12.647
		c9.886,9.831,37.05,36.952,37.05,36.952v-25.29C228.54,459.958,220.043,451.497,212.214,443.712z"/>
	<path style="fill:#FF5A55;" d="M212.216,403.469c-3.501-3.482-9.163-3.468-12.647,0.035c-3.483,3.501-3.468,9.165,0.035,12.647
		c9.883,9.83,20.834,20.737,30.723,30.626l6.321-18.969C228.539,419.713,220.044,411.253,212.216,403.469z"/>
</g>
<path style="fill:#FFA3A9;" d="M317.664,58.131C306.261,24.337,274.3,0,236.649,0l-33.537,57.22l33.537,383.234
	c57.203-57.203,85.486-74.05,85.486-121.259v-8.418l-29.591-22.727l29.591-22.738v-58.131l-29.591-22.727l29.591-22.727v-58.131
	l-29.591-22.738L317.664,58.131z"/>
<g>
	<path style="fill:#8F2929;" d="M322.135,265.312v45.465h-18.043c-12.543,0-22.727-10.173-22.727-22.727
		s10.184-22.738,22.727-22.738L322.135,265.312L322.135,265.312z"/>
	<path style="fill:#8F2929;" d="M322.135,161.727v45.454h-18.043c-12.543,0-22.727-10.173-22.727-22.727
		c0-12.554,10.184-22.727,22.727-22.727H322.135z"/>
	<path style="fill:#8F2929;" d="M322.135,85.486v18.11h-18.043c-12.543,0-22.727-10.184-22.727-22.738s10.184-22.727,22.727-22.727
		h13.571C320.559,66.717,322.135,75.917,322.135,85.486z"/>
</g>
<path style="fill:#FF5A55;" d="M236.649,0v400.21c-31.301-31.301-46.784-40.524-46.784-66.37V46.784
	C189.865,20.95,210.814,0,236.649,0z"/>
<path style="fill:#8F2929;" d="M236.65,512c-4.939,0-8.943-4.004-8.943-8.943V33.537c0-4.939,4.004-8.943,8.943-8.943
	c4.939,0,8.943,4.004,8.943,8.943v469.52C245.593,507.996,241.59,512,236.65,512z"/>
<g>
</g>
<g>
</g>
<g>
</g>
<g>
</g>
<g>
</g>
<g>
</g>
<g>
</g>
<g>
</g>
<g>
</g>
<g>
</g>
<g>
</g>
<g>
</g>
<g>
</g>
<g>
</g>
<g>
</g>
</svg>
