<?xml version="1.0" encoding="iso-8859-1"?>
<!-- Generator: Adobe Illustrator 19.0.0, SVG Export Plug-In . SVG Version: 6.00 Build 0)  -->
<svg version="1.1" id="Layer_1" xmlns="http://www.w3.org/2000/svg" xmlns:xlink="http://www.w3.org/1999/xlink" x="0px" y="0px"
	 viewBox="0 0 512 512" style="enable-background:new 0 0 512 512;" xml:space="preserve">
<path style="fill:#51E9D3;" d="M256,0c73.782,0,104.558,89.466,104.558,177.747S319.586,344.549,256,394.62l-33.537-216.873L256,0z"
	/>
<path style="fill:#FFF06B;" d="M256,0v394.62c-63.586-50.071-104.558-128.592-104.558-216.873S182.218,0,256,0z"/>
<path style="fill:#51E9D3;" d="M323.264,368.573c3.767,3.197,4.237,8.831,1.051,12.61c-13.515,15.964-28.585,30.53-44.794,43.296
	L256,443.003v-22.772l12.453-9.804c15.259-12.017,29.468-25.745,42.212-40.803C313.852,365.856,319.497,365.387,323.264,368.573z"/>
<path style="fill:#5EDAFF;" d="M293.45,440.018c3.264,3.7,2.918,9.357-0.783,12.621c-4.282,3.779-8.708,7.468-13.147,10.967
	L256,482.13v-22.772l12.453-9.804c4.181-3.298,8.34-6.763,12.375-10.318C284.529,435.96,290.174,436.318,293.45,440.018z"/>
<path style="fill:#E0F4B4;" d="M256,459.358v22.772l-23.521-18.524c-4.449-3.51-8.876-7.199-13.147-10.967
	c-3.7-3.264-4.047-8.921-0.783-12.621c3.264-3.7,8.921-4.058,12.621-0.783c4.024,3.544,8.183,7.02,12.375,10.318L256,459.358z"/>
<path style="fill:#FFF06B;" d="M256,420.231v22.772l-23.521-18.524c-16.21-12.766-31.279-27.333-44.794-43.308
	c-3.197-3.767-2.728-9.413,1.051-12.599c3.767-3.197,9.413-2.728,12.599,1.051c12.744,15.047,26.953,28.786,42.212,40.803
	L256,420.231z"/>
<path style="fill:#80086E;" d="M256,512c-4.939,0-8.943-4.004-8.943-8.943V33.537c0-4.939,4.004-8.943,8.943-8.943
	c4.939,0,8.943,4.004,8.943,8.943v469.52C264.943,507.996,260.939,512,256,512z"/>
<g>
</g>
<g>
</g>
<g>
</g>
<g>
</g>
<g>
</g>
<g>
</g>
<g>
</g>
<g>
</g>
<g>
</g>
<g>
</g>
<g>
</g>
<g>
</g>
<g>
</g>
<g>
</g>
<g>
</g>
</svg>
