<?xml version="1.0" encoding="iso-8859-1"?>
<!-- Generator: Adobe Illustrator 19.0.0, SVG Export Plug-In . SVG Version: 6.00 Build 0)  -->
<svg version="1.1" id="Layer_1" xmlns="http://www.w3.org/2000/svg" xmlns:xlink="http://www.w3.org/1999/xlink" x="0px" y="0px"
	 viewBox="0 0 512 512" style="enable-background:new 0 0 512 512;" xml:space="preserve">
<path style="fill:#FF5A55;" d="M341.486,85.486V99.65L256,207.494L233.642,92.562L256,0C303.209,0,341.486,38.277,341.486,85.486z"
	/>
<polygon style="fill:#51A978;" points="341.486,99.65 341.486,212.838 256,320.682 256,185.136 "/>
<path style="fill:#3AC099;" d="M341.486,212.838v66.113c0,47.209-28.283,64.056-85.486,121.259V298.324L341.486,212.838z"/>
<path style="fill:#FFA3A9;" d="M256,0v92.562c-17.272,0-33.347,5.12-46.784,13.94V46.784C209.216,20.95,230.154,0,256,0z"/>
<path style="fill:#51A978;" d="M323.834,372.989c3.477,3.51,3.454,9.167-0.056,12.643c-0.347,0.347-34.935,34.633-61.451,61.149
	L256,453.098v-25.287c25.399-25.365,54.867-54.565,55.191-54.878C314.701,369.456,320.358,369.478,323.834,372.989z"/>
<path style="fill:#3AC099;" d="M293.383,443.45c3.488,3.499,3.466,9.156-0.034,12.643c-9.961,9.905-21.039,20.938-31.022,30.932
	L256,468.055c8.217-8.205,16.824-16.78,24.739-24.639C284.238,439.929,289.906,439.94,293.383,443.45z"/>
<g>
	<path style="fill:#51E9D3;" d="M256,427.811v25.287l-6.327-6.316c-26.517-26.517-61.105-60.803-61.451-61.149
		c-3.51-3.477-3.533-9.133-0.056-12.643c3.477-3.51,9.133-3.533,12.643-0.056C201.133,373.246,230.601,402.445,256,427.811z"/>
	<path style="fill:#51E9D3;" d="M209.216,106.503c-23.308,15.259-38.702,41.608-38.702,71.557v100.891
		c0,47.209,28.283,64.056,85.486,121.259V92.562C238.728,92.562,222.653,97.682,209.216,106.503z"/>
</g>
<path style="fill:#80086E;" d="M256,512c-4.939,0-8.943-4.004-8.943-8.943V33.537c0-4.939,4.004-8.943,8.943-8.943
	c4.939,0,8.943,4.004,8.943,8.943v469.52C264.943,507.996,260.939,512,256,512z"/>
<g>
</g>
<g>
</g>
<g>
</g>
<g>
</g>
<g>
</g>
<g>
</g>
<g>
</g>
<g>
</g>
<g>
</g>
<g>
</g>
<g>
</g>
<g>
</g>
<g>
</g>
<g>
</g>
<g>
</g>
</svg>
