<?xml version="1.0" encoding="iso-8859-1"?>
<!-- Generator: Adobe Illustrator 19.0.0, SVG Export Plug-In . SVG Version: 6.00 Build 0)  -->
<svg version="1.1" id="Layer_1" xmlns="http://www.w3.org/2000/svg" xmlns:xlink="http://www.w3.org/1999/xlink" x="0px" y="0px"
	 viewBox="0 0 512 512" style="enable-background:new 0 0 512 512;" xml:space="preserve">
<path style="fill:#693F9E;" d="M256.604,0h-1.207l-22.358,106.905h70.361V46.784C303.399,20.95,282.45,0,256.604,0z"/>
<path style="fill:#089AC6;" d="M208.601,46.784v60.121h46.795V0C229.55,0,208.601,20.95,208.601,46.784z"/>
<path style="fill:#FF5A55;" d="M341.486,178.06l0.604,100.891c0,47.209-28.887,64.056-86.09,121.259
	c-0.201-0.201-0.402-0.402-0.604-0.604l-33.537-178.261l33.537-128.771c0.201-0.011,0.402-0.011,0.604-0.011
	c17.54,0,33.839,5.277,47.399,14.343C326.361,122.232,341.486,148.379,341.486,178.06z"/>
<path style="fill:#BBE095;" d="M255.396,92.574v307.032c-56.801-56.722-85.486-73.614-85.486-120.655l0.604-100.891
	c0-29.68,15.125-55.828,38.087-71.155C222.005,97.951,238.091,92.685,255.396,92.574z"/>
<path style="fill:#693F9E;" d="M323.231,372.989c3.477,3.51,3.454,9.167-0.056,12.643c-0.347,0.347-34.946,34.633-61.451,61.149
	l-6.327,6.316v-25.287c25.399-25.365,54.867-54.565,55.191-54.878C314.097,369.456,319.754,369.478,323.231,372.989z"/>
<path style="fill:#FF5A55;" d="M292.779,443.45c3.488,3.499,3.466,9.156-0.034,12.643c-9.961,9.905-21.039,20.938-31.022,30.932
	l-6.327,6.316v-25.287c8.217-8.205,16.824-16.78,24.739-24.639C283.635,439.929,289.302,439.94,292.779,443.45z"/>
<path style="fill:#FFA3A9;" d="M255.396,468.055v25.287l-6.327-6.316c-9.994-9.994-21.061-21.028-31.022-30.932
	c-3.51-3.488-3.521-9.144-0.034-12.643c3.477-3.51,9.144-3.521,12.643-0.034C238.572,451.275,247.18,459.85,255.396,468.055z"/>
<path style="fill:#5EDAFF;" d="M255.396,427.811v25.287l-6.327-6.316c-26.517-26.517-61.105-60.803-61.451-61.149
	c-3.51-3.477-3.533-9.133-0.056-12.643c3.465-3.51,9.133-3.533,12.643-0.056C200.53,373.246,229.986,402.445,255.396,427.811z"/>
<path style="fill:#80086E;" d="M255.394,512c-4.939,0-8.943-4.004-8.943-8.943V44.716c0-4.939,4.004-8.943,8.943-8.943
	c4.939,0,8.943,4.004,8.943,8.943v458.341C264.337,507.996,260.334,512,255.394,512z"/>
<g>
</g>
<g>
</g>
<g>
</g>
<g>
</g>
<g>
</g>
<g>
</g>
<g>
</g>
<g>
</g>
<g>
</g>
<g>
</g>
<g>
</g>
<g>
</g>
<g>
</g>
<g>
</g>
<g>
</g>
</svg>
