<svg version="1.1" xmlns="http://www.w3.org/2000/svg" viewBox="0 0 1160.007971112761 448.6332910540341" width="2320.015942225522" height="897.2665821080682">
  <!-- svg-source:excalidraw -->
  
  <defs>
    <style>
      @font-face {
        font-family: "Virgil";
        src: url("https://excalidraw.com/Virgil.woff2");
      }
      @font-face {
        font-family: "Cascadia";
        src: url("https://excalidraw.com/Cascadia.woff2");
      }
    </style>
  </defs>
  <rect x="0" y="0" width="1160.007971112761" height="448.6332910540341" fill="#ffffff"></rect><g stroke-linecap="round" transform="translate(536.723843025955 224.21023113485188) rotate(0 152.00738275038873 92.48745550864916)"><path d="M0 0 C114.65 0, 229.3 0, 304.01 0 M0 0 C94.84 0, 189.69 0, 304.01 0 M304.01 0 C304.01 38.18, 304.01 76.36, 304.01 184.97 M304.01 0 C304.01 72.47, 304.01 144.94, 304.01 184.97 M304.01 184.97 C191.13 184.97, 78.24 184.97, 0 184.97 M304.01 184.97 C195.02 184.97, 86.02 184.97, 0 184.97 M0 184.97 C0 142.51, 0 100.04, 0 0 M0 184.97 C0 118.43, 0 51.89, 0 0" stroke="#000000" stroke-width="1" fill="none"></path></g><g transform="translate(552.3008224435354 236.00605962739735) rotate(0 38 9.5)"><text x="0" y="15" font-family="Helvetica, Segoe UI Emoji" font-size="16px" fill="#000000" text-anchor="start" style="white-space: pre;" direction="ltr">Peeps List</text></g><g transform="translate(549.5220030361012 245.0303444356981) rotate(0 130.5 83.5)"><text x="0" y="14.555555555555557" font-family="Helvetica, Segoe UI Emoji" font-size="16px" fill="#000000" text-anchor="start" style="white-space: pre;" direction="ltr"></text><text x="0" y="33.111111111111114" font-family="Helvetica, Segoe UI Emoji" font-size="16px" fill="#000000" text-anchor="start" style="white-space: pre;" direction="ltr">Peeps in reverse chronological order</text><text x="0" y="51.66666666666667" font-family="Helvetica, Segoe UI Emoji" font-size="16px" fill="#000000" text-anchor="start" style="white-space: pre;" direction="ltr">Each peep shows: </text><text x="0" y="70.22222222222223" font-family="Helvetica, Segoe UI Emoji" font-size="16px" fill="#000000" text-anchor="start" style="white-space: pre;" direction="ltr">Peep content</text><text x="0" y="88.77777777777779" font-family="Helvetica, Segoe UI Emoji" font-size="16px" fill="#000000" text-anchor="start" style="white-space: pre;" direction="ltr">Post date &amp; time</text><text x="0" y="107.33333333333334" font-family="Helvetica, Segoe UI Emoji" font-size="16px" fill="#000000" text-anchor="start" style="white-space: pre;" direction="ltr">Author username</text><text x="0" y="125.88888888888891" font-family="Helvetica, Segoe UI Emoji" font-size="16px" fill="#000000" text-anchor="start" style="white-space: pre;" direction="ltr">Author name</text><text x="0" y="144.44444444444446" font-family="Helvetica, Segoe UI Emoji" font-size="16px" fill="#000000" text-anchor="start" style="white-space: pre;" direction="ltr"></text><text x="0" y="163" font-family="Helvetica, Segoe UI Emoji" font-size="16px" fill="#000000" text-anchor="start" style="white-space: pre;" direction="ltr"></text></g><g stroke-linecap="round" transform="translate(534.1307367967407 154.21470498835475) rotate(0 152.00738275038873 27.98995653956686)"><path d="M0 0 C80.33 0, 160.65 0, 304.01 0 M0 0 C119.63 0, 239.25 0, 304.01 0 M304.01 0 C304.01 14.7, 304.01 29.4, 304.01 55.98 M304.01 0 C304.01 11.43, 304.01 22.85, 304.01 55.98 M304.01 55.98 C220.81 55.98, 137.61 55.98, 0 55.98 M304.01 55.98 C188.49 55.98, 72.97 55.98, 0 55.98 M0 55.98 C0 37.11, 0 18.24, 0 0 M0 55.98 C0 38.95, 0 21.91, 0 0" stroke="#000000" stroke-width="1" fill="none"></path></g><g transform="translate(547.7244828913587 165.68266947490747) rotate(0 58.5 9.5)"><text x="0" y="15" font-family="Helvetica, Segoe UI Emoji" font-size="16px" fill="#000000" text-anchor="start" style="white-space: pre;" direction="ltr">New Peep Form</text></g><g transform="translate(514.6446096154024 54.277690096012094) rotate(0 21.5 9.499999999999986)"><text x="0" y="15" font-family="Helvetica, Segoe UI Emoji" font-size="16px" fill="#000000" text-anchor="start" style="white-space: pre;" direction="ltr">GET /</text></g><g stroke-linecap="round"><g transform="translate(840.8073911853322 188.53451210340853) rotate(0 -83.67319978222122 -65.33078341853981)"><path d="M0 0 C10 -19.87, 99.55 -98.06, 59.99 -119.2 C20.43 -140.33, -187.81 -125.53, -237.36 -126.8 M0 0 C10 -19.87, 99.55 -98.06, 59.99 -119.2 C20.43 -140.33, -187.81 -125.53, -237.36 -126.8" stroke="#000000" stroke-width="1" fill="none"></path></g><g transform="translate(840.8073911853322 188.53451210340853) rotate(0 -83.67319978222122 -65.33078341853981)"><path d="M-209.41 -137.7 C-219.42 -133.8, -229.42 -129.9, -237.36 -126.8 M-209.41 -137.7 C-215.14 -135.46, -220.87 -133.23, -237.36 -126.8" stroke="#000000" stroke-width="1" fill="none"></path></g><g transform="translate(840.8073911853322 188.53451210340853) rotate(0 -83.67319978222122 -65.33078341853981)"><path d="M-208.95 -117.18 C-219.12 -120.62, -229.29 -124.07, -237.36 -126.8 M-208.95 -117.18 C-214.77 -119.15, -220.6 -121.12, -237.36 -126.8" stroke="#000000" stroke-width="1" fill="none"></path></g></g><g transform="translate(921.0079711127611 26.040115985485755) rotate(0 114.5 36.999999999999986)"><text x="0" y="15.5" font-family="Helvetica, Segoe UI Emoji" font-size="16px" fill="#000000" text-anchor="start" style="white-space: pre;" direction="ltr">POST /peeps</text><text x="0" y="34" font-family="Helvetica, Segoe UI Emoji" font-size="16px" fill="#000000" text-anchor="start" style="white-space: pre;" direction="ltr">creates new peep</text><text x="0" y="52.5" font-family="Helvetica, Segoe UI Emoji" font-size="16px" fill="#000000" text-anchor="start" style="white-space: pre;" direction="ltr">redirects to GET /</text><text x="0" y="71" font-family="Helvetica, Segoe UI Emoji" font-size="16px" fill="#000000" text-anchor="start" style="white-space: pre;" direction="ltr">reloads page with updated peep</text></g><g stroke-linecap="round" transform="translate(254.74704134057083 169.52801754796855) rotate(0 89.62151140032194 54.28098141171745)"><path d="M0 0 C59.37 0, 118.74 0, 179.24 0 M0 0 C68.53 0, 137.05 0, 179.24 0 M179.24 0 C179.24 26.16, 179.24 52.33, 179.24 108.56 M179.24 0 C179.24 34.33, 179.24 68.66, 179.24 108.56 M179.24 108.56 C134.16 108.56, 89.09 108.56, 0 108.56 M179.24 108.56 C130.17 108.56, 81.1 108.56, 0 108.56 M0 108.56 C0 70.43, 0 32.29, 0 0 M0 108.56 C0 70.26, 0 31.95, 0 0" stroke="#000000" stroke-width="1" fill="none"></path></g><g transform="translate(282.86539217619077 187.91322473437998) rotate(0 62.5 28)"><text x="0" y="14.666666666666668" font-family="Helvetica, Segoe UI Emoji" font-size="16px" fill="#000000" text-anchor="start" style="white-space: pre;" direction="ltr">User Log-In Form</text><text x="0" y="33.333333333333336" font-family="Helvetica, Segoe UI Emoji" font-size="16px" fill="#000000" text-anchor="start" style="white-space: pre;" direction="ltr"></text><text x="0" y="52" font-family="Helvetica, Segoe UI Emoji" font-size="16px" fill="#000000" text-anchor="start" style="white-space: pre;" direction="ltr">Sign-Up button</text></g><g stroke-linecap="round" transform="translate(533.894583002215 90.55635445419068) rotate(0 49 24)"><path d="M0 0 C37.74 0, 75.49 0, 98 0 M0 0 C29.42 0, 58.85 0, 98 0 M98 0 C98 15.14, 98 30.28, 98 48 M98 0 C98 13.19, 98 26.38, 98 48 M98 48 C66.78 48, 35.57 48, 0 48 M98 48 C69.55 48, 41.1 48, 0 48 M0 48 C0 28.91, 0 9.81, 0 0 M0 48 C0 31.56, 0 15.13, 0 0" stroke="#000000" stroke-width="1" fill="none"></path></g><g transform="translate(538.894583002215 95.55635445419068) rotate(0 44 19)"><text x="44" y="15" font-family="Helvetica, Segoe UI Emoji" font-size="16px" fill="#000000" text-anchor="middle" style="white-space: pre;" direction="ltr">Log-In </text><text x="44" y="34" font-family="Helvetica, Segoe UI Emoji" font-size="16px" fill="#000000" text-anchor="middle" style="white-space: pre;" direction="ltr">Button</text></g><g stroke-linecap="round" transform="translate(508.31660502421585 78.90915759794893) rotate(0 176.65908759257604 179.86206672804258)"><path d="M0 0 C88.55 0, 177.11 0, 353.32 0 M0 0 C110.65 0, 221.3 0, 353.32 0 M353.32 0 C353.32 86.66, 353.32 173.31, 353.32 359.72 M353.32 0 C353.32 87.51, 353.32 175.02, 353.32 359.72 M353.32 359.72 C254.45 359.72, 155.59 359.72, 0 359.72 M353.32 359.72 C255.29 359.72, 157.26 359.72, 0 359.72 M0 359.72 C0 252.47, 0 145.23, 0 0 M0 359.72 C0 224.26, 0 88.8, 0 0" stroke="#000000" stroke-width="1" fill="none"></path></g><g stroke-linecap="round" transform="translate(262.30396276540773 38.36865861919543) rotate(0 68.95461524635266 43.51834211579016)"><path d="M0 0 C54.79 0, 109.59 0, 137.91 0 M0 0 C48.71 0, 97.41 0, 137.91 0 M137.91 0 C137.91 24.13, 137.91 48.27, 137.91 87.04 M137.91 0 C137.91 28.56, 137.91 57.12, 137.91 87.04 M137.91 87.04 C90.86 87.04, 43.81 87.04, 0 87.04 M137.91 87.04 C103.56 87.04, 69.21 87.04, 0 87.04 M0 87.04 C0 59.31, 0 31.59, 0 0 M0 87.04 C0 59.03, 0 31.03, 0 0" stroke="#000000" stroke-width="1" fill="none"></path></g><g transform="translate(279.43535260111 16.647685079503304) rotate(0 48 46.499999999999986)"><text x="0" y="14.600000000000001" font-family="Helvetica, Segoe UI Emoji" font-size="16.005587567661948px" fill="#000000" text-anchor="start" style="white-space: pre;" direction="ltr"></text><text x="0" y="33.2" font-family="Helvetica, Segoe UI Emoji" font-size="16.005587567661948px" fill="#000000" text-anchor="start" style="white-space: pre;" direction="ltr"></text><text x="0" y="51.800000000000004" font-family="Helvetica, Segoe UI Emoji" font-size="16.005587567661948px" fill="#000000" text-anchor="start" style="white-space: pre;" direction="ltr">All Peeps</text><text x="0" y="70.4" font-family="Helvetica, Segoe UI Emoji" font-size="16.005587567661948px" fill="#000000" text-anchor="start" style="white-space: pre;" direction="ltr"></text><text x="0" y="89" font-family="Helvetica, Segoe UI Emoji" font-size="16.005587567661948px" fill="#000000" text-anchor="start" style="white-space: pre;" direction="ltr">User's Peeps</text></g><g stroke-linecap="round" transform="translate(276.35716669066403 51.16459433243679) rotate(0 40.52942753690729 12.9356556679394)"><path d="M0 0 C21.56 0, 43.11 0, 81.06 0 M0 0 C27.22 0, 54.45 0, 81.06 0 M81.06 0 C81.06 7.16, 81.06 14.32, 81.06 25.87 M81.06 0 C81.06 5.33, 81.06 10.66, 81.06 25.87 M81.06 25.87 C57.07 25.87, 33.07 25.87, 0 25.87 M81.06 25.87 C55.16 25.87, 29.26 25.87, 0 25.87 M0 25.87 C0 19.16, 0 12.45, 0 0 M0 25.87 C0 16.14, 0 6.41, 0 0" stroke="#000000" stroke-width="1" fill="none"></path></g><g transform="translate(268.9621241178736 10) rotate(0 49.5 9.5)"><text x="0" y="15" font-family="Helvetica, Segoe UI Emoji" font-size="16px" fill="#000000" text-anchor="start" style="white-space: pre;" direction="ltr">GET users/:id</text></g><g transform="translate(259.94701033071965 145.4009562090975) rotate(0 60.5 9.5)"><text x="0" y="15" font-family="Helvetica, Segoe UI Emoji" font-size="16px" fill="#000000" text-anchor="start" style="white-space: pre;" direction="ltr">GET users/log-in</text></g><g stroke-linecap="round" transform="translate(271.0806300027491 220.80319677887252) rotate(0 70.58934976574261 17.979786958001597)"><path d="M0 0 C40.83 0, 81.66 0, 141.18 0 M0 0 C54.4 0, 108.79 0, 141.18 0 M141.18 0 C141.18 14.28, 141.18 28.56, 141.18 35.96 M141.18 0 C141.18 9.5, 141.18 19, 141.18 35.96 M141.18 35.96 C100.71 35.96, 60.23 35.96, 0 35.96 M141.18 35.96 C99.27 35.96, 57.36 35.96, 0 35.96 M0 35.96 C0 28.46, 0 20.96, 0 0 M0 35.96 C0 28.75, 0 21.54, 0 0" stroke="#000000" stroke-width="1" fill="none"></path></g><g stroke-linecap="round" transform="translate(271.29156348912204 180.99637949185086) rotate(0 72.26076836971902 16.20977987669872)"><path d="M0 0 C57.34 0, 114.69 0, 144.52 0 M0 0 C55.13 0, 110.27 0, 144.52 0 M144.52 0 C144.52 11.45, 144.52 22.9, 144.52 32.42 M144.52 0 C144.52 8.8, 144.52 17.61, 144.52 32.42 M144.52 32.42 C94.98 32.42, 45.44 32.42, 0 32.42 M144.52 32.42 C91.04 32.42, 37.56 32.42, 0 32.42 M0 32.42 C0 19.66, 0 6.91, 0 0 M0 32.42 C0 19.74, 0 7.07, 0 0" stroke="#000000" stroke-width="1" fill="none"></path></g><g stroke-linecap="round" transform="translate(260.8870399982509 330.40148499187853) rotate(0 87.43651561213329 38.14456970419184)"><path d="M0 0 C47.43 0, 94.86 0, 174.87 0 M0 0 C38.09 0, 76.18 0, 174.87 0 M174.87 0 C174.87 15.75, 174.87 31.51, 174.87 76.29 M174.87 0 C174.87 24.9, 174.87 49.8, 174.87 76.29 M174.87 76.29 C120.96 76.29, 67.05 76.29, 0 76.29 M174.87 76.29 C139.2 76.29, 103.53 76.29, 0 76.29 M0 76.29 C0 52.12, 0 27.96, 0 0 M0 76.29 C0 57.06, 0 37.82, 0 0" stroke="#000000" stroke-width="1" fill="none"></path></g><g transform="translate(265.79812182228034 307.8885233748172) rotate(0 55.5 9.499999999999972)"><text x="0" y="15" font-family="Helvetica, Segoe UI Emoji" font-size="16px" fill="#000000" text-anchor="start" style="white-space: pre;" direction="ltr">GET users/new</text></g><g stroke-linecap="round"><g transform="translate(268.3568367221951 193.074614341985) rotate(0 -54.54773020135627 -88.91114353533276)"><path d="M0 0 C-18.18 -16.32, -107.18 -68.28, -109.06 -97.92 C-110.95 -127.56, -27.59 -164.51, -11.29 -177.82 M0 0 C-18.18 -16.32, -107.18 -68.28, -109.06 -97.92 C-110.95 -127.56, -27.59 -164.51, -11.29 -177.82" stroke="#000000" stroke-width="1" fill="none"></path></g><g transform="translate(268.3568367221951 193.074614341985) rotate(0 -54.54773020135627 -88.91114353533276)"><path d="M-29.99 -154.36 C-22.91 -163.24, -15.84 -172.12, -11.29 -177.82 M-29.99 -154.36 C-24.86 -160.8, -19.73 -167.24, -11.29 -177.82" stroke="#000000" stroke-width="1" fill="none"></path></g><g transform="translate(268.3568367221951 193.074614341985) rotate(0 -54.54773020135627 -88.91114353533276)"><path d="M-40.7 -171.87 C-29.57 -174.12, -18.44 -176.37, -11.29 -177.82 M-40.7 -171.87 C-32.63 -173.5, -24.56 -175.14, -11.29 -177.82" stroke="#000000" stroke-width="1" fill="none"></path></g></g><g stroke-linecap="round"><g transform="translate(401.7628522023915 257.8257698642579) rotate(0 -0.015598513882650877 33.36682602634991)"><path d="M0 0 C-0.01 11.12, -0.03 55.61, -0.03 66.73 M0 0 C-0.01 11.12, -0.03 55.61, -0.03 66.73" stroke="#000000" stroke-width="1" fill="none"></path></g><g transform="translate(401.7628522023915 257.8257698642579) rotate(0 -0.015598513882650877 33.36682602634991)"><path d="M-10.28 38.54 C-6.34 49.37, -2.4 60.21, -0.03 66.73 M-10.28 38.54 C-8.16 44.36, -6.05 50.18, -0.03 66.73" stroke="#000000" stroke-width="1" fill="none"></path></g><g transform="translate(401.7628522023915 257.8257698642579) rotate(0 -0.015598513882650877 33.36682602634991)"><path d="M10.24 38.55 C6.29 49.38, 2.35 60.21, -0.03 66.73 M10.24 38.55 C8.12 44.37, 6 50.18, -0.03 66.73" stroke="#000000" stroke-width="1" fill="none"></path></g></g><g stroke-linecap="round"><g transform="translate(372.0581583379068 67.91529245543197) rotate(0 58.99259352580725 -0.47804221797359503)"><path d="M0 0 C19.66 -0.16, 98.32 -0.8, 117.99 -0.96 M0 0 C19.66 -0.16, 98.32 -0.8, 117.99 -0.96" stroke="#000000" stroke-width="1" fill="none"></path></g><g transform="translate(372.0581583379068 67.91529245543197) rotate(0 58.99259352580725 -0.47804221797359503)"><path d="M89.88 9.53 C98.43 6.34, 106.98 3.15, 117.99 -0.96 M89.88 9.53 C99.9 5.79, 109.91 2.06, 117.99 -0.96" stroke="#000000" stroke-width="1" fill="none"></path></g><g transform="translate(372.0581583379068 67.91529245543197) rotate(0 58.99259352580725 -0.47804221797359503)"><path d="M89.71 -10.99 C98.31 -7.94, 106.91 -4.88, 117.99 -0.96 M89.71 -10.99 C99.79 -7.41, 109.87 -3.84, 117.99 -0.96" stroke="#000000" stroke-width="1" fill="none"></path></g></g><g stroke-linecap="round"><g transform="translate(521.2018897352551 118.59675161006413) rotate(0 -55.977620323847134 17.716120100035482)"><path d="M0 0 C-18.66 5.91, -93.3 29.53, -111.96 35.43 M0 0 C-18.66 5.91, -93.3 29.53, -111.96 35.43" stroke="#000000" stroke-width="1" fill="none"></path></g><g transform="translate(521.2018897352551 118.59675161006413) rotate(0 -55.977620323847134 17.716120100035482)"><path d="M-88.17 17.14 C-95.85 23.05, -103.53 28.95, -111.96 35.43 M-88.17 17.14 C-95.32 22.64, -102.46 28.13, -111.96 35.43" stroke="#000000" stroke-width="1" fill="none"></path></g><g transform="translate(521.2018897352551 118.59675161006413) rotate(0 -55.977620323847134 17.716120100035482)"><path d="M-81.98 36.71 C-91.66 36.3, -101.34 35.88, -111.96 35.43 M-81.98 36.71 C-90.98 36.33, -99.98 35.94, -111.96 35.43" stroke="#000000" stroke-width="1" fill="none"></path></g></g><g stroke-linecap="round" transform="translate(285.47913320298494 349.1470522156253) rotate(0 63.727133192763915 19.080309495599238)"><path d="M0 0 C43.58 0, 87.15 0, 127.45 0 M0 0 C37.22 0, 74.44 0, 127.45 0 M127.45 0 C127.45 12.03, 127.45 24.06, 127.45 38.16 M127.45 0 C127.45 10.59, 127.45 21.17, 127.45 38.16 M127.45 38.16 C97.37 38.16, 67.28 38.16, 0 38.16 M127.45 38.16 C101.96 38.16, 76.46 38.16, 0 38.16 M0 38.16 C0 29.8, 0 21.44, 0 0 M0 38.16 C0 23.36, 0 8.56, 0 0" stroke="#000000" stroke-width="1" fill="none"></path></g><g transform="translate(295.0215807060713 362.3368759224611) rotate(0 50.5 9.5)"><text x="0" y="15" font-family="Helvetica, Segoe UI Emoji" font-size="16px" fill="#000000" text-anchor="start" style="white-space: pre;" direction="ltr">Sign-Up Form</text></g><g stroke-linecap="round"><g transform="translate(284.6766688526534 368.50707785619716) rotate(0 -124.01072667028507 -174.957863169873)"><path d="M0 0 C-41.32 -35.54, -243.03 -154.95, -247.93 -213.27 C-252.82 -271.58, -65.8 -327.14, -29.37 -349.92 M0 0 C-41.32 -35.54, -243.03 -154.95, -247.93 -213.27 C-252.82 -271.58, -65.8 -327.14, -29.37 -349.92" stroke="#000000" stroke-width="1" fill="none"></path></g><g transform="translate(284.6766688526534 368.50707785619716) rotate(0 -124.01072667028507 -174.957863169873)"><path d="M-50.96 -329.09 C-43.17 -336.6, -35.38 -344.12, -29.37 -349.92 M-50.96 -329.09 C-42.66 -337.1, -34.35 -345.11, -29.37 -349.92" stroke="#000000" stroke-width="1" fill="none"></path></g><g transform="translate(284.6766688526534 368.50707785619716) rotate(0 -124.01072667028507 -174.957863169873)"><path d="M-59.3 -347.84 C-48.5 -348.59, -37.7 -349.34, -29.37 -349.92 M-59.3 -347.84 C-47.79 -348.64, -36.28 -349.44, -29.37 -349.92" stroke="#000000" stroke-width="1" fill="none"></path></g></g><g transform="translate(10 264.83516460188247) rotate(0 91 28)"><text x="0" y="14.666666666666668" font-family="Helvetica, Segoe UI Emoji" font-size="16px" fill="#000000" text-anchor="start" style="white-space: pre;" direction="ltr">POST /users</text><text x="0" y="33.333333333333336" font-family="Helvetica, Segoe UI Emoji" font-size="16px" fill="#000000" text-anchor="start" style="white-space: pre;" direction="ltr">creates new user</text><text x="0" y="52" font-family="Helvetica, Segoe UI Emoji" font-size="16px" fill="#000000" text-anchor="start" style="white-space: pre;" direction="ltr">redirects to GET users/:id</text></g><g transform="translate(118.62157446088793 153.32013296922725) rotate(0 51.5 28)"><text x="0" y="14.666666666666668" font-family="Helvetica, Segoe UI Emoji" font-size="16px" fill="#000000" text-anchor="start" style="white-space: pre;" direction="ltr">validates User</text><text x="0" y="33.333333333333336" font-family="Helvetica, Segoe UI Emoji" font-size="16px" fill="#000000" text-anchor="start" style="white-space: pre;" direction="ltr">redirects to</text><text x="0" y="52" font-family="Helvetica, Segoe UI Emoji" font-size="16px" fill="#000000" text-anchor="start" style="white-space: pre;" direction="ltr">GET /users/:id</text></g></svg>